<svg id="visual" viewBox="0 0 960 540" width="960" height="540" xmlns="http://www.w3.org/2000/svg" xmlns:xlink="http://www.w3.org/1999/xlink" version="1.1"><rect x="0" y="0" width="960" height="540" fill="#f3f4f6"></rect><defs><linearGradient id="grad1_0" x1="43.8%" y1="0%" x2="100%" y2="100%"><stop offset="14.444444444444446%" stopColor="#f3f4f6" stopOpacity="1"></stop><stop offset="85.55555555555554%" stopColor="#f3f4f6" stopOpacity="1"></stop></linearGradient></defs><defs><linearGradient id="grad2_0" x1="0%" y1="0%" x2="56.3%" y2="100%"><stop offset="14.444444444444446%" stopColor="#f3f4f6" stopOpacity="1"></stop><stop offset="85.55555555555554%" stopColor="#f3f4f6" stopOpacity="1"></stop></linearGradient></defs><g transform="translate(960, 0)"><path d="M0 216C-25.7 189.8 -51.5 163.7 -86 149C-120.5 134.2 -163.9 130.9 -187.1 108C-210.2 85.1 -213.1 42.5 -216 0L0 0Z" fill="#feb60f"></path></g><g transform="translate(0, 540)"><path d="M0 -216C36.1 -207.9 72.3 -199.7 105.5 -182.7C138.7 -165.7 169.1 -139.9 187.1 -108C205 -76.1 210.5 -38 216 0L0 0Z" fill="#feb60f"></path></g></svg>