<?xml version="1.0" encoding="utf-8" ?><svg xmlns="http://www.w3.org/2000/svg" xmlns:xlink="http://www.w3.org/1999/xlink" width="761" height="720" viewBox="0 0 761 720"><path fill="#FEA916" transform="scale(1.70605 1.70605)" d="M180.248 404.402C74.5197 387.215 1.20432 289.642 14.1212 183.307C27.038 76.9729 121.582 -0.21037 228.35 8.4161C335.118 17.0426 416.044 108.403 411.722 215.432C407.4 322.461 319.371 406.998 212.255 406.988C210.934 406.988 209.613 406.974 208.292 406.948C198.896 406.761 189.525 405.91 180.248 404.402ZM401.558 205.907C400.935 194.352 400.161 182.818 398.074 171.416C390.567 130.517 369.638 93.2881 338.597 65.6198C310.605 40.6807 275.95 24.4428 238.874 18.8933C233.768 18.1331 228.629 17.6227 223.474 17.3638C220.077 17.1946 216.638 17.2443 213.253 16.9731C213.958 21.281 214.513 25.6295 215.412 29.9014C220.993 56.4143 231.735 76.4408 254.01 92.4635C268.577 102.755 285.747 108.739 303.555 109.733C305.903 109.872 308.478 109.571 308.928 112.41C309.674 117.117 309.577 121.876 310.504 126.614C315.099 150.114 327.409 170.98 346.73 185.322C359.156 194.547 373.207 200.363 388.294 203.592C392.663 204.527 397.247 204.85 401.558 205.907ZM23.2911 205.763L25.1044 205.458C32.9292 203.981 40.9 202.297 48.4453 199.722C68.4443 192.976 85.7163 179.926 97.6698 162.531C105.614 150.892 110.718 137.212 113.063 123.357C113.761 119.236 113.792 114.989 114.606 110.903C120.495 109.943 126.402 109.689 132.266 108.427C155.84 103.355 176.639 90.3656 190.806 70.7422C200.545 57.252 206.434 41.8454 208.93 25.4448C209.283 23.1222 210.182 19.7771 209.854 17.499C209.837 17.3799 209.813 17.2618 209.793 17.1431C208.943 16.9499 208.12 17.0673 207.261 17.1399C154.446 19.5505 107.18 41.4542 71.5259 80.5415C40.5612 114.909 23.3835 159.504 23.2911 205.763ZM309.03 304.099C302.303 305.245 295.646 305.726 288.978 307.382C266.34 313.215 246.486 326.846 232.909 345.877C224.172 358.214 218.387 372.243 215.116 386.971C214.425 390.081 213.593 393.334 213.503 396.526L213.732 396.85L214.008 396.769C265.32 396.266 314.225 374.933 349.499 337.666C356.866 330.006 363.24 321.791 369.19 312.997C390.593 281.366 400.515 247.146 401.684 209.229C401.294 209.033 401.476 209.048 401.155 209.087C371.618 213.426 345.559 225.532 327.438 249.887C318.659 261.779 312.871 275.608 310.56 290.208C309.842 294.805 309.839 299.551 309.03 304.099ZM213.528 208.672C214.407 214.348 215.155 220.072 216.598 225.639C222.312 247.681 235.234 268.203 253.752 281.718C266.656 291.136 280.531 296.986 296.159 300.206C299.6 300.915 303.395 301.851 306.924 301.803C302.603 272.53 289.927 247.703 265.907 229.863C250.542 218.452 232.294 211.793 213.528 208.672ZM115.968 111.838C117.722 118.34 118.585 125.011 120.553 131.494C128.041 156.167 142.998 177.681 165.571 190.691C172.351 194.599 179.84 198.06 187.305 200.427C190.552 201.456 193.918 202.153 197.197 203.086C201.52 204.317 205.499 205.764 210.059 205.797C209.962 201.13 208.875 196.339 207.799 191.811C203.11 172.079 193.18 155.206 178.596 141.189C167.087 130.127 150.892 121.135 135.685 116.435C129.203 114.431 122.597 113.208 115.968 111.838ZM209.406 208.599C180.969 212.368 155.185 227.253 137.702 249.996C124.636 267.055 120.56 281.221 116.058 301.636L116.189 302.062L116.723 302.203C140.883 300.843 166.786 288.163 182.889 270.167C196.165 255.33 205.275 237.687 208.667 218.015C209.189 214.988 209.874 211.83 209.985 208.756L209.658 208.517L209.406 208.599ZM306.126 111.629C300.471 112.718 294.939 113.484 289.385 115.144C266.947 121.854 244.9 136.795 231.697 156.318C224.473 166.999 219.588 178.06 216.137 190.433C214.826 195.134 213.559 200.302 213.409 205.189L213.736 205.615C236.625 202.864 260.408 192.919 277.04 176.688C280.106 173.696 282.814 170.264 285.454 166.9C294.668 155.162 300.956 140.52 304.115 125.967C305.121 121.333 305.549 116.615 306.538 111.985L306.338 111.604L306.126 111.629ZM114.12 304.111C112.225 277.399 102.232 251.987 81.7221 234.162C65.2054 219.807 44.582 212.191 23.1837 208.871C23.6325 218.793 23.9924 228.596 25.6079 238.418C32.305 279.139 52.9785 318.418 83.5452 346.294C110.673 371.341 144.495 387.966 180.897 394.144C190.559 395.738 200.354 396.284 210.114 396.829C209.108 391.67 208.598 386.516 207.294 381.4C201.139 357.249 187.668 335.776 166.805 321.738C150.85 311.002 133.248 305.515 114.12 304.111Z"/><defs><linearGradient id="gradient_0" gradientUnits="userSpaceOnUse" x1="192.81905" y1="407.67676" x2="193.35941" y2="404.71536"><stop offset="0" stop-color="#F9F6FE" stop-opacity="0"/><stop offset="1" stop-color="#FCFFF9" stop-opacity="0.011764706"/></linearGradient></defs><path fill="url(#gradient_0)" transform="scale(1.70605 1.70605)" d="M180.248 404.402C189.525 405.91 198.896 406.761 208.292 406.948L207.11 407.522C202.887 407.357 198.641 407.654 194.422 407.419C191.461 407.255 188.473 406.667 185.534 406.264C183.367 405.967 180.88 405.759 178.84 404.963C179.251 404.507 179.664 404.533 180.248 404.402Z"/><path fill="#FFFBED" fill-opacity="0.011764706" transform="scale(1.70605 1.70605)" d="M208.292 406.948C209.613 406.974 210.934 406.988 212.255 406.988C212.326 407.005 212.397 407.024 212.469 407.04C213.442 407.264 214.354 407.274 215.344 407.274L215.419 407.435C212.664 407.621 209.873 407.47 207.11 407.522L208.292 406.948Z"/></svg>