<?xml version="1.0" encoding="utf-8" ?><svg xmlns="http://www.w3.org/2000/svg" xmlns:xlink="http://www.w3.org/1999/xlink" width="1024" height="1024" viewBox="0 0 1024 1024"><defs><linearGradient id="gradient_0" gradientUnits="userSpaceOnUse" x1="288.78668" y1="802.14105" x2="229.26724" y2="745.68866"><stop offset="0" stop-color="#E39A00"/><stop offset="1" stop-color="#EEB61C"/></linearGradient></defs><path fill="url(#gradient_0)" d="M366.803 599.564C380.585 602.611 394.388 605.568 408.21 608.433C346.928 668.966 286.69 730.548 227.525 793.152L192.163 831.145C185.95 837.769 172.066 851.905 167.682 858.778C176.826 853.685 197.33 834.246 206.286 826.599C230.462 805.965 254.912 785.654 279.629 765.671C281.85 758.429 282.067 751.551 284.266 744.447C285.565 743.101 287.263 741.969 288.788 740.857C287.53 747.635 286.349 753.746 286.098 760.643C293.963 755.104 301.929 748.215 309.402 742.039C310.646 734.808 311.902 721.44 313.769 715.043C315.883 712.77 317.178 711.772 319.567 709.882C318.567 714.561 313.971 732.445 317.079 735.359C320.42 735.445 334.704 722.856 338.354 719.873C340.984 710.299 339.764 695.224 344.389 686.013C344.827 685.141 347.509 682.833 348.382 682.073C347.827 687.344 343.027 710.877 344.482 713.727C348.624 713.675 363.601 701.709 367.222 698.547C369.951 683.784 370.577 669.84 372.994 656.1C374.551 654.624 377.076 652.722 378.807 651.333C376.406 663.773 374.024 681.138 372.567 693.808C379.312 689.786 389.352 681.789 395.893 676.877C399.475 660.31 401.031 640.572 404.725 624.039C406.572 622.116 408.402 620.83 410.514 619.222C408.976 625.718 407.738 632.534 406.454 639.11C404.985 646.949 401.288 665.443 400.803 672.625C405.575 669.786 422.867 655.765 425.614 655.471C426.435 656.958 426.412 656.866 426.685 658.538C426.045 659.899 401.516 677.744 398.292 680.166C361.517 707.646 325.06 735.549 288.93 763.871C253.375 792.424 218.404 821.696 184.038 851.668C153.249 878.059 121.017 905.083 91.9431 933.29L91.8975 932.483L91.1676 933.828C92.99 930.586 110.843 910.762 114.285 906.889C126.261 893.426 137.983 879.739 149.446 865.836L287.909 698.437C309.508 672.179 331.175 646.216 351.923 619.242C356.972 612.677 362.066 606.393 366.803 599.564Z"/><path fill="#FCF9EF" d="M167.599 857.698C169.036 858.17 168.214 857.187 169.76 858.272C166.143 861.808 162.145 865.09 158.282 868.37L157.988 868.605L157.471 868.464C159.015 866.115 165.32 860.01 167.599 857.698Z"/><path fill="#FDA916" d="M99.1217 99.0306C147.92 142.935 200.279 185.055 250.74 227.148L381.68 334.847C395.308 346.006 408.929 358.406 422.655 369.285C421.661 374.193 416.142 403.726 414.276 405.863C412.331 404.535 397.11 388.776 394.315 386.017C381.387 373.25 368.276 360.784 355.261 348.1L208.989 207.638C203.86 202.791 175.825 175.325 172.161 173.544L172.186 176.136C173.467 179.43 177.05 183.092 179.391 185.84C205.101 216.014 231.175 245.968 256.095 276.799C259.934 281.549 263.543 286.568 267.669 291.066C272.36 291.709 276.26 291.889 281.115 292.768C283.196 295.46 283.579 295.84 286.216 298.006C280.768 296.961 277.34 296.375 271.803 296.233C275.807 300.817 285.019 314.266 289.183 319.792C296.617 320.358 304.041 321.046 311.452 321.856C313.793 323.598 315.794 325.887 317.823 328.013C309.372 326.556 300.561 325.439 292.043 324.252C297.753 332.563 304.076 340.122 310.425 347.934C319.568 348.385 331.216 349.357 340.272 350.377L347.48 355.998C339.32 356.244 324.299 353.714 314.087 353.508C320.496 361.412 326.681 369.494 332.636 377.745C344.89 378.081 359.589 378.913 371.838 380.345C374.434 382.319 376.242 384.075 378.601 386.32C364.173 385.479 352.912 383.117 337.331 383.399C340.873 389.315 350.614 401.497 355.116 407.631C369.042 408.593 387.701 407.268 401.286 410.586C402.222 410.815 405.842 413.489 406.861 414.237C398.584 414.004 390.309 413.718 382.036 413.38C374.472 413.012 366.825 412.354 359.275 412.555C361.431 415.956 367.714 422.333 366.5 426.072L365.3 426.612C362.621 425.92 357.163 417.329 355.008 414.557L330.826 383.035C309.072 354.35 286.686 326.352 266.134 296.796C259.969 287.928 251.01 278.507 244.119 270.162C222.877 244.279 201.297 218.675 179.385 193.357C152.592 162.135 126.268 130.097 97.7263 100.317L99.1217 99.0306Z"/><path fill="#FCF9EF" d="M172.186 176.136L171.611 176.759C165.867 170.227 155.551 159.686 151.008 153.335C157.606 159.045 166.415 167.091 172.161 173.544L172.186 176.136Z"/><path fill="#FDA916" d="M209.364 243.334C211.217 244.874 215.699 250.738 217.212 252.738C170.865 308.542 141.554 363.69 126.295 435.563C123.355 449.41 121.973 462.62 119.944 476.521L115.455 477.412L107.777 478.679C108.085 469.814 109.573 460.019 110.868 451.218C121.151 385.544 147.533 323.438 187.659 270.44C194.272 261.557 201.84 251.46 209.364 243.334Z"/><path fill="#FDA916" d="M251.368 805.037C314.782 861.618 394.719 896.292 479.362 903.932C480.138 907.613 480.438 912.38 480.552 916.142C477.184 916.067 475.387 915.926 472.055 915.451C384.171 904.647 307.837 872.503 241.935 812.694C244.802 810.081 248.287 807.461 251.368 805.037Z"/><path fill="#FDA916" d="M473.452 108.184C474.969 108.021 477.347 108.031 478.94 107.986L476.124 120.381C416.069 126.188 358.166 145.781 306.925 177.634C293.44 186.011 280.434 195.134 267.968 204.963C264.52 207.68 259.218 212.938 255.482 215.013C255.039 215.259 254.131 214.522 253.5 214.152C251.512 212.207 247.911 209.439 245.646 207.597C253.229 199.299 273.269 185.452 282.878 178.674C328.76 146.303 381.308 125.033 436.235 113.915C448.074 111.519 461.302 109.836 473.452 108.184Z"/><path fill="#FDA916" d="M107.892 545.246C112.738 545.921 115.616 546.598 120.383 547.834C127.475 617.068 148.804 676.637 188.551 734.267C194.688 743.164 205.152 758.015 212.489 765.229L208.547 770.885L204.991 775.801C197.429 767.847 189.162 756.035 182.707 747.226C149.518 701.928 127.299 650.732 115.509 595.874C112.215 580.545 108.431 561.096 107.892 545.246Z"/><path fill="#FDA916" d="M335.741 739.011C344.162 744.433 351.465 750.646 360.76 756.266C391.717 774.983 421.935 785.833 456.869 793.89C457.769 797.885 458.724 801.867 459.733 805.835C457.671 805.52 455.561 805.107 453.503 804.733C444.097 801.729 433.691 799.564 424.19 796.412C391.805 785.668 353.092 768.505 326.962 746.697C330.068 743.715 332.379 741.706 335.741 739.011Z"/><path fill="#FDA916" d="M222.112 570.039C226.414 571.169 228.89 571.652 233.305 572.278C237.666 603.852 251.718 637.925 267.727 665.394C271.47 671.815 276.567 677.913 280.403 684.538L280.815 685.255C279.737 686.88 278.333 688.628 277.138 690.201L274.223 693.602C270.723 689.921 263.647 679.396 260.737 674.852C241.638 645.029 226.48 605.302 222.112 570.039Z"/><path fill="#FDA916" d="M451.772 220.084C453.103 219.932 452.856 219.955 454.185 220.062C455.573 222.558 453.926 227.054 453.213 230.058C450.628 230.99 447.943 231.676 445.274 232.326C434.865 234.865 424.907 237.598 414.8 241.202C394.978 248.486 376.006 257.904 358.219 269.289C352.881 272.706 348.035 277.06 342.735 280.563C341.236 281.553 340.981 281.358 339.623 281.047C337.607 279.362 335.521 277.452 333.541 275.7C338.242 270.778 347.374 264.582 353.172 260.645C385.374 238.779 414.604 228.616 451.772 220.084Z"/><path fill="#FDA916" d="M274.985 329.805C277.445 331.198 279.791 335.692 281.132 338.135C277.65 344.767 268.599 357.26 264.064 365.231C247.046 395.143 239.304 418.984 232.405 452.042L226.494 453.356L221.204 454.538C225.172 426.449 240.613 385.757 254.507 361.257C260.008 351.557 268.61 339.215 274.985 329.805Z"/><path fill="#FDA916" d="M269.098 789.268C270.741 789.611 277.681 795.735 279.482 797.266C296.884 812.053 316.78 825.356 336.96 836.11C360.935 848.684 386.153 858.732 412.207 866.092C425.498 869.842 438.98 872.875 452.596 875.179C457.794 876.106 462.872 876.838 468.086 877.599C471.171 878.048 474.136 879.67 474.733 882.898C474.159 883.729 474.417 883.36 473.115 883.802C400.837 873.632 333.977 849.219 277.182 802.229C274.954 800.386 266.988 794.802 266.191 792.734C266.855 790.637 267.107 790.978 269.098 789.268Z"/><path fill="#FDA916" d="M231.968 265.232C233.87 266.048 234.305 266.923 235.658 268.602C230.354 275.809 223.202 283.253 217.15 291.308C188.144 329.911 168.635 370.522 155.563 417.009C153.406 424.896 151.516 432.855 149.895 440.87C148.933 445.821 146.065 467.032 144.66 469.714C142.433 470.099 142.011 470.61 140.504 469.768C140.03 467.089 143.798 446.232 144.516 442.508C156.952 377.964 187.859 314.051 231.968 265.232Z"/><path fill="#FDA916" d="M469.115 140.167C471.18 139.828 471.829 139.366 472.483 141.441C472.097 142.59 470.681 144.642 469.436 144.803C393.325 154.663 333.192 182.354 273.346 231.602C271.7 231.349 270.68 230.781 269.891 229.372C270.248 226.962 274.648 223.856 276.592 222.276C316.493 189.862 363.205 165.208 412.759 151.443C432.067 146.08 449.592 143.039 469.115 140.167Z"/><path fill="#FDA916" d="M139.881 552.677L145.277 553.658C151.461 609.156 170.489 662.45 200.852 709.315C205.071 715.856 209.48 722.272 214.073 728.555C216.5 731.841 226.671 743.644 227.464 745.738L226.522 747.48C225.478 748.182 225.537 748.189 224.331 748.501C220.462 746.724 208.892 730.256 205.846 725.841C184.677 695.168 166.059 660.623 155.538 624.756C148.744 601.595 142.161 576.648 139.881 552.677Z"/><path fill="#FDA916" d="M346.461 732.032C348.442 732.839 353.205 736.434 355.173 737.799C386.21 759.335 418.537 771.786 454.943 780.571C454.764 782.464 454.95 783.867 453.972 785.232L452.387 785.027C414.184 777.928 373.64 758.087 342.327 735.36C343.54 734.141 345.07 733.074 346.461 732.032Z"/><path fill="#FDA916" d="M240.187 574.577C241.663 574.972 245.078 575.672 245.484 577.497C252.548 609.206 264.481 639.905 283.104 666.67C285.793 670.535 288.621 672.576 285.963 676.883L284.635 678.123L283.837 677.806C260.38 642.05 248.504 616.667 240.187 574.577Z"/><path fill="#FDA916" d="M284.771 345.281C286.236 346.372 286.893 347.547 286.926 349.307C282.844 357.755 276.208 366.95 271.518 375.295C263.84 388.956 258.333 402.71 253.161 417.496C249.59 427.704 247.312 438.122 243.649 448.236C243.649 448.236 242.081 449.471 241.928 449.592L240.008 449.292L239.521 448.356C246.176 414.843 263.494 372.244 284.771 345.281Z"/><path fill="#FDA916" d="M449.851 238.12L450.192 238.337C452.708 244.67 440.175 245.438 435.51 246.807C411.723 253.761 388.98 263.885 367.893 276.907C363.063 279.941 358.384 283.762 353.684 287.011C351.644 288.422 351.849 288.181 349.976 287.784C348.588 286.449 348.089 286.342 348.052 284.862C351.759 281.535 363.488 274.129 367.979 271.357C394.583 254.94 419.543 245.249 449.851 238.12Z"/><path fill="#E7BA73" fill-opacity="0.97647059" d="M97.7263 100.317L85.3568 87.6231L85.451 87.0016L84.838 86.7548L84.8628 86.7455C88.004 88.5072 96.2739 96.2812 99.1217 99.0306L97.7263 100.317Z"/><path fill="#FDA916" d="M599.485 362.007C620.922 346.666 641.871 330.209 663.005 314.436C669.342 309.708 675.355 304.464 681.653 299.676C766.618 234.933 848.868 166.703 928.191 95.1596L927.693 97.613C879.819 150.635 833.312 204.874 788.216 260.277C770.854 281.273 752.988 302.146 735.659 323.187C731.195 328.607 726.959 334.669 722.535 340.233L682.673 390.106C675.105 399.727 666.072 412.129 658.215 421.085C645.209 418.138 632.258 414.954 619.368 411.534C665.407 362.429 712.024 313.87 759.21 265.866L799.103 224.806C806.813 217.002 819.325 205.117 826.19 197.023C826.53 192.607 827.28 191.281 829.046 187.289C812.629 200.438 797.039 214.438 780.728 227.629C772.433 234.223 764.181 240.87 755.971 247.568C751.372 251.287 745.939 255.246 741.804 259.372C740.584 264.066 739.575 269.263 738.551 274.036C735.434 277.332 732.431 280.735 729.547 284.237C730.365 278.233 732.74 271.738 733.809 265.159C726.13 270.455 717.007 277.854 709.834 283.917C708.547 288.881 707.878 294.633 707.291 299.735C706.432 307.207 704.563 308.654 698.966 312.966C700.708 304.285 701.574 298.049 702.724 289.258C695.18 295.241 687.258 300.79 679.651 306.923C677.914 316.189 676.375 329.415 675.276 338.826C673.823 340.444 671.39 342.449 669.699 343.933C670.699 334.281 673.86 320.924 673.897 311.615C668.573 314.912 656.243 324.77 651.932 329.064C649.352 339.86 647.209 358.582 645.479 370.272C644.164 371.596 641.79 373.438 640.287 374.68C641.905 362.56 645.251 344.492 645.972 333.042C639.808 337.013 628.15 345.937 622.363 350.631C619.979 361.573 618.771 374.03 617.021 385.125C616.298 389.704 615.334 400.058 613.733 403.875C612.762 404.735 612.474 405.211 611.221 405.378C610.631 404.41 610.429 404.035 610.573 402.758C612.354 386.966 614.338 371.043 616.475 355.295C611.925 358.145 605.259 364.375 601.046 366.309C600.03 365.376 599.831 363.472 599.485 362.007ZM848.774 173.788C851.772 171.754 859.556 163.136 862.723 160.168L862.265 159.305C859.361 161.863 848.654 170.578 846.886 172.489C842.174 176.28 837.157 180.069 832.744 184.214C828.973 187.755 828.715 191.074 827.168 195.715L827.475 196.084C834.355 189.368 842.141 180.886 848.774 173.788Z"/><path fill="#FCF9EF" fill-opacity="0.5411765" d="M846.886 172.489L848.774 173.788C842.141 180.886 834.355 189.368 827.475 196.084L827.168 195.715C828.715 191.074 828.973 187.755 832.744 184.214C837.157 180.069 842.174 176.28 846.886 172.489Z"/><path fill="#FCF9EF" fill-opacity="0.98823529" d="M862.265 159.305L862.723 160.168C859.556 163.136 851.772 171.754 848.774 173.788L846.886 172.489C848.654 170.578 859.361 161.863 862.265 159.305Z"/><path fill="#EBD182" d="M868.193 154.185C866.254 156.47 864.882 158.073 862.723 160.168L862.265 159.305C864.116 157.048 865.882 155.913 868.193 154.185Z"/><path fill="#FDA916" d="M669.49 620.267C663.515 619.457 620.762 612.727 618.176 611.179L617.56 609.375L617.99 608.644C625.867 607.626 651.825 613.521 660.94 614.075C661.42 613.768 661.9 613.461 662.38 613.153L662.794 612.177C661.001 608.476 654.447 603.103 655.213 600.77C656.638 600.401 657.583 599.978 658.973 600.381C663.373 604.958 667.882 610.94 671.83 615.973C692.994 642.952 713.855 670.131 735.424 696.799C741.73 704.595 747.433 713.274 753.521 721.275C768.532 741.02 783.888 760.5 799.581 779.707C825.036 810.674 851.772 840.348 877.346 871.189C880.394 874.864 883.598 878.489 886.743 882.082C895.068 891.7 903.527 901.2 912.118 910.58C915.036 913.8 923.813 923.12 925.847 926.217C924.699 925.639 924.693 925.544 923.438 925.415C909.761 913.214 896.325 899.961 882.319 888.145C871.969 879.413 860.856 870.775 850.311 862.205C835.801 850.269 821.389 838.215 807.075 826.044C796.024 816.591 785.871 807.102 775.037 797.607C761.845 786.151 748.514 774.854 735.049 763.719C693.213 728.417 650.472 694.584 607.385 660.838C604.817 658.827 601.563 656.774 599.26 654.609C599.846 647.903 605.317 622.354 607.251 615.232C610.764 617.583 617.766 625.457 621.259 628.904L654.994 661.925C708.968 714.14 762.089 767.746 816.851 819.108C823.932 825.75 847.203 849.433 854.35 852.853C853.224 850.367 851.748 848.065 850.006 845.972C837.318 830.739 824.332 815.647 811.601 800.433L795.849 781.502C793.078 778.126 787.898 771.046 784.821 768.682C776.444 762.246 768.26 758.156 760.116 751.028C763.622 752.479 768.187 754.879 771.8 754.203L772.336 753.823C772.724 750.904 760.656 735.692 757.946 734.431C744.801 728.315 742.084 733.648 730.393 721.666C734.88 723.147 744.361 726.78 748.659 725.773C750.732 723.429 747.787 720.273 746.195 718.142C743.473 714.5 740.732 710.619 737.935 707.054C730.935 705.495 723.819 703.958 716.794 702.543C709.861 701.147 707.408 699.717 702.636 694.902C707.27 695.826 725.405 700.155 728.943 699.364C731.926 696.632 717.486 681.142 714.853 677.806L714.137 677.601C702.931 674.464 688.832 674.344 678.554 669.937C677.209 669.36 674.598 666.284 673.493 665.011C679.685 666.372 700.967 671.545 706.16 670.648L707.175 669.901C707.07 667.285 695.253 652.717 692.892 649.787C686.484 648.332 680.04 647.046 673.564 645.931C665.701 644.567 655.425 643.63 648.388 640.487C646.391 639.595 644.374 637.203 642.86 635.545C649.393 636.679 680.714 644.422 684.351 641.814C684.976 641.366 684.745 641.354 684.782 640.454C682.828 635.881 673.111 624.93 669.49 620.267Z"/><path fill="#FCF9EF" d="M868.302 868.668C864.778 865.054 856.386 857.426 853.92 854.205C854.707 852.58 854.102 853.012 855.511 852.515C857.14 853.763 867.379 865.724 869.437 868.061L868.302 868.668Z"/><path fill="#EBD182" d="M869.437 868.061C871.783 870.511 873.619 872.969 875.409 875.836C872.942 873.504 870.465 871.284 868.302 868.668L869.437 868.061Z"/><path fill="#FDA916" d="M768.727 808.813C771.902 810.737 776.266 814.514 779.261 816.952C728.793 860.835 668.356 891.705 603.219 906.87C585.136 911.029 571.041 912.794 553.114 915.435C549.82 915.903 546.873 915.978 543.555 916.113C544.331 912.075 545.388 907.73 546.287 903.69C557.56 903.184 580.779 898.909 591.547 896.661C643.68 885.778 693.073 864.462 736.754 833.995C749.315 825.12 757.147 818.136 768.727 808.813Z"/><path fill="#FDA916" d="M545.942 107.959C562.552 109.854 576.914 111.407 593.466 114.727C658.081 127.69 731.556 162.359 779.535 208.157L776.493 210.855C774.478 212.638 772.629 213.965 770.474 215.553C720.015 172.356 659.725 142.204 594.896 127.743C585.645 125.676 576.306 124.024 566.907 122.793C560.379 121.919 553.548 121.456 547.13 120.218C546.589 115.912 546.141 112.293 545.942 107.959Z"/><path fill="#FDA916" d="M916.172 543.69L916.647 543.68C918.139 547.174 912.213 580.425 911.082 585.995C900.581 639.274 879.713 689.97 849.665 735.203C839.149 750.929 827.097 766.226 815.106 780.878L812.7 777.963C811.107 776.292 809.408 774.28 807.858 772.532C809.33 770.382 811.311 768.007 812.958 765.954C824.708 751.307 834.961 735.89 844.974 720.017C870.334 679.333 888.285 634.477 897.994 587.529C900.661 575.02 903.509 558.393 904.4 545.775C908.519 544.919 912.01 544.285 916.172 543.69Z"/><path fill="#FDA916" d="M816.858 247.257C817.165 247.492 817.471 247.727 817.778 247.962C865.454 301.114 898.15 367.278 910.73 437.622C913.195 451.406 916.042 465.278 916.679 479.041L910.623 477.808L904.006 476.128C902.272 463.3 901.062 450.979 898.558 438.2C887.186 379.94 862.657 325.047 826.842 277.71C821.529 270.698 815.365 264.309 809.763 257.476C811.9 254.167 814.578 250.522 816.858 247.257Z"/><path fill="#FDA916" d="M801.284 568.678C802.275 568.487 801.802 568.421 802.704 568.873C802.966 573.393 800.367 581.952 799.248 586.582C792.596 614.118 781.711 639.968 767.824 664.622C765.329 669.053 751.189 690.867 748.471 691.595L746.878 690.111C745.084 687.928 743.268 685.763 741.431 683.615C746.262 676.289 750.966 670.058 755.645 662.377C772.925 634.207 784.85 603.086 790.821 570.582C793.845 569.865 798.136 569.234 801.284 568.678Z"/><path fill="#FDA916" d="M568.625 219.761C569.868 219.735 571.111 219.811 572.342 219.987C579.208 220.972 588.027 223.263 594.72 225.111C624.189 233.192 652.136 246.046 677.448 263.165C681.799 266.05 692.177 273.122 694.977 276.856C694.594 278.407 694.001 278.314 692.252 279.526L686.997 282.69C656.746 260.767 624.807 243.717 588.48 234.392C582.516 232.862 576.563 231.65 570.613 230.005C569.571 226.105 569.191 223.785 568.625 219.761Z"/><path fill="#FDA916" d="M685.014 741.445C688.015 743.8 690.336 745.711 693.148 748.277C689.143 752.269 677.65 760.367 672.771 763.512C641.46 783.691 612.277 794.601 576.348 802.741L569.016 804.32C569.549 800.265 569.926 797.986 570.936 794.045C574.713 792.757 580.833 791.524 584.864 790.512C590.709 788.992 596.506 787.294 602.247 785.42C633.534 775.322 658.63 760.565 685.014 741.445Z"/><path fill="#FDA916" d="M745.51 329.35C747.08 330.292 752.825 338.363 754.307 340.345C778.763 373.058 794.992 412.111 803.254 451.987C803.439 452.883 803.031 453.217 802.535 453.784L800.365 453.434C797.859 452.697 795.215 452.183 792.655 451.629C784.602 409.973 764.286 371.438 740.024 337.064L745.51 329.35Z"/><path fill="#FDA916" d="M747.983 793.372L752.03 796.739C744.838 804.264 733.117 812.498 724.478 818.617C674.008 854.053 615.471 876.293 554.203 883.308C552.466 883.533 552.664 883.775 551.221 883.191C550.751 881.766 551.519 880.092 551.98 878.538C610.994 871.775 667.51 850.897 716.748 817.671C727.775 810.166 738.37 802.669 747.983 793.372Z"/><path fill="#FDA916" d="M551.908 139.769C561.303 140.586 579.671 143.887 588.802 145.727C642.314 157.024 692.721 179.847 736.514 212.609C738.857 214.346 754.286 225.827 755.401 227.505L754.777 228.51C753.783 229.073 752.058 230.416 750.959 229.607C744.514 224.864 738.21 219.92 731.786 215.146C719.902 206.15 707.404 197.995 694.383 190.741C661.421 172.419 625.967 158.993 589.137 150.886C581.991 149.261 574.67 148.143 567.436 147.008C563.118 146.33 556.787 145.958 552.81 144.711C551.738 143.364 551.956 141.576 551.908 139.769Z"/><path fill="#FDA916" d="M796.23 268.526C798.536 270.615 804.76 278.858 806.886 281.65C821.814 300.894 834.916 321.487 846.023 343.162C863.932 378.226 876.27 415.867 882.591 454.729C883.109 457.904 885.055 468.222 884.245 470.751L883.131 471.147C882.032 470.835 881.644 470.687 880.596 470.228C878.773 467.201 879.045 464.596 878.597 461.286C874.322 429.71 863.789 393.206 850.944 364.487C840.998 342.647 829.168 321.715 815.588 301.929C812.342 297.228 793.849 274.086 793.451 272.26C793.816 270.602 794.984 269.771 796.23 268.526Z"/><path fill="#FDA916" d="M881.098 550.308C882.166 550.329 884.519 550.209 884.359 552.001C883.452 561.793 881.866 571.758 879.963 581.424C871.216 625.858 854.302 669.056 831.012 707.87C820.563 725.282 809.031 740.784 796.629 756.728C795.657 756.954 796.121 756.873 794.871 756.27C793.759 751.396 800.418 744.855 803.426 740.921C813.083 728.163 821.968 714.839 830.033 701.021C849.177 668.068 863.372 632.478 872.163 595.395C874.172 586.786 875.843 578.102 877.172 569.362C877.746 565.49 878.854 552.935 881.098 550.308Z"/><path fill="#FDA916" d="M572.244 238.124C586.311 241.276 594.95 243.319 608.733 248.315C631.34 256.391 652.722 267.553 672.272 281.486C673.982 282.682 679.151 285.893 679.77 287.213L679.047 288.597L677.404 289.934C673.989 290.569 670.547 286.611 667.686 284.485C664.057 281.827 660.333 279.302 656.521 276.914C638.016 265.506 618.182 256.409 597.464 249.827C593.608 248.605 590.118 247.576 586.234 246.543C583.147 245.721 576.118 244.541 573.639 243.315C572.4 241.827 572.459 240.085 572.244 238.124Z"/><path fill="#FDA916" d="M735.381 342.585C735.685 342.964 735.985 343.348 736.279 343.734C757.38 371.742 770.971 401.545 781.251 434.913C782.079 437.603 785.106 447.476 784.805 449.677L783.447 449.688C782.72 449.251 780.512 447.895 780.257 447.311C777.475 440.949 774.91 431.565 772.763 425.05C766.581 405.829 758.209 387.382 747.811 370.075C745.055 365.455 733.349 348.929 732.222 345.676C732.691 344.165 734.011 343.552 735.381 342.585Z"/><path fill="#FDA916" d="M674.359 734.382C676.045 734.393 677.475 735.755 678.916 736.807C670.579 741.922 662.782 748.397 653.902 753.564C628.536 768.324 603.898 777.276 575.638 784.326C573.535 784.826 574.382 785.022 572.789 784.407C570.24 777.42 584.398 776.932 589.048 775.727C621.24 767.387 646.778 752.74 674.359 734.382Z"/><path fill="#FDA916" d="M782.492 573.105L783.074 573.734C782.288 579.602 780.046 587.937 778.411 593.694C771.491 618.783 760.702 642.639 746.432 664.404C744.784 666.928 739.173 676.643 736.678 676.794C735.785 675.659 734.303 673.826 735.227 672.413C738.181 667.894 741.475 663.481 744.333 658.858C756.818 638.699 766.574 616.972 773.347 594.248C775.388 587.626 776.467 580.967 778.578 574.279C780.035 573.034 780.185 573.408 782.492 573.105Z"/><path fill="#EBD182" fill-opacity="0.90588236" d="M928.191 95.1596C930.009 93.3336 936.188 87.2955 938.028 86.349C935.37 89.9773 930.964 94.4033 927.693 97.613L928.191 95.1596Z"/><path fill="#E7BA73" fill-opacity="0.92941177" d="M923.438 925.415C924.693 925.544 924.699 925.639 925.847 926.217C927.629 927.865 928.717 928.992 930.325 930.812L929.307 931.25C927.227 929.327 925.235 927.609 923.438 925.415Z"/><path fill="#EBDBC0" fill-opacity="0.43137255" d="M930.325 930.812C931.61 932.056 934.292 934.365 934.599 936.034C932.596 935.048 930.896 932.93 929.307 931.25L930.325 930.812Z"/><path fill="#FDA916" d="M512.203 0L513.783 0C513.283 6.18776 517.698 26.4239 519.01 33.1042L532.016 96.7614L572.138 290.939L590.897 378.731C593.272 390.332 597.221 406.832 598.694 418.135C645.637 430.492 695.25 440.666 742.699 451.336L1022.13 512.544L747.143 568.869L668.748 585.613C653.097 588.89 637.707 591.974 622.148 595.82C614.963 597.596 607.975 598.842 600.747 600.886C598.821 605.889 597.859 612.052 596.62 617.332C589.368 648.24 583.956 679.673 577.29 710.721L511.957 1024L511.162 1024C510.551 1009.57 506.227 992.514 503.556 978.274C497.821 947.704 490.96 917.366 484.818 886.856L466.567 796.877C454.346 731.769 440.983 666.88 426.483 602.241C412.964 598.64 392.359 595.298 378.129 592.378C346.563 585.676 314.958 579.159 283.316 572.826C219.533 559.904 155.914 546.183 92.4739 531.667L28.4418 517.781C19.3402 515.825 10.0682 514.218 1.04556 512.003C16.1497 508.767 33.1024 505.79 48.3361 502.82L124.475 487.429C224.466 466.671 324.075 444.112 423.253 419.764C436.116 361.367 448.477 302.86 460.337 244.251L480.683 151.006L501.402 54.7668C504.901 38.4572 510.712 16.3248 512.203 0ZM435.17 419.848C438.779 424.406 444.058 429.292 448.168 433.631C454.125 439.921 460.063 446.402 466.174 452.521C475.29 462.01 485.049 471.967 493.878 481.664C503.575 475.554 502.789 476.532 513.272 474.333C514.22 404.371 514.689 334.402 514.678 264.434C514.779 243.428 516.786 58.1002 513.026 50.2629C509.841 59.9071 507.087 76.8122 504.838 87.4451C499.442 114.006 493.835 140.524 488.017 166.996L458.556 306.664C452.023 336.666 445.775 366.729 439.813 396.849C438.389 404.247 436.378 412.587 435.17 419.848ZM511.981 547.63C512.14 567.166 512.076 586.702 511.787 606.236C511.503 620.354 510.761 634.608 510.549 648.654C509.459 722.018 508.893 795.389 508.85 868.762L508.953 932.687C509.064 945.527 509.158 963.837 511.141 976.525C514.172 960.528 518.27 943.389 520.963 927.607C544.673 820.255 566.074 711.662 588.897 604.058L539.995 552.454C538.369 550.759 531.717 542.853 530.575 542.081C521.914 546.123 521.102 545.594 511.981 547.63ZM437.377 598.254C447.16 594.238 456.996 590.351 466.883 586.595C471.499 584.811 479.132 582.136 483.176 580.076C487.872 567.891 491.531 555.24 496.337 543.124C493.911 541.687 490.711 539.901 488.436 538.369C480.807 545.146 473.72 552.64 466.34 559.723C454.289 571.291 441.34 583.124 429.717 595.091C430.84 596.777 431.86 598.885 433.661 599.52C435.335 599.365 435.886 598.977 437.377 598.254ZM440.085 483.821C448.451 486.62 456.77 489.556 465.039 492.629C467.539 493.562 478.365 498.102 480.243 498.301C480.969 497.305 480.973 497.369 481.506 496.271L484.501 489.803L447.773 451.152C443.126 446.196 431.245 432.713 426.453 429.337C429.376 443.059 433.379 456.763 436.574 470.441C437.579 474.743 438.652 479.692 440.085 483.821ZM540.978 534.749L582.371 579.4C584.737 581.943 593.858 592.393 596.21 593.072L600.909 590.513C596.074 576.692 586.942 553.823 583.634 539.804C570.62 535.243 558.269 531.188 545.466 525.967L540.978 534.749ZM477.905 514.163C403.029 512.781 328.146 511.807 253.26 511.241C220.618 510.675 187.974 510.299 155.329 510.112C140.872 509.979 125.223 509.496 110.898 509.746L70.1003 510.464C62.9459 510.564 53.1002 510.246 46.2487 511.195L45.3105 511.317C54.0258 513.582 66.3563 515.37 75.7519 517.283L139.497 530.579L312.131 566.944L381.732 581.423C391.272 583.433 409.398 586.708 417.915 589.349C419.616 588.328 430.46 577.286 432.803 575.016L481.581 527.595C479.211 522.446 478.574 519.793 477.905 514.163ZM541.68 442.638C537.49 450.012 528.727 467.514 525.349 475.436C526.924 476.336 529.096 477.667 530.696 478.384C533.6 480.012 535.039 480.853 537.743 482.853C542.318 479.007 546.324 474.76 550.546 470.544C564.445 456.665 578.237 442.796 591.883 428.664L591.551 428.138C577.333 431.505 555.891 438.226 541.68 442.638ZM912.947 514.487C931.302 514.464 948.83 516.901 966.852 513.823C968.796 513.491 971.93 513.596 973.546 512.652C971.712 510.393 956.713 508.075 953.174 507.376C942.687 505.295 932.214 503.145 921.756 500.927C816.743 478.923 711.905 456.092 607.252 432.438C592.493 446.035 578.287 461.287 563.91 475.354C557.826 481.306 551.725 487.871 545.381 493.505C546.812 498.642 548.045 502.524 548.391 507.92C576.798 507.947 603.888 509.159 632.108 509.612L912.947 514.487Z"/></svg>