<?xml version="1.0" encoding="utf-8" ?><svg xmlns="http://www.w3.org/2000/svg" xmlns:xlink="http://www.w3.org/1999/xlink" width="1024" height="1024" viewBox="0 0 1024 1024"><path fill="#FDA916" d="M433.248 615.817C452.153 515.962 452.355 420.024 442.484 319.248C439.713 284.17 436.03 249.126 431.048 214.291C428.351 194.124 428.557 177.359 425.144 156.931C420.598 129.72 384.271 124.188 368.26 144.385C367.74 145.041 363.871 152.213 363.596 152.337C356.389 155.58 356.535 147.958 359.013 143.475C360.518 140.747 360.409 134.559 360.428 131.807C360.559 113.039 349.512 98.4953 336.014 86.6629C333.571 84.5163 333.098 82.3646 335.874 80.3587C340.517 79.599 345.052 85.1835 350.178 86.6728C378.068 94.7762 394.877 63.9707 389.778 40.2064C389.021 36.6793 386.768 29.1856 392.078 28.0842C393.698 27.7648 395.37 28.2897 396.516 29.478C398.172 31.1659 399.389 37.7382 400.733 39.987C412.914 60.3735 442.299 78.5537 460.308 53.2068C462.917 49.5341 463.967 44.1226 468.177 42.767C474.348 43.3708 470.974 49.8685 469.328 53.7716C461.991 71.1647 466.666 89.2587 479.352 102.752C482.677 106.288 489.053 108.983 490.191 113.518C488.951 118.336 485.051 117.507 481.972 115.104C478.548 112.431 476.864 110.245 472.236 109.967C463.18 109.369 454.254 112.37 447.398 118.317C424.144 138.653 444.811 167.063 454.258 189.79C497.656 295.27 550.237 396.734 611.394 493.011C621.157 508.32 630.963 523.459 641.654 538.152C645.851 543.92 649.847 551.157 654.581 556.326C662.319 539.406 669.417 517.966 676.101 500.453C706.01 421.239 731.338 340.371 751.961 258.249C750.238 257.447 748.521 256.655 746.83 255.765C713.16 238.075 719.241 190.122 755.047 179.341C779.7 171.919 804.942 189.279 807.84 214.481C809.731 230.919 803.193 246.008 788.723 254.544C782.534 258.196 777.399 259.483 770.567 261.288C770.164 265.131 770.05 269.537 770.093 273.496C770.928 350.208 781.987 431.455 821.876 498.419C827.569 507.976 835.29 519.906 842.777 527.66C870.804 483.872 898.029 439.577 924.44 394.796C932.569 381.076 942.275 367.079 949.405 352.9C951.767 348.204 952.734 331.529 953.305 325.354C936.722 320.44 921.985 310.545 918.797 292.372C916.974 281.923 919.409 271.178 925.559 262.535C958.614 215.97 1025.95 263.064 994.384 309.364C986.99 320.209 974.815 324.638 962.166 326.393C956.468 367.048 948.82 409.443 942.131 450.043C928.139 533.175 915.299 616.498 903.614 699.986L895.266 700.04C888.733 700.043 841.645 700.725 838.613 701.856C806.945 702.461 771.365 707.086 739.72 711.743C603.35 731.812 465.382 771.438 342.739 834.974C324.934 844.198 294.431 860.854 280.809 874.84C276.31 866.528 267.337 854.423 261.58 846.339C252.945 834.217 244.47 821.982 236.155 809.638C194.733 748.366 152.858 687.403 110.531 626.753C97.8474 608.302 81.9003 588.294 69.9817 569.63C61.0689 571.091 54.5947 571.976 45.6338 569.475C34.9817 566.463 26.0063 559.26 20.7594 549.513C2.48736 516.272 35.0124 478.907 70.2175 488.806C91.8983 494.902 105.594 520.469 97.9029 541.849C93.1147 555.16 86.7553 560.795 74.2668 567.378C88.1384 576.468 102.258 587.551 116.191 597.166C146.486 617.781 176.957 638.136 207.601 658.228L232.389 674.133C238.874 678.318 247.9 684.536 254.699 687.405C255.963 680.719 256.651 672.918 257.826 666.447C269.875 600.132 255.693 545.185 229.363 484.434C220.444 463.855 210.941 439.658 199.556 419.676C195.657 420.724 192.418 421.574 188.45 422.116C163.343 425.122 142.402 405.757 143 380.468C143.495 359.533 160.793 342.484 181.351 340.491C191.911 339.466 203.967 343.411 212.098 350.563C220.467 357.863 225.486 368.268 225.988 379.361C226.563 390.476 222.547 400.456 215.21 408.692C232.597 428.893 253.272 450.01 272.067 468.901C291.449 488.662 311.236 508.023 331.413 526.971C356.967 551.016 382.402 575.22 409.546 597.524C414.439 601.545 428.253 613.357 433.248 615.817ZM276.613 797.003C266.191 777.485 260.174 757.658 233.967 756.689C244.943 772.143 256.975 787.351 268.125 802.754C273.32 809.931 278.611 820.054 283.938 826.268C362.122 781.284 445.41 745.822 532.025 720.641C557.281 713.197 584.607 705.071 610.055 698.751C675.772 682.697 742.663 671.897 810.093 666.453C823.062 665.461 835.892 664.91 848.869 664.365C858.082 663.978 868.581 664.624 877.401 664.184L887.433 608.506C888.8 601.102 891.787 587.78 892.378 580.991C888.07 583.364 880.372 587.512 876.816 590.446C874.832 599.256 872.958 608.09 871.193 616.947C870.242 621.829 869.02 629.729 867.8 634.229C806.938 628.262 738.058 633.093 677.277 640.931C672.495 641.547 665.914 642.474 661.281 643.67C645.057 634.825 628.886 625.304 614.594 613.505C570.958 577.482 548.435 527.151 528.245 475.671C514.304 439.83 501.835 403.433 490.867 366.573C489.471 361.825 480.09 326.274 477.776 324.724C477.024 329.353 486.227 370.444 487.921 378.86C493.355 405.575 498.326 432.381 502.833 459.267C514.068 526.819 522.967 595.647 489.58 658.414C483.599 668.744 474.761 688.485 466.719 696.631C464.675 698.701 437.767 708.262 432.572 710.618C392.181 728.938 353.825 749.734 315.937 772.851L289.632 789.101C285.999 791.34 280.118 795.208 276.613 797.003ZM957.294 304.266C970.438 301.586 978.993 288.847 976.502 275.666C974.011 262.485 961.397 253.748 948.182 256.049C939.462 257.567 932.236 263.664 929.271 272.003C926.306 280.342 928.062 289.632 933.866 296.314C939.669 302.996 948.622 306.035 957.294 304.266ZM180.353 400.857C193.569 398.988 202.799 386.803 201.02 373.575C199.241 360.346 187.12 351.033 173.879 352.722C160.511 354.427 151.087 366.691 152.883 380.048C154.68 393.405 167.009 402.745 180.353 400.857ZM47.0347 499.888C33.7405 501.713 24.4549 513.986 26.3144 527.275C28.1739 540.564 40.4717 549.818 53.756 547.923C66.9907 546.036 76.2019 533.794 74.3493 520.554C72.4968 507.314 60.2792 498.071 47.0347 499.888ZM760.796 238.43C774.008 237.02 783.568 225.156 782.135 211.947C780.703 198.737 768.821 189.198 755.615 190.654C742.44 192.106 732.93 203.951 734.359 217.128C735.788 230.304 747.616 239.835 760.796 238.43ZM393.667 100.369C396.375 102.076 418.177 117.596 417.549 117.423C421.401 107.562 423.654 101.425 429.767 92.5642C423.102 88.4224 416.666 84.4633 410.517 79.5793C409.08 78.438 407.009 76.7888 405.481 75.854C402.732 86.3432 400.2 91.7376 393.667 100.369ZM311.508 580.715C311.556 580.865 311.604 581.016 311.652 581.167C326.04 611.352 339.62 642.549 342.14 676.339C342.667 683.397 341.621 690.513 341.567 697.644C354.555 691.063 369.786 682.861 382.779 675.874C390.2 671.883 397.801 667.567 405.218 663.697C371.325 649.478 349.047 622.759 325.358 595.789C322.537 592.577 314.749 581.848 311.508 580.715ZM738.702 452.347C737.36 461.662 736.971 471.095 735.7 480.419C731.156 513.759 723.978 548.676 703.467 576.208C701.97 578.219 700.359 580.344 698.946 582.409C710.685 581.983 721.628 580.085 733.375 579.931C748.464 579.492 761.09 579.978 775.798 579.934C760.487 558.089 753.702 539.112 747.712 513.189C745.123 501.937 743.199 490.541 741.951 479.062C741.559 475.218 740.323 453.849 738.702 452.347Z"/><path fill="#FDA916" d="M549.33 614.249C552.383 615.984 560.071 621.589 563.256 623.902C570.865 629.427 582.003 636.354 588.659 642.662C584.806 654.198 574.827 677.9 569.449 689.222L568.741 689.319C555.496 678.588 541.716 668.037 528.344 657.287C535.678 642.956 541.791 628.394 549.33 614.249Z"/><path fill="#FDA916" d="M852.836 806.215C872.096 805.393 912.723 804.488 927.471 817.123C931.082 820.201 933.216 824.666 933.343 829.409C933.912 845.867 897.726 869.479 883.893 877.322C863.312 888.99 840.211 898.841 818.706 908.711C812.365 911.621 803.944 914.353 797.269 916.952C737.328 940.248 675.941 959.635 613.494 974.991C587.339 981.265 561.024 986.846 534.574 991.728C490.404 1000.06 445.634 1004.8 400.699 1005.91C380.065 1006.14 347.982 1006.03 328.401 998.672C322.352 996.398 320.251 992.596 318.139 986.999C319.594 980.366 322.89 973.934 327.555 969.036C347.104 948.505 377.508 933.548 402.674 921.493C458.508 894.746 517.364 874.556 576.712 857.418C626.968 842.483 678.081 830.597 729.77 821.824C772.642 814.166 809.144 808.886 852.836 806.215Z"/><path fill="#FDA916" d="M834.719 712.094C840.779 712.172 845.781 710.596 851.719 710.268C862.693 709.66 874.848 709.156 885.781 710.312C888.599 710.61 890.318 712.164 893.549 712.113C896.856 711.987 901.777 712.283 905.195 712.384L914.07 747.489C915.634 753.56 918.485 762.894 919.301 768.685C909.652 766.495 897.665 762.373 887.998 761.177C845.659 755.939 802.94 763.67 760.922 768.701C737.336 771.525 711.528 776.958 688.359 781.56C602.491 797.943 518.457 822.792 437.488 855.743C397.187 872.429 353.116 892.17 317.579 918.321C311.425 922.85 306.296 930.284 301.564 936.358C295.344 920.493 289.542 902.971 285.023 886.589C283.783 882.095 298.692 873.04 302.344 870.622C320.498 858.407 339.493 847.491 359.187 837.956C375.036 830.185 392.778 821.579 408.931 814.682C448.074 798.11 488.139 783.804 528.926 771.836C582.652 755.044 637.348 741.532 692.713 731.374C726.114 725.01 759.551 718.797 793.411 715.383C807.161 713.997 820.943 713.207 834.719 712.094ZM562.091 787.39C567.658 788.198 576.309 790.245 581.486 792.659C583.545 793.618 586.391 797.486 588.599 798.051C593.382 785.483 595.685 783.668 605.418 774.605C590.835 773.664 591.493 773.106 578.795 765.685C574.78 780.524 571.197 778.665 562.091 787.39ZM868.258 729.201C858.986 730.183 852.366 731.698 843.638 734.933C852.998 738.787 863.69 744.581 873.265 748.896L874.143 749.299C878.211 747.036 891.804 739.541 894.875 737.257C889.347 735.373 872.673 728.523 868.258 729.201ZM336.558 877.178C331.51 876.446 327.871 876.54 322.773 876.732L313.171 877.019C309.651 882.528 302.034 893.948 299.898 899.397C304.553 899.786 309.392 900.091 313.983 900.872C316.242 901.139 318.658 901.485 320.918 901.571C326.315 893.298 330.874 885.38 336.558 877.178Z"/><path fill="#FDA916" d="M863.96 772.041C877.971 772.418 909.542 774.724 921.327 781.386C923.188 787.691 926.839 800.837 928.006 807.24C900.664 793.427 873.754 795.193 844.083 796.251C825.276 796.922 807.68 799.086 789.043 801.562C722.302 810.433 656.266 823.973 591.419 842.081C575.981 846.263 559.639 850.119 544.497 855.2C514.779 865.173 483.82 875.218 454.679 886.722C431.799 895.879 409.344 906.063 387.382 917.243C362.829 929.52 326.341 947.408 312.906 972.299C311.059 966.209 305.648 953.12 309.35 947.767C326.088 923.559 360.697 906.338 386.105 893.51C426.842 872.943 468.614 856.909 511.744 842.536C527.474 837.338 542.704 831.907 558.725 827.369C625.536 807.758 693.633 792.834 762.522 782.706C792.327 778.34 824.062 775.653 854.059 772.414C857.201 772.457 860.786 772.2 863.96 772.041Z"/><path fill="#FEFEFE" fill-opacity="0.36470589" d="M838.613 701.856C841.645 700.725 888.733 700.043 895.266 700.04C893.972 700.252 893.718 700.385 892.45 700.318C891.768 702.316 892.19 709.998 893.549 712.113C890.318 712.164 888.599 710.61 885.781 710.312C874.848 709.156 862.693 709.66 851.719 710.268C845.781 710.596 840.779 712.172 834.719 712.094C837.578 710.775 839.395 705.242 837.836 702.897C838.413 702.713 838.984 702.531 839.573 702.383C839.068 701.812 839.384 701.994 838.613 701.856Z"/><path fill="#FEFEFE" fill-opacity="0.21960784" d="M854.059 772.414L854.316 771.829L853.493 771.39C851.803 768.534 849.412 765.745 852.973 762.99C855.828 760.782 863.619 759.577 865.829 763.292C867.287 765.743 865.086 768.93 864.235 771.272L863.96 772.041C860.786 772.2 857.201 772.457 854.059 772.414Z"/></svg>