<?xml version="1.0" encoding="utf-8" ?><svg xmlns="http://www.w3.org/2000/svg" xmlns:xlink="http://www.w3.org/1999/xlink" width="1024" height="1024" viewBox="0 0 1024 1024"><path fill="#FDA916" d="M495.684 29.3427C759.598 20.3802 980.815 227.043 989.807 490.956C998.799 754.869 792.16 976.109 528.248 985.13C264.296 994.152 43.0132 787.474 34.0201 523.52C25.0271 259.566 231.729 38.3066 495.684 29.3427ZM527.73 957.343C776.505 948.664 971.179 740.021 962.626 491.241C954.073 242.461 745.529 47.6809 496.745 56.1072C247.782 64.5396 52.8305 273.266 61.3897 522.225C69.9489 771.185 278.775 966.029 527.73 957.343Z"/><path fill="#FDA916" d="M717.23 137.045C718.965 136.946 719.378 136.799 720.959 137.576C724.534 141.216 723.397 150.594 723.558 155.698C723.906 164.876 724.145 174.058 724.274 183.241C724.709 203.365 725.732 224.116 726.468 244.318L730.594 368.449C730.821 376.285 733.961 421.979 730.988 425.697C725.72 427.157 723.06 422.765 720.419 418.971C716.66 413.572 712.838 408.755 708.494 403.83C687.24 379.392 664.197 356.569 639.556 335.55C634.906 331.574 628.369 325.374 623.081 322.768C616.534 336.336 605.714 355.184 597.977 367.957C571.75 411.25 538.833 458.84 505.406 497.051C505.621 514.628 503.77 537.122 504.641 553.544C519.058 536.853 528.371 525.505 548.167 514.296C555.448 510.174 558.829 508.07 566.937 504.412C573.805 501.314 585.292 499.096 590.061 496.767C610.004 487.027 625.287 480.511 647.673 477.702C692.506 472.077 735.612 485.488 770.352 514.099C804.559 542.271 828.119 582.694 837.217 626.02C839.041 634.703 840.9 641.928 841.822 651.012C847.464 706.626 832.515 765.574 797.165 809.393C780.911 829.542 762.284 845.728 739.351 857.838C732.325 861.548 725.467 863.8 718.547 867.226C713.917 869.751 709.389 872.293 704.67 874.675C651.416 901.548 581.526 889.429 534.92 854.189C528.728 849.507 522.834 843.473 517.3 837.996C513.57 834.306 510.204 830.134 506.062 826.859C504.302 828.768 498.695 836.91 496.703 839.569C487.179 852.287 480.679 857.162 468.014 866.108C434.702 886.524 393.404 893.437 354.934 892.009C308.085 890.271 240.153 873.583 222.501 824.873C218.863 815.114 217.371 804.686 218.126 794.298C218.273 792.322 219.393 782.73 219.28 781.458C218.436 771.97 216.36 767.624 218.659 757.662C221.036 747.362 225.877 738.489 230.332 728.924C217.616 713.704 214.437 692.926 217.659 674.115C219.008 666.241 218.065 658.463 217.885 650.461C194.224 660.013 170.966 670.706 147.382 680.457C143.934 681.883 140.606 683.373 137.06 684.557C112.839 630.153 99.8322 585.636 97.1674 525.565C96.4337 509.024 95.6942 488.575 97.4522 472.248C105.572 473.167 116.263 476.045 125.466 477.205C153.829 480.781 201.615 481.958 228.763 475.605C230.835 473.368 234.049 468.689 236.238 466.003C241.488 459.601 247.39 453.762 253.848 448.581C299.846 411.288 372.795 395.108 430.881 401.202L431.239 400.951C436.816 397.155 442.021 394.575 447.92 391.326C456.549 386.513 465.146 381.643 473.71 376.716C512.117 354.264 552.439 324.954 580.874 290.555C551.832 268.825 514.956 250.427 482.925 233.493C476.654 230.178 444.222 216.472 441.916 213.365C441.587 212.06 441.213 209.445 441.828 208.308C442.706 206.683 447.433 205.092 449.28 204.601C460.627 201.585 472.148 198.862 483.548 196.048C503.43 191.019 523.34 186.101 543.278 181.296C597.503 168.145 651.444 153.116 705.704 140.059C709.566 139.13 713.403 138.105 717.23 137.045ZM671.851 841.25C678.958 840.643 687.368 840.06 694.187 838.285C821.414 805.161 846.685 624.112 751.543 543.109C725.901 521.278 694.961 510.249 661.295 511.719C572.789 516.202 519.321 606.937 523.19 688.439C525.377 734.505 542.65 775.861 577.13 807.08C600.176 828.278 638.377 843.246 669.956 841.382C670.588 841.345 671.22 841.301 671.851 841.25ZM821.354 625.722C820.914 621.581 817.436 611.284 816.027 606.973C814.097 601.615 812.006 595.729 809.716 590.551C807.134 584.794 804.86 580.122 801.768 574.646L797.133 567.314C794.803 563.665 791.234 558.056 788.41 554.883C786.996 552.709 784.372 549.105 782.499 547.405C775.74 536.376 751.468 518.133 740.116 511.636C738.975 510.657 736.415 509.482 734.968 508.735L726.512 504.806L723.727 503.61C717.358 501.088 710.872 498.875 704.291 496.979C690.92 492.841 674.649 491.49 660.748 492.336C653.795 492.483 643.446 492.922 636.866 494.882C592.374 505.863 561.799 531.505 536.99 569.345C480.79 655.067 498.936 784.354 590.238 839.216C623.033 859.05 662.358 865.059 699.58 855.925C797.019 831.495 844.963 719.568 821.944 627.754C821.769 627.059 821.567 626.404 821.354 625.722ZM639.6 505.811C641.35 505.715 644.689 504.917 646.527 504.534C669.791 501.227 686.034 503.074 708.426 509.166L714.191 511.311C718.247 512.729 721.94 514.455 725.843 516.217L735.952 521.721C754.464 533.12 766.541 544.75 780.268 561.494L786.136 569.444C789.391 574.864 792.497 580.371 795.451 585.961L795.704 586.569L798.302 591.953C799.809 595.254 801.759 599.88 803.457 602.973L803.719 603.603C804.375 605.483 807.362 614.312 808.269 615.808C809.221 620.162 809.762 621.757 811.122 625.877L811.747 628.41C814.549 642.442 815.896 653.893 816.546 667.996C820.076 744.017 775.083 827.956 696.828 846.059C611.582 865.779 537.322 803.952 519.265 722.95C501.182 641.837 537.056 546.423 616.371 512.479C623.497 509.429 632.038 507.555 639.6 505.811ZM624.471 876.358C628.638 876.698 642.123 878.193 644.945 876.047L645.007 875.196C640.919 874.007 636.486 874.115 632.295 873.3C611.293 869.215 592.672 860.809 574.827 848.863C498.923 798.048 475.395 698.457 499.863 613.709C509.12 581.649 526.204 555.763 547.677 530.453L547.36 529.998C534.935 538.578 523.721 548.791 514.019 560.361C488.636 591.146 472.847 635.153 469.664 674.865C462.583 763.196 517.397 858.279 610.09 874.339C614.857 875.19 619.654 875.863 624.471 876.358ZM490.508 826.278C492.649 822.404 494.736 818.198 496.088 813.97L491.117 806.53C453.444 840.553 402.955 856.256 352.463 853.71C322.781 852.213 276.609 840.641 252.43 823.185C249.503 821.086 246.692 818.83 244.009 816.427C241.321 813.98 232.611 804.832 230.173 803.857C232.209 822.08 241.93 837.496 256.224 848.562C280.619 867.448 324.192 877.732 354.384 879.597C366.744 880.324 379.144 879.922 391.43 878.396C428.592 874.026 470.581 860.367 490.508 826.278ZM239.941 539.807C283.934 605.91 450.793 592.004 489.662 521.851C493.211 515.446 496.186 501.326 494.199 494.359C489.635 500.293 484.053 507.726 478.501 512.494C450.67 536.393 412.462 550.472 376.447 554.577C330.255 559.841 275.892 556.707 238.345 526.364C236.258 524.677 234.02 523.082 231.918 521.383C233.258 528.389 236.338 533.664 239.941 539.807ZM471.707 775.541C472.371 774.948 473.128 774.557 473.018 773.925C471.772 766.752 467.955 759.046 466.134 751.694C463.957 752.908 461.773 754.12 459.575 755.296C409.578 782.027 348.779 784.022 294.943 768.778C279.91 764.597 265.633 758.063 252.642 749.42C250.053 747.701 243.03 741.407 241.501 740.797C241.557 748.674 251.777 763.176 257.45 768.368C309.997 816.462 414.795 815.71 471.707 775.541ZM456.64 702.576C458.844 699.915 457.645 690.125 457.498 686.08C407.857 711.524 350.015 715.73 297.215 697.735C284.99 693.651 275.387 689.554 264.857 681.8C262.008 679.702 253.272 672.511 250.877 671.403C260.913 719.478 329.503 729.591 370.325 727.162C381.127 726.519 392.579 724.889 403.174 722.644C421.943 718.817 439.988 712.044 456.64 702.576ZM230.724 638.381C226.791 649.329 228.804 661.755 233.698 672.057C235.374 675.549 237.524 678.792 240.087 681.696L241.006 681.696C241.226 680.176 235.815 663.233 235.087 660.363C234.129 656.592 233.36 652.776 232.783 648.928C232.501 647.089 231.651 639.405 230.724 638.381ZM230.85 751.736C227.243 767.718 229.569 783.306 241.006 795.62C241.451 795.162 242.112 794.787 241.901 794.143C238.897 784.959 235.736 776.02 233.484 766.559C232.667 763.123 232.131 754.222 230.85 751.736ZM244.833 639.991C249.556 650.867 262.453 663.859 272.276 670.362C321.781 703.139 406.761 703.497 457.223 671.869C457.782 668.951 457.908 665.859 458.123 662.882C459.163 655.305 460.882 648.453 462.194 641.021C449.92 647.042 437.754 654.587 424.351 659.074C372.695 676.369 308.204 675.369 259.712 649.072C254.713 646.362 249.783 642.402 244.833 639.991ZM452.944 739.594C452.874 740.841 452.812 741.889 452.673 743.136L453.124 743.442C455.856 741.826 459.668 739.719 462.222 737.993C460.346 730.352 459.313 723.208 458.251 715.421C449.307 720.232 441.139 724.451 431.596 727.932C388.366 743.699 336.449 744.256 292.5 730.776C276.745 725.943 253.785 715.481 242.478 703.281C239.793 700.384 230.541 689.719 227.911 688.156C226.85 697.475 236.159 714.084 241.929 721.441C262.056 747.102 304.297 760.087 335.913 763.601C363.343 766.65 395.261 765.583 421.706 757.187C431.775 753.99 439.282 749.962 448.311 746.708C445.738 745.959 442.975 745.452 441.599 742.956C440.834 741.594 440.743 739.955 441.352 738.517C443.654 733.021 450.096 734.178 452.944 739.594ZM480.201 552.913L479.609 553.29C471.622 558.44 466.02 564.44 457.057 569.484C410.338 595.775 353.104 600.824 301.084 590.918C282.499 587.379 259.597 578.282 244.881 566.704C241.003 563.489 232.433 553.17 229.918 551.744C252.379 630.85 397.478 636.774 453.664 590.787C460.761 584.978 466.629 577.868 471.76 570.293C475.947 563.517 477.892 560.567 480.201 552.913ZM231.88 601.624C240.869 622.827 263.759 637.072 284.471 645.362C328.562 663.011 386.023 661.522 429.731 643.204C441.378 637.414 461.401 627.826 469.123 617.638C472.522 613.153 476.363 599.886 479.418 594.523C481.677 590.557 491.602 571.912 491.371 569.398C486.032 576.482 479.672 584.83 473.198 590.951C448.985 613.845 415.525 626.997 382.346 630.894C338.861 636.002 287.215 629.44 250.786 603.337C242.276 597.239 234.293 587.948 227.846 579.963C227.866 588.578 228.926 593.537 231.88 601.624ZM250.453 780.725C255.662 800.181 266.369 811.789 283.817 821.634C320.607 842.393 372.695 845.307 412.959 834.028C417.932 832.635 437.107 826.949 439.322 823.201C428.01 823.8 432.329 811.455 440.021 812.123C444.787 812.537 444.684 817.28 444.122 821.095C451.62 817.465 457.365 812.981 463.899 807.89C469.839 803.055 476.676 796.749 481.726 790.994C480.717 789.598 479.553 788.067 478.602 786.655L478.028 786.923C472.897 789.375 468.104 792.554 463.12 795.248C420.593 818.238 369.021 822.17 322.007 813.73C298.529 809.516 274.001 800.555 255.79 784.761C254.514 783.672 251.847 781.439 250.453 780.725ZM332.534 544.459C383.261 545.807 433.406 535.264 472.123 500.332C490.584 483.677 504.909 455.21 484.129 434.318C465.232 415.319 424.752 409.157 398.651 411.25C357.466 413.247 317.938 422.317 282.234 442.778C265.105 452.595 234.602 474.466 236.591 495.565C240.038 532.112 306.283 542.731 332.534 544.459Z"/><path fill="#FDA916" d="M646.527 504.534C669.791 501.227 686.034 503.074 708.426 509.166L714.191 511.311C718.247 512.729 721.94 514.455 725.843 516.217L735.952 521.721C754.464 533.12 766.541 544.75 780.268 561.494L786.136 569.444C789.391 574.864 792.497 580.371 795.451 585.961L795.704 586.569L798.302 591.953C799.809 595.254 801.759 599.88 803.457 602.973L803.719 603.603C804.375 605.483 807.362 614.312 808.269 615.808C809.221 620.162 809.762 621.757 811.122 625.877L811.747 628.41C814.549 642.442 815.896 653.893 816.546 667.996C820.076 744.017 775.083 827.956 696.828 846.059C611.582 865.779 537.322 803.952 519.265 722.95C501.182 641.837 537.056 546.423 616.371 512.479C623.497 509.429 632.038 507.555 639.6 505.811C641.35 505.715 644.689 504.917 646.527 504.534ZM671.851 841.25C678.958 840.643 687.368 840.06 694.187 838.285C821.414 805.161 846.685 624.112 751.543 543.109C725.901 521.278 694.961 510.249 661.295 511.719C572.789 516.202 519.321 606.937 523.19 688.439C525.377 734.505 542.65 775.861 577.13 807.08C600.176 828.278 638.377 843.246 669.956 841.382C670.588 841.345 671.22 841.301 671.851 841.25Z"/><path fill="#FDA916" d="M615.238 539.007C617.44 539.5 628.116 557.201 630.36 560.424C641.531 557.445 653.627 555.027 665.248 556.466C669.17 556.952 675.35 556.816 678.311 559.535C679.635 562.333 675.289 580.605 674.295 584.385C666.785 582.198 650.264 579.027 643.858 584.403C643.871 585.906 644.734 587.825 645.572 589.074C654.525 602.425 663.309 615.938 671.958 629.489C674.43 633.362 676.402 637.099 679.209 640.767C683.378 640.114 687.646 639.022 691.898 638.468C708.552 636.299 725.197 639.26 738.745 649.519C751.157 658.799 759.336 672.662 761.458 688.014C764.725 711.644 755.398 725.033 742.062 742.63C746.24 749.554 752.385 757.695 755.162 764.937C752.134 768.723 740.649 778.193 736.361 780.688C732.817 774.408 728.133 765.522 723.558 760.188C720.977 762.615 717.034 765.505 714 767.34C717.896 775.114 723.182 781.916 727.088 789.558C722.629 793.159 713.705 801.019 708.646 803.65C708.084 803.943 707.338 803.114 706.58 802.561C701.478 794.24 696.426 785.889 691.422 777.508C669.43 783.2 645.547 782.826 624.677 773.169C626.928 765.901 629.447 756.258 632.15 749.456C646.644 754.134 660.593 758.574 675.879 754.259C667.747 740.462 659.427 726.778 650.919 713.209C645.166 703.895 638.414 692.315 631.876 683.77C616.781 686.243 604.424 688.586 590.536 679.954C579.036 672.806 571.722 660.25 568.998 647.147C565.314 629.432 569.309 612.495 579.048 597.459C574.684 591.09 570.227 584.786 565.677 578.549C570.64 574.09 579.065 567.474 584.868 564.59C589.952 569.57 591.852 574.068 596.544 579.095C600.313 576.556 604.059 573.984 607.782 571.378C604.199 566.663 597.894 556.245 595.384 551.067C599.81 547.585 609.92 542.131 615.238 539.007ZM695.778 664.197L694.487 664.78C694.8 665.902 724.914 714.492 727.502 718.252C728.693 716.892 729.934 715.535 730.993 714.075C740.241 697.164 738.647 678.325 720.224 668.28C712.035 663.815 704.906 663.796 695.778 664.197ZM655.861 675.337C665.738 692.117 677.175 708.955 687.352 725.638C689.076 728.464 698.11 743.372 699.243 744.607C704.209 742.097 706.346 740.494 710.353 736.525C706.476 729.67 697.734 716.73 693.522 709.856C689.676 703.579 673.008 675.442 668.905 671.345C668.231 671.177 667.847 671.013 667.176 671.015C662.901 672.422 659.988 673.54 655.861 675.337ZM609.445 601.648C614.799 611.762 624.487 624.194 630.658 634.357C632.218 636.925 641.478 651.621 642.882 653.115C644.301 652.989 644.236 653.005 645.544 652.438L655.423 648.943C649.972 639.176 642.678 629.27 636.737 619.702C634.599 616.259 621.795 595.121 619.374 594.418C615.623 596.887 612.828 598.707 609.445 601.648ZM616.343 659.581L616.703 658.863C615.361 655.036 597.027 625.82 594.17 623.3C591.669 631.02 591.277 640.648 594.909 648.049C599.529 657.463 606.59 659.723 616.343 659.581Z"/><path fill="#FDA916" d="M395.432 439.714C396.171 439.654 396.911 439.608 397.651 439.577C411.545 438.94 420.339 441.932 430.445 451.195C440.256 448.516 454.459 444.064 463.93 440.409C465.945 442.19 467.059 443.684 468.743 445.751C461.436 448.856 441.345 454.565 433.036 456.83C440.062 470.358 431.419 480.513 420.701 488.107C417.986 486.164 417.356 485.465 415.114 483.051C423.762 475.636 428.247 472.05 426.323 459.728C413.057 461.974 392.012 470.059 377.578 473.477C377.576 477.479 377.585 481.203 377.136 485.18C374.48 508.672 351.312 515.659 330.971 512.936C318.928 511.098 309.34 506.133 301.025 497.185C293.906 498.615 275.347 504.791 267.968 507.252C266.43 505.648 264.847 503.725 263.379 502.027C267.586 500.016 291.783 492.708 296.872 491.41C293.847 473.466 303.081 466.378 317.781 458.478C319.781 460.473 320.368 461.043 321.875 463.402C316.171 466.908 306.536 473.067 305.049 480.982C304.641 483.149 304.579 487.884 305.96 489.569C309.521 488.823 321.969 484.392 326.34 482.961C336.416 479.664 352.54 476.471 361.44 472.09C362.081 450.243 374.44 440.64 395.432 439.714ZM310.026 494.602C312.549 496.874 313.576 497.967 316.596 499.531C336.244 507.9 359.453 507.01 361.266 480.209L360.889 479.522L360.301 479.567C353.218 481.205 344.465 484.363 337.225 486.475C329.546 488.716 316.98 491.5 310.026 494.602ZM377.941 466.853C385.408 465.034 393.35 461.778 400.087 460.185C407.362 458.067 415.607 455.93 422.731 453.651C414.275 447.631 406.002 444.297 395.345 445.66C382.157 447.771 378.159 453.356 377.941 466.853Z"/><path fill="#FDA916" d="M313.934 856.51C322.11 856.855 326.365 863.129 318.169 868.274C309.564 869.162 305.907 860.353 313.934 856.51Z"/><path fill="#FDA916" d="M315.634 562.55C324.094 562.358 327.408 570.824 318.456 574.602C310.099 573.852 307.066 566.387 315.634 562.55Z"/><path fill="#FDA916" d="M311.878 634.313C315.163 633.563 318.441 635.591 319.238 638.865C320.034 642.139 318.053 645.446 314.79 646.289C312.638 646.844 310.354 646.198 308.811 644.598C307.269 642.997 306.708 640.69 307.343 638.561C307.978 636.431 309.711 634.808 311.878 634.313Z"/><path fill="#FDA916" d="M442.003 621.015C442.575 620.964 444.262 620.824 444.764 620.9C445.999 621.076 447.092 621.791 447.75 622.851C450.107 626.664 446.822 630.893 443.491 632.786C434.88 631.918 434.051 625.185 442.003 621.015Z"/><path fill="#FDA916" d="M311.817 743.576C319.948 743.18 325.867 748.759 317.716 754.526C316.864 754.527 316.012 754.505 315.161 754.461C308.89 754.077 304.917 748.234 311.817 743.576Z"/><path fill="#FDA916" d="M436.494 586.49C445.568 586.916 445.334 593.696 439.057 598.937C430.706 597.214 429.169 590.751 436.494 586.49Z"/><path fill="#FDA916" d="M314.385 817.06C322.267 816.83 326.743 822.055 318.961 827.522C312.414 828.463 307.341 821.323 314.385 817.06Z"/><path fill="#FDA916" d="M311.619 707.53C319.129 707.025 326.242 711.372 319.048 718.183C311.323 719.67 306.212 713.357 311.619 707.53Z"/><path fill="#FEFEFE" fill-opacity="0.94901961" d="M660.748 492.336C674.649 491.49 690.92 492.841 704.291 496.979C700.002 501.838 702.661 505.654 707.749 507.808L708.426 509.166C686.034 503.074 669.791 501.227 646.527 504.534C644.479 503.979 643.275 503.848 641.151 503.576L641.287 502.811C649.468 496.874 662.335 503.026 670.527 497.321C668.467 496.393 666.537 496.967 665.173 496.208C665.614 494.389 665.172 495.119 666.427 493.872L667.177 494.017C667.461 494.921 667.416 494.93 667.866 495.753C668.262 494.752 668.344 494.574 668.912 493.663L670.672 493.327C666.811 492.595 664.716 492.5 660.748 492.336Z"/><path fill="#FEFEFE" fill-opacity="0.6156863" d="M723.727 503.61L726.512 504.806L724.438 505.123C723.563 506.335 723.805 505.657 723.843 507.274C725.965 510.521 731.899 513.288 734.997 509.857L734.968 508.735C736.415 509.482 738.975 510.657 740.116 511.636C738.729 512.982 739.048 512.214 738.771 513.832C739.571 515.177 740.107 515.482 741.307 516.449C741.737 518.629 741.515 520.142 743.593 521C752.197 524.554 753.124 524.004 758.972 531.671C761.479 534.957 769.684 539.306 772.347 543.283C774.716 545.752 778.606 552.363 780.933 553.161C782.943 555.273 785.98 557.627 783.915 560.463C782.556 560.913 781.688 561.28 780.268 561.494C766.541 544.75 754.464 533.12 735.952 521.721C735.748 516.667 731.728 509.982 726.046 514.966C726.089 515.775 726.146 515.358 725.843 516.217C721.94 514.455 718.247 512.729 714.191 511.311C716.637 508.17 720.712 510.802 723.46 512.215L724.007 511.35C722.954 509.211 721.35 508.621 721.153 506.318C721.992 504.337 721.651 504.989 723.727 503.61Z"/><path fill="#FEFEFE" fill-opacity="0.38431373" d="M740.116 511.636C751.468 518.133 775.74 536.376 782.499 547.405C781.337 546.852 780.578 546.477 779.446 545.824L778.97 545.929L779.4 546.051L778.651 546.971C780.354 549.333 784.129 553.295 784.504 553.846L780.933 553.161C778.606 552.363 774.716 545.752 772.347 543.283C769.684 539.306 761.479 534.957 758.972 531.671C753.124 524.004 752.197 524.554 743.593 521C741.515 520.142 741.737 518.629 741.307 516.449C740.107 515.482 739.571 515.177 738.771 513.832C739.048 512.214 738.729 512.982 740.116 511.636Z"/><path fill="#FEFEFE" fill-opacity="0.61960787" d="M636.866 494.882C643.446 492.922 653.795 492.483 660.748 492.336C664.716 492.5 666.811 492.595 670.672 493.327L668.912 493.663C668.344 494.574 668.262 494.752 667.866 495.753C667.416 494.93 667.461 494.921 667.177 494.017L666.427 493.872C665.172 495.119 665.614 494.389 665.173 496.208C666.537 496.967 668.467 496.393 670.527 497.321C662.335 503.026 649.468 496.874 641.287 502.811L641.151 503.576C643.275 503.848 644.479 503.979 646.527 504.534C644.689 504.917 641.35 505.715 639.6 505.811C638.81 504.708 638.614 504.621 637.616 503.66C636.414 500.283 636.415 498.457 636.866 494.882Z"/><path fill="#FEFEFE" fill-opacity="0.20784314" d="M803.719 603.603L804.801 602.696L805.741 602.889L806.178 603.792C806.664 604.782 806.777 604.998 807.499 605.873C808.924 605.443 808.415 605.6 809.62 604.423L810.503 604.459C812.453 606.891 811.709 607.56 813.628 608.286C814.876 607.796 815.031 607.831 816.027 606.973C817.436 611.284 820.914 621.581 821.354 625.722L820.739 625.954L820.356 626.551C815.674 627.557 816.679 629.851 811.747 628.41L811.122 625.877L811.569 625.423C810.377 621.482 812.265 617.824 808.269 615.808C807.362 614.312 804.375 605.483 803.719 603.603Z"/><path fill="#FEFEFE" fill-opacity="0.35686275" d="M795.451 585.961L795.785 584.917C801.984 582.941 800.051 580.792 797.885 576.012C800.039 573.499 797.841 576.925 801.768 574.646C804.86 580.122 807.134 584.794 809.716 590.551C804.27 597.899 811.599 599.292 803.675 602.065L803.457 602.973C801.759 599.88 799.809 595.254 798.302 591.953C799.157 590.504 799.125 590.076 799.565 588.436C800.744 588.211 800.178 588.337 801.267 588.066C800.243 586.179 797.641 585.07 795.704 586.569L795.451 585.961Z"/><path fill="#FEFEFE" fill-opacity="0.74901962" d="M704.291 496.979C710.872 498.875 717.358 501.088 723.727 503.61C721.651 504.989 721.992 504.337 721.153 506.318C721.35 508.621 722.954 509.211 724.007 511.35L723.46 512.215C720.712 510.802 716.637 508.17 714.191 511.311L708.426 509.166L707.749 507.808C702.661 505.654 700.002 501.838 704.291 496.979Z"/><path fill="#FEFEFE" fill-opacity="0.40784314" d="M786.136 569.444C786.781 568.717 787.233 568.261 787.918 567.581C789.392 567.278 791.28 568.657 793.607 569.184C795.662 568.679 795.557 568.73 797.133 567.314L801.768 574.646C797.841 576.925 800.039 573.499 797.885 576.012C800.051 580.792 801.984 582.941 795.785 584.917L795.451 585.961C792.497 580.371 789.391 574.864 786.136 569.444ZM797.163 583.822C798.476 582.237 798.46 582.347 798.786 580.337C798.427 578.906 798.567 578.674 797.471 577.788C795.782 579.511 795.359 580.622 796.027 583.035L797.163 583.822Z"/><path fill="#FEFEFE" fill-opacity="0.4627451" d="M797.471 577.788C798.567 578.674 798.427 578.906 798.786 580.337C798.46 582.347 798.476 582.237 797.163 583.822L796.027 583.035C795.359 580.622 795.782 579.511 797.471 577.788Z"/><path fill="#FEFEFE" fill-opacity="0.39607844" d="M780.933 553.161L784.504 553.846C785.529 555.25 784.877 554.796 786.493 555.301L788.41 554.883C791.234 558.056 794.803 563.665 797.133 567.314C795.557 568.73 795.662 568.679 793.607 569.184C791.28 568.657 789.392 567.278 787.918 567.581C787.233 568.261 786.781 568.717 786.136 569.444L780.268 561.494C781.688 561.28 782.556 560.913 783.915 560.463C785.98 557.627 782.943 555.273 780.933 553.161Z"/><path fill="#FEFEFE" fill-opacity="0.3019608" d="M809.716 590.551C812.006 595.729 814.097 601.615 816.027 606.973C815.031 607.831 814.876 607.796 813.628 608.286C811.709 607.56 812.453 606.891 810.503 604.459L809.62 604.423C808.415 605.6 808.924 605.443 807.499 605.873C806.777 604.998 806.664 604.782 806.178 603.792L805.741 602.889L804.801 602.696L803.719 603.603L803.457 602.973L803.675 602.065C811.599 599.292 804.27 597.899 809.716 590.551Z"/><path fill="#FEFEFE" fill-opacity="0.78431374" d="M725.843 516.217C726.146 515.358 726.089 515.775 726.046 514.966C731.728 509.982 735.748 516.667 735.952 521.721L725.843 516.217Z"/><path fill="#FEFEFE" fill-opacity="0.53333336" d="M726.512 504.806L734.968 508.735L734.997 509.857C731.899 513.288 725.965 510.521 723.843 507.274C723.805 505.657 723.563 506.335 724.438 505.123L726.512 504.806Z"/><path fill="#FEFEFE" fill-opacity="0.22745098" d="M784.504 553.846C784.129 553.295 780.354 549.333 778.651 546.971L779.4 546.051L778.97 545.929L779.446 545.824C780.578 546.477 781.337 546.852 782.499 547.405C784.372 549.105 786.996 552.709 788.41 554.883L786.493 555.301C784.877 554.796 785.529 555.25 784.504 553.846Z"/><path fill="#FEFEFE" fill-opacity="0.24313726" d="M795.704 586.569C797.641 585.07 800.243 586.179 801.267 588.066C800.178 588.337 800.744 588.211 799.565 588.436C799.125 590.076 799.157 590.504 798.302 591.953L795.704 586.569Z"/><path fill="#FEFEFE" fill-opacity="0.11372549" d="M808.269 615.808C812.265 617.824 810.377 621.482 811.569 625.423L811.122 625.877C809.762 621.757 809.221 620.162 808.269 615.808Z"/></svg>