<?xml version="1.0" encoding="utf-8" ?><svg xmlns="http://www.w3.org/2000/svg" xmlns:xlink="http://www.w3.org/1999/xlink" width="1024" height="1024" viewBox="0 0 1024 1024"><path fill="#FDA916" d="M492.988 26.0553C758.984 15.5216 983.128 222.673 993.554 488.674C1003.98 754.674 796.738 978.734 530.733 989.052C264.881 999.365 40.9768 792.267 30.5568 526.419C20.1368 260.57 227.144 36.5829 492.988 26.0553ZM522.519 87.7422C507.063 85.3126 492.437 86.4692 477.097 87.7173C432.829 91.3192 389.585 103.602 351.003 125.808C346.58 128.353 341.058 132.444 336.447 134.308L328.753 134.005C318.784 133.649 309.425 132.671 299.395 132.828C294.635 132.899 278.564 133.113 274.473 133.946C264.25 134.095 258.02 135.646 248.074 137.847C260.562 129.835 272.952 121.568 285.744 114.121C349.332 77.1033 421.26 57.5551 494.571 54.0678C502.27 53.7015 510.646 54.0729 518.259 53.4158C518.46 49.4595 518.54 45.498 518.497 41.5369C418.67 40.0971 321.004 70.6497 239.794 128.722C224.298 139.602 207.834 152.488 193.493 165.088C193.308 165.25 192.548 166.092 192.334 166.32C211.07 158.955 228.18 153.309 248.101 149.657C255.912 148.225 263.486 147.348 271.297 146.17L271.914 146.32L273.026 145.668L274.913 145.818C275.153 145.419 275.129 144.535 275.873 143.385C286.329 142.34 322.585 139.009 330.112 145.969C333.529 146.536 338.742 147.847 341.504 145.796C394.266 110.683 454.701 97.2083 517.533 98.4388C516.007 103.381 514.414 108.302 512.753 113.2C509.234 113.241 505.724 113.136 502.229 113.131C468.652 113.079 433.875 118.741 402.605 131.204C390.738 135.934 372.701 142.884 363.007 150.869C374.131 152.634 387.646 157.567 398.298 161.28C438.956 175.452 477.127 198.437 507.312 229.527C546.099 269.001 571.037 319.991 578.382 374.843C579.676 384.953 580.581 393.351 580.417 403.653C574.95 398.181 569.839 393.137 564.13 387.931C562.46 348.361 546.62 306.591 524.266 274.176C481.526 212.2 418.569 176.098 345.373 162.492C340.974 165.101 327.333 176.245 323.33 179.809C277.034 221.391 248.785 279.393 244.592 341.48C240.623 407.914 260.637 468.377 304.868 518.32C334.107 520.702 364.12 513.799 390.507 501.221C397.146 498.056 403.228 494.004 409.744 490.493C408.473 495.641 406.3 505.235 404.541 509.851C393.778 516.345 383.199 520.991 371.36 524.902C236.328 569.519 96.9835 450.057 101.334 312.531C101.654 302.446 101.917 292.296 103.64 282.322C97.5416 290.864 92.1348 304.319 87.623 314.112C50.8212 393.989 37.4439 483.971 49.1332 571.213C60.9526 659.426 104.459 753.94 165.42 819.22C176.926 821.256 184.414 822.987 198.01 823.322C229.758 824.106 264.351 814.784 290.741 796.92C290.686 796.957 292.46 781.58 298.214 776.5C299.287 765.313 299.601 754.806 299.686 743.604C299.711 740.247 304.825 732.262 303.781 729.158C301.981 723.811 295.101 717.258 290.697 714.058C277.711 728.008 274.776 715.686 263.871 706.653C260.992 704.268 259.166 702.937 255.909 701.005C253.942 701.295 252.21 701.712 250.278 702.155C247.88 712.24 251.307 722.879 238.992 724.674C236.727 734.192 234.052 743.507 225.507 749.481C222.372 751.64 218.558 752.827 215.328 754.781C198.865 764.736 179.183 776.304 181.302 798.626C181.809 803.964 192.242 810.761 187.704 815.573C184.804 816.468 181.596 816.113 178.686 816.079C168.647 815.963 165.793 808.109 161.547 800.697C160.453 798.869 158.696 796.879 157.264 795.34C150.865 788.668 149.179 781.249 157.611 775.421C161.157 772.97 165.144 770.034 169.471 770.735C171.747 771.103 176.789 764.916 178.297 763.149C184.648 755.71 190.525 747.179 199.245 742.276C202.929 740.189 208.932 738.209 211.959 735.696C213.869 734.111 216.352 726.457 216.427 723.773C214.167 722.373 212.856 724.587 210.439 722.829C209.339 719.905 215.126 693.356 215.37 687.419C215.567 682.588 215.215 674.805 216.03 670.236C216.746 666.224 220.069 663.176 220.52 657.736C204.398 647.478 209.67 636.644 220.087 624.223C228.946 613.66 239.704 599.74 252.783 594.887C263.048 591.077 274.074 588.345 284.101 583.402C286.368 582.306 290.75 581.829 292.348 580.223C293.693 577.035 292.539 574.225 292.65 570.992C293.068 558.827 303.039 549.538 313.853 545.549C313.886 545.537 324.48 546.026 326.248 545.563C329.34 544.753 336.618 550.762 338.8 552.796C343.241 556.708 357.855 567.185 351.466 573.826C350.43 574.904 347.241 574.452 345.587 574.22L344.849 574.111C344.55 582.628 345.507 584.359 336.624 586.819C329.608 588.762 333.445 600.699 329.038 602.075C325.011 601.129 323.172 598.593 320.275 595.614C319.274 595.659 318.275 595.725 317.277 595.809C315.536 595.967 314.069 596.198 312.923 597.592C314.312 604.879 348.472 606.622 354.45 611.088C359.636 614.962 364.344 619.623 369.407 623.648C375.743 628.683 372.11 628.701 372.282 631.047C380.759 634.783 377.619 639.362 386.674 641.604C388.165 643.107 389.148 646.51 389.937 648.64C392.556 648.871 396.288 649.048 398.723 649.801C411.553 653.768 408.639 670.008 414.237 680.117C407.226 698.947 373.227 712.743 353.931 709.614C350.372 709.038 350.582 702.679 345.151 701.739C335.423 700.054 330.789 686.64 323.508 681.61C323.105 681.329 321.499 680.535 320.992 680.243C318.891 676.734 322.001 674.629 321.747 673.31C321.436 671.692 318.999 666.815 319.834 664.117C323.977 650.727 342.685 643.623 353.351 637.39L353.051 637.025C350.589 634.086 350.193 632.851 349.94 628.985C344.851 627.857 334.971 624.317 331.13 623.76C318.537 621.932 316.439 623.497 304.074 618.665C299.914 625.072 297.2 632.525 293.427 639.214C290.127 645.065 286.275 649.134 281.821 654.056C283.28 659.517 282.808 659.533 281.244 665.029C290.358 669.81 290.859 672.659 292.107 682.358C298.252 687.664 305.909 692.813 311.538 698.579C312.3 699.36 313.443 705.074 314.209 706.253C316.463 709.721 319.693 712.898 322.011 716.338C323.669 718.797 324.361 720.732 324.266 723.688C324.042 730.597 321.479 737.486 320.102 744.269C318.3 753.143 316.601 761.993 314.699 770.838C322.38 793.895 342.011 780.243 341.589 790.776C341.097 803.055 315.753 804.117 305.62 804.088C273.255 825.434 245.323 836.114 205.892 837.466C197.906 837.74 190.15 836.291 182.25 836.505L181.377 836.533C190.967 846.805 207.094 861.88 218.527 870.061C228.569 861.822 238.346 859.187 251.222 861.182C256.093 855.331 258.698 850.871 264.56 845.103C287.065 822.961 308.66 820.431 337.347 815.786C345.721 796.249 350.365 784.157 374.671 785.032C380.24 779.65 386.662 770.454 391.583 764.299C425.038 722.449 454.206 639.508 425.907 588.866C435.084 584.216 437.506 586.342 442.753 594.741C454.416 613.41 452.691 642.634 449.932 663.125C443.405 711.6 421.196 751.413 390.567 788.646C398.345 788.966 404.996 789.276 412.472 791.57C425.797 782.293 428.398 781.021 443.978 777.196C442.258 775.84 440.683 774.937 440.295 772.835C442.03 768.54 474.537 754.051 480.232 749.982C484.503 746.93 487.571 742.844 490.897 738.759C489.51 733.977 489.039 729.953 488.349 725.053C484.445 724.807 480.538 724.595 476.63 724.417C475.242 706.015 473.783 687.726 471.553 669.391C470.284 658.965 468.582 648.15 467.224 637.807C466.497 632.27 463.406 617.341 464.157 612.782C465.829 602.642 473.774 586.438 478.382 577.199C485.276 563.375 493.203 549.855 500.505 536.261C504.018 529.72 508.973 521.651 511.661 514.992L511.98 514.19C509.611 506.374 502.869 490.59 498.361 484.005C498.547 499.555 501.331 513.31 497.767 529.307C494.751 532.801 488.932 536.587 485.122 539.453C469.331 551.33 452.853 561.029 435.659 570.666C429.933 574.084 423.338 576.983 417.849 580.71C414.468 583.005 411.727 589.595 410.601 593.506C408.92 599.339 408.42 606.202 403.088 610.133C399.878 612.499 398.266 612.232 394.562 611.606C389.766 616.211 386.648 619.464 380.949 622.98C374.059 613.493 382.229 613.786 386.127 606.057C387.579 603.177 388.196 598.345 388.907 595.02C386.363 593.997 382.976 593.147 381.967 590.791C385.346 581.927 401.859 580.06 406.37 576.369C423.967 561.974 437.751 542.922 452.318 525.644C456.013 521.262 460.953 517.374 464.044 512.911C461.855 500.456 460.163 486.858 454.71 475.521C453.726 486.691 449.393 508.979 445.388 519.112C438.81 535.756 392.289 563.905 376.088 574.79C372.429 577.248 367.426 582.42 363.659 583.889C361.446 584.752 357.619 584.871 355.565 583.519C354.451 582.786 354.508 582.183 354.386 580.994C356.04 576.962 367.667 567.319 371.824 562.85C388.742 544.663 402.604 525.223 419.434 507.072C419.829 499.858 421.369 490.68 422.394 483.397C423.863 472.441 425.435 461.499 427.111 450.573C428.389 442.672 435.831 414.965 424.007 413.681C416.724 412.889 416.062 427.509 406.952 425.847C401.053 424.77 403.655 419.576 397.194 419.601C395.474 419.569 389.126 412.406 388.357 410.757C387.813 409.59 383.54 412.53 380.753 410.998C378.526 408.69 378.974 403.383 378.874 399.994C376.631 396.239 374.333 393.829 371.408 390.602C366.915 396.894 355.754 403.484 348.222 399.598C344.325 394.555 356.255 386.8 358.602 382.283C363.361 373.118 360.213 361.873 368.798 354.029C374.717 348.621 383.179 338.055 391.736 337.371C394.068 337.131 398.658 338.543 400.715 338.434C422.484 337.275 427.249 353.795 433.931 370.306C434.218 371.015 434.261 374.364 434.284 375.363C436.07 377.607 436.445 377.903 438.799 379.562C440.187 376.952 441.905 373.66 445.078 373.306C446.812 374.174 447.584 375.904 448.625 377.6C455.627 381.185 480.513 372.471 490.065 371.672C506.439 370.301 514.73 374.943 529.011 382.926C538.435 388.194 547.7 394.276 556.276 401.061C561.538 405.223 566.439 410.188 571.707 414.38L572.201 414.768C589.805 407.957 582.242 397.429 605.547 409.35C615.997 405.548 630.87 399.007 641.087 393.979C642.634 393.218 646.084 386.792 649.221 384.603C655.547 380.178 663.18 375.742 669.11 370.976C672.726 368.069 672.254 353.517 672.417 348.534L673.325 323.565C658.472 308.992 652.623 296.444 654.849 275.525C652.963 275.006 651.302 274.227 649.507 273.46C648.315 271.731 646.898 269.291 645.755 267.459C641.986 266.058 639.262 262.729 634.334 260.319C631.98 261.387 629.903 261.322 627.945 259.804C626.598 256.658 628.587 251.966 629.617 248.417C623.467 245.501 621.014 244.894 617.606 238.938C611.456 241.002 600.067 248.153 594.643 246.27C591.277 242.385 609.234 225.616 612.222 222.338C611.222 206.924 623.991 191.418 640.066 187.089C644.364 185.931 656.249 190.203 661.329 190.815C666.142 191.395 675.062 198.281 675.742 203.686C676.473 210.785 674.611 210.069 678.478 217.022C689.183 220.359 681.874 221.998 681.704 226.25C682.834 228.874 685.631 229.749 688.194 230.848C694.004 225.329 707.461 216.182 715.599 216.443C747.145 218.515 776.757 243.582 799.673 263.707C815.65 277.739 828.153 295.123 844.356 308.95C848.417 312.416 850.005 315.621 850.067 320.841C854.352 323.43 858.347 326.083 861.524 329.999C865.947 335.453 867.602 338.557 861.489 343.097C871.316 362.42 867.847 381.117 866.794 401.789C865.71 423.577 863.553 444.881 864.04 466.742C864.557 489.918 865.992 494.7 881.828 510.545L910.248 538.728C913.954 542.379 918.785 546.529 922.167 550.234L922.533 550.641L915.433 557.356C921.215 563.192 929.874 570.923 936.769 575.49C937.709 576.113 940.768 576.286 942.143 576.818C952.416 580.793 962.786 595.009 967.4 604.356C969.909 596.784 971.72 585.294 972.975 577.306C979.444 535.449 980.253 492.912 975.38 450.84C960.101 326.146 895.131 212.9 795.197 136.774C730.714 87.3229 654.371 55.6807 573.812 45.0157C562.944 43.6203 541.105 40.768 530.936 42.0403C531.426 62.3747 530.814 69.3364 522.519 87.7422ZM566.332 971.191C568.731 970.858 570.667 970.773 572.677 969.408C574.021 968.495 575.362 967.65 576.985 967.79C579.261 970.097 580.123 969.218 583.182 968.818C631.653 961.056 678.566 945.577 722.139 922.97C723.328 922.402 724.867 921.508 726.057 920.859C734.247 917.241 745.545 910.718 752.974 905.755C753.692 905.494 756.678 903.615 757.515 903.11C759.927 901.62 761.831 900.373 764.143 898.724C768.048 896.629 774.276 892.192 777.799 889.613C779.045 888.926 780.442 887.788 781.613 886.907L784.654 884.972L790.242 880.83C792.308 879.275 794.475 877.498 796.517 875.883C806.183 869.304 821.448 855.417 830.212 847.547L835.073 842.987C836.272 841.791 837.45 840.574 838.608 839.338C840.767 837.28 842.582 835.533 844.603 833.329C849.614 828.312 853.937 823.817 858.559 818.362C903.951 769.967 955.033 678.301 966.157 612.641C961.327 615.461 956.471 618.237 951.591 620.969C938.408 681.037 901.16 746.24 863.654 794.747C853.573 807.784 841.478 818.866 830.563 830.897C827.117 833.72 824.148 836.976 820.834 839.777C819.201 841.037 807.277 851.447 806.441 852.657C803.217 855.241 800.033 857.873 796.888 860.553C794.636 862.34 778.896 873.836 778.455 874.693C776.323 876.151 774.183 877.589 772.104 879.121C768.548 881.399 759.145 887.344 756.131 889.881C745.946 895.93 735.66 901.807 725.276 907.509C723.166 908.676 712.016 914.561 711.204 915.219C702.989 918.683 694.844 922.4 686.617 925.868C684.753 926.654 674.978 930.461 673.874 931.178C635.491 944.054 601.276 955.079 560.314 958.265C489.363 965.896 417.611 956.768 350.83 931.616C338.213 926.791 325.804 921.437 313.638 915.567C307.134 912.485 294.865 905.979 288.672 904.237C282.116 902.392 269.248 901.72 261.69 900.672C274.127 910.72 300.805 924.294 315.568 931.04C393.32 967.069 479.482 981.022 564.631 971.373L566.332 971.191ZM670.569 678.061C668.173 674.437 667.53 671.997 666.562 667.88C670.956 657.437 679.398 656.732 688.951 652.2C702.377 645.83 717.077 635.311 721.483 620.307C722.512 616.57 721.49 604.523 721.511 599.819L711.582 598.259C711.771 584.842 712.718 569.359 713.726 555.984C714.724 542.74 716.081 519.112 719.777 506.969C725.156 489.299 734.686 466.713 741.961 449.291C746.802 437.82 751.489 426.285 756.021 414.688C758.512 408.38 763.04 397.207 764.43 390.763C759.477 380.119 749.244 366.949 739.869 359.83C738.173 364.276 737.261 366.036 732.738 368.08C732.122 368.362 731.5 368.632 730.874 368.89C723.221 364.154 718.757 359.38 712.462 355.16C709.197 367.723 708.618 391.395 696.357 398.182C686.225 403.79 664.825 414.85 652.576 416.41C651.51 416.546 648.57 413.801 647.52 412.875C641.177 414.492 634.651 416.745 628.434 418.754C625.576 419.678 618.71 421.233 616.635 422.576C608.004 428.162 604.226 431.261 594.411 434.746L610.525 461.521C613.717 466.774 617.823 472.875 620.656 478.138C618.525 480.043 615.948 482.241 613.939 484.205C615.326 489.507 617.185 496.052 616.383 501.567C615.556 507.254 612.006 513.376 609.691 518.621C606.235 526.45 602.835 534.32 599.069 542.006C592.772 554.856 571.947 591.016 573.697 603.633C574.582 610.011 578.492 616.793 581.042 622.708C587.008 636.543 592.718 650.317 599.755 663.673C603.003 669.838 606.888 675.59 610.308 681.645L603.347 685.851C606.952 692.339 608.371 693.145 614.626 697.253C621.442 701.729 627.537 709.027 630.571 716.625C627.545 718.942 625.275 720.118 623.951 723.653C621.329 726.093 615.798 728.303 611.612 731.994C616.465 730.387 621.635 727.75 626.029 726.39C638.04 722.671 642.854 714.101 648.261 703.296C654.492 690.844 659.781 686.939 670.569 678.061ZM672.104 314.646L673.11 315.255C674.481 312.64 672.767 305.29 672.505 302.102C671.758 292.991 671.921 281.797 675.1 273.119C671.606 270.987 670.519 270.34 666.576 268.927C655.247 284.017 660.294 301.671 672.104 314.646ZM754.379 660.027C757.948 659.992 761.971 660.041 765.497 659.868C778.267 651.879 790.8 653.054 805.355 655.729C808.609 656.327 815.807 659.094 818.494 658.953C832.874 658.195 839.354 650.494 854.48 656.176C859.22 657.904 861.332 658.081 866.388 658.437C870.74 654.801 873.438 652.346 878.104 649.075C883.863 645.037 893.725 643.101 897.331 638.338C894.955 635.376 890.68 639.76 891.388 629.271C892.292 615.882 901.745 616.88 909.607 608.681C915.753 602.273 913.739 593.689 919.697 587.601C912.56 580.613 904.961 575.787 898.405 569.694C896.585 571.586 894.983 573.335 892.954 575.016C888.252 572.081 880.815 565.814 876.24 562.179C866.835 554.811 857.478 547.382 848.17 539.893C839.813 533.253 830.716 526.849 822.848 519.616C820.576 517.527 819.111 511.793 818.34 508.761C813.875 486.076 810.448 463.158 807.606 440.215C807.509 439.433 807.407 438.91 806.888 438.382C799.076 452.274 791.373 466.229 783.782 480.243C779.365 488.332 772.134 500.665 769.243 509.056C766.795 516.16 764.529 528.207 762.971 535.911C759.939 550.842 757.135 565.818 754.558 580.834C753.446 587.18 751.847 598.51 750.221 604.199C747.411 603.627 744.915 603.078 742.051 602.772C741.686 609.376 740.811 619.585 741.4 625.852C742.804 626.511 744.699 627.326 746.027 628.031C747.103 631.672 747.679 635.413 748.662 638.647C751.142 646.805 753.233 651.58 754.379 660.027ZM221.606 409.528C208.017 423.833 181.354 435.9 166.999 449.195C176.439 461.833 184.493 468.594 196.516 478.091C224.063 499.851 249.355 510.962 283.825 516.917C281.724 512.401 276.231 505.738 273.269 501.295C267.14 491.942 261.511 482.271 256.406 472.322C225.989 411.666 220.876 341.421 242.188 276.999C253.887 241.869 273.33 209.815 299.079 183.207C306.843 175.085 315.61 168.143 322.919 160.364C313.39 159.322 297.466 158.279 287.904 159.217C250.103 161.796 214.777 169.912 181.037 187.489C174.961 190.653 163.457 195.182 159.903 200.482C152.97 210.819 134.417 229.308 129.354 239.816C122.187 254.69 117.107 286.311 118.044 302.416C119.879 296.603 121.5 290.274 123.805 284.487C134.482 257.681 149.656 230.365 169.909 209.581C173.177 206.226 179.528 202.299 183.551 200.23C214.733 184.202 257.983 171.432 293.194 172.064C244.723 219.474 217.414 288.419 216.564 355.957C216.556 356.534 216.555 357.11 216.561 357.687C216.518 368.22 217.613 379.917 218.732 390.451C219.37 396.449 221.078 403.592 221.606 409.528ZM330.891 668.501L334.596 669.65C335.035 667.873 335.626 665.018 336.76 663.611C341.696 657.488 349.67 654.688 356.357 650.792L356.009 650.36C354.367 648.295 352.789 645.081 351.226 643.934L350.008 643.929C340.618 648.171 327.262 654.609 323.271 664.866C322.958 665.667 322.673 666.479 322.414 667.299C325.259 667.652 328.078 667.953 330.891 668.501ZM582.84 697.2C580.45 698.872 577.829 700.784 575.405 702.353C567.837 690.809 561.292 678.391 554.067 666.588C542.622 647.893 532.174 628.673 522.444 609.029C521.383 606.888 520.552 604.843 519.713 602.619C520.518 596.96 524.723 584.991 523.686 580.84C521.7 585.134 511.314 609.832 511.43 612.786C512.605 642.63 516.226 673.986 516.647 704.044C516.748 711.216 517.688 717.605 517.667 724.455L503.941 726.218C504.531 730.179 505.094 734.144 505.63 738.113C512.576 742.519 521.003 754.89 522.56 762.885C521.818 764.741 521.044 766.585 520.24 768.415C530.675 765.356 546.712 759.904 556.666 755.741C552.171 739.838 568.82 734.151 577.937 725.074C581.223 721.803 586.446 710.76 588.151 706.119C586.265 702.523 585.189 700.461 582.84 697.2ZM368.057 645.736C366.61 643.176 364.648 638.035 361.367 638.548C358.755 639.47 358.425 639.07 357.176 640.883C357.399 643.901 359.051 645.778 361.382 647.705L362.487 647.453L368.057 645.736Z"/><path fill="#FDA916" d="M89.3501 339.419C90.3418 340.495 93.0218 363.562 93.928 367.608C103.967 412.434 126.755 446.204 157.076 479.975C146.121 510.103 124.047 521.847 111.068 548.607C101.301 570.319 104.935 594.255 103.818 617.188C103.258 628.692 100.013 641.66 97.4525 652.895C94.9613 662.983 93.2521 670.679 91.6096 680.898C83.5677 658.723 75.6707 638.823 70.036 615.714C48.3397 523.785 55.0749 427.435 89.3501 339.419Z"/><path fill="#FDA916" d="M346.628 175.425C360.095 175.486 396.65 188.606 409.303 194.534C404.556 196.49 399.466 198.562 395.246 201.522C373.311 216.905 371.046 245.952 349.984 263.164C333.06 276.995 312.735 277.701 294.832 289.844C289.474 293.478 286.766 296.213 282.25 300.847C269.367 314.365 265.97 325.793 257.241 339.966C258.892 328.531 259.211 318.798 261.899 306.959C271.222 265.896 291.507 229.262 320.871 199.111C329.111 190.651 337.826 183.191 346.628 175.425Z"/><path fill="#FDA916" d="M497.239 124.702C499.55 124.374 505.901 124.357 508.516 124.278C503.72 139.448 481.758 173.997 468.325 181.525C463.871 179.33 458.102 175.797 453.635 173.311C445.542 168.757 437.267 164.532 428.832 160.647C417.127 154.976 406.539 151.088 394.295 146.893C404.117 143.419 413.197 139.73 423.271 136.607C448.904 128.659 470.857 126.515 497.239 124.702Z"/><defs><linearGradient id="gradient_0" gradientUnits="userSpaceOnUse" x1="920.7666" y1="732.25739" x2="884.2558" y2="716.1925"><stop offset="0" stop-color="white" stop-opacity="0"/><stop offset="1" stop-color="white" stop-opacity="0.050980393"/></linearGradient></defs><path fill="url(#gradient_0)" d="M951.591 620.969C956.471 618.237 961.327 615.461 966.157 612.641C955.033 678.301 903.951 769.967 858.559 818.362C857.765 816.895 857.642 816.183 857.345 814.589L856.811 814.302C855.061 816.315 854.789 818.577 853.502 820.272C851.615 822.757 847.509 825.081 845.95 828.076C843.582 830.051 841.985 831.589 839.806 833.745C843.605 822.49 850.796 827.813 852.783 813.491C851.462 813.761 849.621 815.75 848.412 816.811C846.497 824.619 838.407 830.505 830.563 830.897C841.478 818.866 853.573 807.784 863.654 794.747C901.16 746.24 938.408 681.037 951.591 620.969Z"/><defs><linearGradient id="gradient_1" gradientUnits="userSpaceOnUse" x1="644.84338" y1="957.03589" x2="640.22693" y2="930.59448"><stop offset="0" stop-color="white" stop-opacity="0"/><stop offset="1" stop-color="white" stop-opacity="0.070588239"/></linearGradient></defs><path fill="url(#gradient_1)" d="M673.874 931.178C675.602 932.224 675.105 930.129 677.556 930.862C678.056 932.26 678.168 932.812 678.475 934.232L679.259 934.132C681.057 929.233 684.436 929.033 689.265 927.349C696.42 924.852 702.853 921.89 709.735 918.799C710.621 920.231 710.678 920.024 711.046 921.593L709.524 922.036L710.482 922.736L709.579 921.965C713.578 925.462 716.935 921.169 722.139 922.97C678.566 945.577 631.653 961.056 583.182 968.818C579.467 967.356 581.361 967.008 576.225 966.69C576.068 966.235 575.906 965.782 575.737 965.332C572.85 957.699 566.677 958.156 560.253 961.175C559.892 959.649 559.778 959.702 560.314 958.265C601.276 955.079 635.491 944.054 673.874 931.178Z"/><path fill="#FEFEFE" fill-opacity="0.22745098" d="M756.131 889.881L757.918 891.746L756.701 893.127L757.238 893.514C759.512 892.137 758.782 890.458 761.168 889.624C762.481 890.655 761.94 890.01 762.555 891.832C761.282 894.618 761.306 896.551 759.701 899.41C757.171 901.135 751.188 900.302 747.443 901.72C740.726 904.262 736.38 910.275 729.722 912.603C728.111 913.109 725.611 914.174 724.5 915.262C723.884 916.681 724.052 917.501 724.109 919.041C721.584 922.117 715.35 921.226 711.988 919.899C710.811 918.748 710.736 918.858 710.406 917.282L711.204 915.219C712.016 914.561 723.166 908.676 725.276 907.509C735.66 901.807 745.946 895.93 756.131 889.881Z"/><path fill="#FEFEFE" fill-opacity="0.10588235" d="M778.455 874.693L778.882 875.796C778.292 876.784 778.325 876.745 777.456 877.497L777.403 878.137L778.12 878.746C783.538 883.394 780.541 881.948 781.613 886.907C780.442 887.788 779.045 888.926 777.799 889.613C775.354 888.963 773.745 891.03 769.197 889.625L768.158 890.178C767.525 895.458 764.975 894.516 764.143 898.724C761.831 900.373 759.927 901.62 757.515 903.11C753.292 900.702 753.246 905.871 746.738 904.152C740.55 906.928 739.183 907.935 735.958 913.532C733.019 914.22 725.386 917.267 726.057 920.859C724.867 921.508 723.328 922.402 722.139 922.97C716.935 921.169 713.578 925.462 709.579 921.965L710.482 922.736L709.524 922.036L711.046 921.593C710.678 920.024 710.621 920.231 709.735 918.799C702.853 921.89 696.42 924.852 689.265 927.349C684.436 929.033 681.057 929.233 679.259 934.132L678.475 934.232C678.168 932.812 678.056 932.26 677.556 930.862C675.105 930.129 675.602 932.224 673.874 931.178C674.978 930.461 684.753 926.654 686.617 925.868C694.844 922.4 702.989 918.683 711.204 915.219L710.406 917.282C710.736 918.858 710.811 918.748 711.988 919.899C715.35 921.226 721.584 922.117 724.109 919.041C724.052 917.501 723.884 916.681 724.5 915.262C725.611 914.174 728.111 913.109 729.722 912.603C736.38 910.275 740.726 904.262 747.443 901.72C751.188 900.302 757.171 901.135 759.701 899.41L761.182 898.413C766.801 894.686 762.606 892.767 768.262 888.733C772.616 885.629 770.739 888.389 775.022 886.174C774.634 883.808 776.169 883.47 777.898 881.702C777.019 880.156 774.099 880.108 772.104 879.121C774.183 877.589 776.323 876.151 778.455 874.693Z"/><path fill="#FEFEFE" fill-opacity="0.57647061" d="M328.753 134.005L336.447 134.308C336.573 137.04 340.023 144.231 341.504 145.796C338.742 147.847 333.529 146.536 330.112 145.969C322.585 139.009 286.329 142.34 275.873 143.385C282.996 137.496 303.238 140.185 311.551 141.045C313.488 141.246 318.608 139.431 320.998 138.861C325.044 135.393 325.741 136.648 330.359 134.783L328.753 134.005Z"/><defs><linearGradient id="gradient_2" gradientUnits="userSpaceOnUse" x1="793.297" y1="875.93506" x2="787.64832" y2="866.48981"><stop offset="0" stop-color="#FEFEFD" stop-opacity="0.40784314"/><stop offset="1" stop-color="#FDFDFD" stop-opacity="0.51372552"/></linearGradient></defs><path fill="url(#gradient_2)" d="M796.888 860.553L798.867 860.379L799.233 860.827L798.127 863.285L798.423 863.831C799.892 866.638 799.162 871.077 797.682 873.827C797.307 874.519 796.918 875.205 796.517 875.883C794.475 877.498 792.308 879.275 790.242 880.83C787.78 878.655 789.537 878.308 787.576 875.386L786.917 875.564C785.956 879.644 789.223 876.465 786.4 879.571C783.424 879.85 784.377 878.672 781.844 878.118L782.443 878.075L781.748 878.813C783.485 881.294 784.913 882.186 784.654 884.972L781.613 886.907C780.541 881.948 783.538 883.394 778.12 878.746L777.403 878.137L777.456 877.497C778.325 876.745 778.292 876.784 778.882 875.796L778.455 874.693C778.896 873.836 794.636 862.34 796.888 860.553Z"/><path fill="#FEFEFE" fill-opacity="0.52941179" d="M820.834 839.777L821.512 840.692C824.519 840.977 826.739 838.259 829.5 836.547C828.622 837.638 828 838.226 827.42 839.484C824.274 841.153 822.68 843.231 821.181 846.325L821.644 846.701C826.931 843.82 828.884 843.109 835.073 842.987L830.212 847.547C828.879 846.81 828.531 846.445 827.022 846.395C819.909 848.865 815.252 857.657 810.043 862.461C809.606 862.864 807.818 862.737 807.047 862.746L807.53 863.341L806.606 866.269L806.164 866.45C805.918 863.603 806.141 859.111 805.428 856.789L804.704 856.404C803.555 857.407 802.522 858.852 801.23 859.41C803.635 856.508 805.845 855.625 806.441 852.657C807.277 851.447 819.201 841.037 820.834 839.777Z"/><path fill="#FEFEFE" fill-opacity="0.61960787" d="M806.441 852.657C805.845 855.625 803.635 856.508 801.23 859.41C802.522 858.852 803.555 857.407 804.704 856.404L805.428 856.789C806.141 859.111 805.918 863.603 806.164 866.45L806.606 866.269L807.53 863.341L807.047 862.746C807.818 862.737 809.606 862.864 810.043 862.461C815.252 857.657 819.909 848.865 827.022 846.395C828.531 846.445 828.879 846.81 830.212 847.547C821.448 855.417 806.183 869.304 796.517 875.883C796.918 875.205 797.307 874.519 797.682 873.827C799.162 871.077 799.892 866.638 798.423 863.831L798.127 863.285L799.233 860.827L798.867 860.379L796.888 860.553C800.033 857.873 803.217 855.241 806.441 852.657Z"/><path fill="#FEFEFE" fill-opacity="0.29411766" d="M299.395 132.828C309.425 132.671 318.784 133.649 328.753 134.005L330.359 134.783C325.741 136.648 325.044 135.393 320.998 138.861C316.699 136.051 313.636 138.327 308.895 138.178C307.525 138.135 303.349 136.17 302.42 136.287C295.136 137.203 287.324 137.921 280.025 138.349C278.581 138.433 273.754 142.589 273.41 144.291C273.282 144.75 273.154 145.209 273.026 145.668L271.914 146.32L272.161 145.349C275.942 130.975 283.384 137.508 293.859 135.552C295.279 135.286 298.057 133.616 299.395 132.828Z"/><path fill="#FEFEFE" fill-opacity="0.20784314" d="M848.412 816.811C849.621 815.75 851.462 813.761 852.783 813.491C850.796 827.813 843.605 822.49 839.806 833.745C841.985 831.589 843.582 830.051 845.95 828.076C845.014 829.534 844.559 830.209 843.84 831.828C844.154 832.973 843.885 832.48 844.603 833.329C842.582 835.533 840.767 837.28 838.608 839.338C836.624 837.723 837.983 837.856 836.423 835.672C833.924 835.35 829.748 838.152 827.42 839.484C828 838.226 828.622 837.638 829.5 836.547C826.739 838.259 824.519 840.977 821.512 840.692L820.834 839.777C824.148 836.976 827.117 833.72 830.563 830.897C838.407 830.505 846.497 824.619 848.412 816.811Z"/><path fill="#FEFEFE" d="M275.873 143.385C286.329 142.34 322.585 139.009 330.112 145.969C321.537 145.888 312.1 144.649 303.317 144.563C293.603 144.468 284.582 145.183 274.913 145.818C275.153 145.419 275.129 144.535 275.873 143.385Z"/><path fill="#FEFEFE" fill-opacity="0.29019609" d="M560.253 961.175C566.677 958.156 572.85 957.699 575.737 965.332C575.906 965.782 576.068 966.235 576.225 966.69C581.361 967.008 579.467 967.356 583.182 968.818C580.123 969.218 579.261 970.097 576.985 967.79C575.362 967.65 574.021 968.495 572.677 969.408C570.667 970.773 568.731 970.858 566.332 971.191C564.326 963.468 560.32 967.388 560.253 961.175Z"/><path fill="#FEFEFE" fill-opacity="0.24705882" d="M772.104 879.121C774.099 880.108 777.019 880.156 777.898 881.702C776.169 883.47 774.634 883.808 775.022 886.174C770.739 888.389 772.616 885.629 768.262 888.733C762.606 892.767 766.801 894.686 761.182 898.413L759.701 899.41C761.306 896.551 761.282 894.618 762.555 891.832C761.94 890.01 762.481 890.655 761.168 889.624C758.782 890.458 759.512 892.137 757.238 893.514L756.701 893.127L757.918 891.746L756.131 889.881C759.145 887.344 768.548 881.399 772.104 879.121Z"/><path fill="#FEFEFE" fill-opacity="0.33725491" d="M273.026 145.668C273.154 145.209 273.282 144.75 273.41 144.291C273.754 142.589 278.581 138.433 280.025 138.349C287.324 137.921 295.136 137.203 302.42 136.287C303.349 136.17 307.525 138.135 308.895 138.178C313.636 138.327 316.699 136.051 320.998 138.861C318.608 139.431 313.488 141.246 311.551 141.045C303.238 140.185 282.996 137.496 275.873 143.385C275.129 144.535 275.153 145.419 274.913 145.818L273.026 145.668Z"/><path fill="#FEFEFE" fill-opacity="0.44313726" d="M827.42 839.484C829.748 838.152 833.924 835.35 836.423 835.672C837.983 837.856 836.624 837.723 838.608 839.338C837.45 840.574 836.272 841.791 835.073 842.987C828.884 843.109 826.931 843.82 821.644 846.701L821.181 846.325C822.68 843.231 824.274 841.153 827.42 839.484Z"/><path fill="#FEFEFE" fill-opacity="0.0078431377" d="M735.958 913.532C740.419 911.21 746.374 902.924 752.974 905.755C745.545 910.718 734.247 917.241 726.057 920.859C725.386 917.267 733.019 914.22 735.958 913.532Z"/><path fill="#FEFEFE" fill-opacity="0.1254902" d="M274.473 133.946C278.564 133.113 294.635 132.899 299.395 132.828C298.057 133.616 295.279 135.286 293.859 135.552C283.384 137.508 275.942 130.975 272.161 145.349L271.914 146.32L271.297 146.17C271.492 142.724 271.485 141.276 272.699 137.97C274.45 133.205 274.925 135.81 278.319 134.296L274.473 133.946Z"/><path fill="#FEFEFE" fill-opacity="0.14509805" d="M845.95 828.076C847.509 825.081 851.615 822.757 853.502 820.272C854.789 818.577 855.061 816.315 856.811 814.302L857.345 814.589C857.642 816.183 857.765 816.895 858.559 818.362C853.937 823.817 849.614 828.312 844.603 833.329C843.885 832.48 844.154 832.973 843.84 831.828C844.559 830.209 845.014 829.534 845.95 828.076Z"/><path fill="#FEFEFE" fill-opacity="0.031372551" d="M764.143 898.724C764.975 894.516 767.525 895.458 768.158 890.178L769.197 889.625C773.745 891.03 775.354 888.963 777.799 889.613C774.276 892.192 768.048 896.629 764.143 898.724Z"/><path fill="#FEFEFE" fill-opacity="0.050980393" d="M735.958 913.532C739.183 907.935 740.55 906.928 746.738 904.152C753.246 905.871 753.292 900.702 757.515 903.11C756.678 903.615 753.692 905.494 752.974 905.755C746.374 902.924 740.419 911.21 735.958 913.532Z"/><path fill="#FEFEFE" fill-opacity="0.45882353" d="M784.654 884.972C784.913 882.186 783.485 881.294 781.748 878.813L782.443 878.075L781.844 878.118C784.377 878.672 783.424 879.85 786.4 879.571C789.223 876.465 785.956 879.644 786.917 875.564L787.576 875.386C789.537 878.308 787.78 878.655 790.242 880.83L784.654 884.972Z"/></svg>