<?xml version="1.0" encoding="utf-8" ?><svg xmlns="http://www.w3.org/2000/svg" xmlns:xlink="http://www.w3.org/1999/xlink" width="1024" height="1024" viewBox="0 0 1024 1024"><path fill="#FDA916" d="M435.559 7.71527C442.949 7.90919 464.109 11.5563 472.425 12.6905C507.935 17.6475 543.378 23.0675 578.747 28.949L885.677 77.7888L949.43 87.8285C964.087 89.9959 978.686 92.0694 993.324 94.5752C1001.23 95.9286 1002.65 99.8157 1002.03 107.464C1001.01 117.356 999.318 127.198 997.91 137.041C995.177 157.093 992.251 177.119 989.132 197.115L981.589 248.74C980.415 256.545 979.416 264.177 977.977 272.072C976.472 280.324 972.241 281.05 964.262 279.364C950.716 276.503 936.032 275.737 922.679 271.922C916.769 269.137 895.293 247.592 889.135 242.307C877.591 232.4 865.651 220.657 854.396 210.771C834.268 208.014 814.321 204.078 794.174 201.454C791.545 201.111 788.902 200.783 786.291 200.318C780.512 237.616 774.953 274.949 769.614 312.313L737.121 534.764L711.854 700.321L704.586 746.498C703.012 756.082 701.05 765.608 700.013 775.268C699.39 780.984 699.187 784.527 702.951 789.284C715.517 805.168 728.919 820.4 742.136 835.735C748.272 842.855 754.262 849.147 752.346 859.207C750.318 869.855 748.434 880.585 746.761 891.297C745.262 901.098 744.442 911.154 742.176 920.803C740.959 925.986 737.352 928.746 732.049 928.294C724.012 927.609 716.04 926.404 708.054 925.28C690.104 922.641 672.169 919.893 654.253 917.036L559.656 902.495C552.45 901.327 544.378 900.34 537.35 899.084C536.573 898.938 535.799 898.774 535.029 898.593C533.862 886.796 539.209 848.777 541.842 835.387C538.287 832.873 536.693 831.15 535.87 826.694C535.632 825.34 535.437 823.98 535.286 822.614L514.965 818.175C516.331 824.993 517.694 831.69 519.167 838.542C521.182 848.05 525.716 857.15 525.435 867.001C525.268 872.855 522.739 877.115 521.168 882.455C519.359 888.6 518.149 891.067 514.905 896.453C515.905 898.674 517.693 902.991 518.791 904.97C523.515 901.789 530.246 901.818 533.692 907.14C535.686 910.22 533.015 916.681 533.418 919.633C536.162 921.407 539.842 924.44 541.908 926.943C554.391 938.243 566.117 947.878 583.123 951.394C589.894 952.794 597.469 953.8 603.398 957.21C604.363 959.986 605.257 962.786 606.081 965.607C609.021 971.196 607.564 974.595 601.642 977.178C581.589 985.921 557.662 981.255 536.681 979.009C533.481 978.643 522.511 977.587 520.308 977.136C510.529 976.337 502.722 976.45 492.871 976.543C491.66 976.72 489.986 976.72 488.926 976.926C477.065 979.232 467.026 968.105 477.643 958.117C478.092 950.66 478.218 943.187 478.022 935.719C477.808 927.557 468.893 918.655 484.072 914.843C481.42 904.805 482.251 901.84 471.994 897.493C458.802 891.902 466.099 885.179 466.066 875.519L466.059 874.741C447.667 854.859 460.058 855.118 456.437 832.451C454.986 823.365 446.238 806.321 444.372 796.149C441.309 779.452 443.002 764.798 440.962 747.63C441.866 746.093 443.026 744.678 444.119 743.26C439.387 739.232 441.798 736.932 437.812 731.295C431.889 728.775 425.569 726.2 420.051 722.912C414.897 720.035 409.096 714.782 403.698 712.552C383.09 704.042 365.351 698.251 346.314 686.086C338.069 698.462 331.078 708.018 321.118 719.195C314.438 726.356 305.997 733.429 298.353 739.595C290.057 746.286 276.924 763.683 268.5 767.841L263.849 770.185L261.75 775.538C259.242 776.857 256.957 778.16 254.51 779.578C249.261 795.617 244.739 791.04 232.896 798.616C231.724 800.534 229.862 805.378 228.805 806.602C225.01 810.749 220.136 814.62 215.683 818.102C193.646 835.338 176.75 857.643 157.43 877.69C148.596 886.856 134.883 897.885 122.1 900.953C119.278 901.63 115.344 901.58 112.404 901.63C107.736 906.435 103.417 911.566 99.4799 916.986C100.3 918.018 100.999 919.04 101.751 920.118C107.133 927.735 100.552 936.525 101.734 944.438C103.299 954.914 105.252 963.418 105.728 974.152C108.04 977.491 111.092 981.971 113.528 984.987C120.514 993.634 125.935 997.778 123.399 1009.99C123.019 1011.82 122.698 1013.82 122.058 1015.71C121.374 1018.65 119.865 1020.86 118.319 1023.41C113.589 1019.78 105.956 1015.17 100.782 1011.7C90.3169 1004.84 80.3978 997.174 71.1135 988.781C62.5871 980.966 57.6261 972.548 48.6368 963.319C42.7668 957.293 12.3282 940.516 22.0593 927.727C24.6346 925.823 28.0293 923.588 30.633 921.789C42.4651 913.613 48.9804 901.584 58.79 891.672C59.8715 890.58 61.8612 890.546 63.3167 890.758C65.0019 891.783 64.937 891.963 65.874 893.652L66.5477 894.655C77.2332 886.21 81.1503 884.317 91.5164 873.782C78.1571 859.578 91.3387 849.587 102.259 839.608L153.985 792.964C160.85 786.745 168.097 780.67 174.829 774.286C180.109 769.313 180.84 760.585 186.393 755.928C191.122 751.962 197.315 750.952 202.486 747.36C202.408 745.923 202.385 744.298 202.347 742.969C202.142 735.797 208.082 736.693 212.823 734.524C213.848 734.055 215.907 732.016 216.85 731.098C212.198 716.415 221.16 720.829 225.911 713.07C231.173 704.476 235.922 695.89 241.643 687.384C251.091 673.336 262.402 659.822 270.267 644.892C269.474 641.395 268.91 637.849 268.58 634.277C266.917 614.167 274.862 597.844 287.766 582.735C285.482 580.596 283.26 578.575 281.34 576.305C271.312 564.447 282.758 553.186 287.172 542.086C287.523 541.202 287.93 537.313 288.055 536.11C287.203 533.992 286.648 532.428 284.22 532.49L284.272 531.582C285.54 531.16 285.008 531.517 285.744 530.291C285.872 527.4 285.444 523.562 284.043 520.972L283.233 519.413C283.133 515.39 276.773 505.001 272.51 505.003C272.399 505.911 272.221 507.875 271.993 508.664L271.479 508.657C269.129 506.912 267.363 504.225 265.598 501.852C264.836 502.285 264.079 502.726 263.327 503.175C261.179 504.48 261.014 504.133 260.598 505.888L260.229 506.576C259.835 505.733 259.623 505.272 259.292 504.395C258.555 505.581 258.03 506.375 257.46 507.672C255.975 508.255 254.983 508.103 253.395 508.072C261.157 504.929 255.912 499.687 259.231 494.629C262.963 488.941 265.986 488.853 270.141 482.006C272.538 478.003 274.934 477.238 279.261 476.103C278.499 464.985 285.105 468.701 290.745 462.989C295.215 458.462 298.949 451.15 303.251 446.275C308.531 439.345 314.933 433.285 320.403 426.64C318.035 416.414 313.982 414.54 310.579 405.711C313.527 394.498 316.695 390.047 325.222 382.041C323.971 378.774 323.499 377.04 322.666 373.639C329.46 351.702 348.893 351.177 367.982 351.153C360.289 338.135 355.201 327.942 358.947 312.094C364.632 288.043 399.416 270.109 422.572 274.976C432.549 277.073 442.707 291.927 447.922 300.015C450.715 304.312 449.86 307.685 448.692 312.166C450.328 313.692 451.856 314.978 453.557 316.408C456.36 318.766 461.892 320.51 462.651 324.236C462.095 327.288 458.966 328.585 456.472 330.114C458.208 331.844 460.751 334.563 460.773 337.167C460.794 339.578 458.381 341.381 459.503 343.8C460.839 346.677 462.086 349.259 462.645 352.406C467.537 350.443 470.206 346.472 475.685 346.045C476.856 345.954 478.865 345.644 480.039 345.437L483.951 341.935L490.575 344.422C491.759 342.58 492.115 341.675 493.895 340.527C495.62 340.233 495.84 340.318 497.541 340.455C501.911 338.546 502.863 334.649 509.394 333.181C522.53 315.347 542.99 301.205 560.173 287.221C574.701 275.399 587.743 264.837 600.423 250.926C604.026 246.973 609.882 241.86 612.153 237.137C614.875 231.473 614.056 225.275 614.732 219.335C615.287 214.464 616.682 209.758 616.895 204.733C616.982 202.693 617.112 199.302 618.773 198.018C624.658 198.952 624.492 212.549 624.477 216.923C626.078 215.079 626.902 214.16 628.165 212.091C627.187 202.967 628.834 186.455 630.616 177.248C621.509 175.653 566.337 167.447 561.08 168.519C555.254 169.707 549.385 173.647 543.979 176.098C532.236 181.421 467.949 212.091 460.732 212.455C451.257 212.934 434.201 208.746 424.267 207.057C418.426 206.064 406.435 206.296 402.779 201.318C400.992 198.885 401.414 195.483 401.713 192.647C402.819 182.143 405.274 171.621 407.032 161.202C409.527 146.408 411.619 131.476 413.865 116.638L424.459 45.9556C425.826 37.0084 427.328 19.452 430.29 11.4795C432.493 9.46135 432.923 9.08408 435.559 7.71527ZM35.6882 925.553C36.3456 933.423 34.097 941.081 44.5438 941.907C53.0596 941.444 57.1493 943.566 61.9989 950.786C59.8782 951.125 59.3714 951.057 57.7061 952.466C56.0474 953.869 55.1184 953.017 53.1348 953.254C55.552 954.204 60.1309 955.533 61.6984 956.853C61.5176 959.411 58.2233 959.717 56.0738 960.369C65.8464 972.348 77.9662 987.367 90.8923 995.897C92.2121 996.865 93.5451 997.814 94.891 998.745C95.806 1000.28 98.3423 1002.27 100.106 1001.17L101.002 1001.48C101.951 1004.69 112.911 1010.43 116.293 1011.95C116.28 1011.74 115.798 1010.39 115.713 1010.14L116.72 1009.06C128.191 1006.29 115.562 988.635 109.818 985.896C109.087 985.548 108.351 986.253 107.653 986.616C103.014 990.186 100.892 991.758 94.8176 992.303L94.6331 991.897C95.0909 991.567 94.8354 991.804 95.2647 991.065C93.948 989.401 93.4588 989.455 91.9726 988.425C87.3584 985.225 77.2469 977.34 74.6563 972.156C69.9196 962.679 67.4352 945.581 65.3437 934.909C62.3312 933.864 60.8675 933.672 59.3733 930.999C59.1606 928.637 59.3018 920.87 59.1402 920.274C57.9305 919.735 57.1942 919.36 55.915 918.976C54.3296 920.349 53.8887 923.834 53.5277 925.932C54.35 928.155 55.1185 930.357 56.1103 932.511C56.2963 932.948 56.1976 932.645 56.2246 933.458L54.7792 933.383C51.4722 931.189 50.7911 927.099 49.0262 923.174C47.9682 919.776 49.9017 915.279 47.2995 913.861L45.2325 914.598C44.3062 921.105 42.016 923.469 35.6882 925.553ZM518.578 967.906L519.784 967.588C520.793 965.467 520.232 965.819 521.943 964.955C525.312 964.938 526.015 966.436 527.619 969.168C532.544 970.455 534.515 970.786 539.589 971.233C541.745 971.453 543.204 971.626 545.357 971.585C551.054 972.254 575.061 972.471 580.085 971.131C581.355 965.624 588.359 968.162 591.074 965.749C594.049 965.131 596.396 965.379 599.375 965.97C600.593 965.693 601.365 965.287 602.513 964.799C601.754 962.678 602.721 960.162 600.582 958.692C598.66 957.372 595.228 959.454 593.683 958.979C586.561 956.789 581.377 953.308 573.73 952.57C572.076 953.3 573.657 953.872 572.249 955.699C572.223 954.642 572.207 954.487 571.983 953.455C570.697 952.385 569.369 952.333 567.691 952.008C567.585 953.608 567.698 953.321 568.418 954.937C571.857 956.647 574.149 958.533 577.328 960.551L578.196 962.443C576.686 965.639 571.007 965.908 567.729 966.478C561.07 966.794 556.582 966.584 549.932 966.268C534.534 962.563 525.35 957.545 512.786 947.433C509.045 944.423 505.33 940.263 501.606 937.27C499.012 935.185 493.01 933.319 490.502 930.535C488.015 927.776 486.888 920.61 484.841 918.045C483.026 917.87 482.901 917.695 481.319 918.638C477.712 924.162 486.652 941.641 493.029 943.523C504.193 946.818 509.178 951.487 510.279 963.627C512.329 965.655 515.817 966.814 518.578 967.906ZM99.7477 977.066C100.166 976.654 100.749 976.165 100.698 975.514C99.3997 958.624 93.1318 941.021 96.2601 923.987C96.834 920.863 97.2102 922.438 96.2298 918.426C92.4556 914.518 89.6968 912.915 84.5443 915.158C81.9534 914.918 77.5185 917.117 75.8032 918.741C75.325 919.194 72.2852 918.837 70.2183 920.392L70.1364 921.153C73.8354 922.936 82.1673 920.556 85.9513 919.247L86.4648 918.501C90.4538 924.687 96.4379 921.472 93.3842 931.381C89.9179 942.629 93.9161 963.168 98.2893 973.908C98.7329 974.98 99.2194 976.033 99.7477 977.066ZM295.813 488.995C295.531 481.55 304.112 465.899 303.481 461.398L302.822 461.343C298.166 467.912 296.539 473.845 292.74 479.879C289.745 480.413 288.794 477.038 286.123 475.834C285.869 477.088 286.202 477.611 286.609 478.85L285.98 479.389C282.065 477.548 281.552 480.899 279.261 476.103C274.934 477.238 272.538 478.003 270.141 482.006C265.986 488.853 262.963 488.941 259.231 494.629C255.912 499.687 261.157 504.929 253.395 508.072C254.983 508.103 255.975 508.255 257.46 507.672C258.03 506.375 258.555 505.581 259.292 504.395C259.623 505.272 259.835 505.733 260.229 506.576L260.598 505.888C261.014 504.133 261.179 504.48 263.327 503.175C264.079 502.726 264.836 502.285 265.598 501.852C267.363 504.225 269.129 506.912 271.479 508.657L271.993 508.664C272.221 507.875 272.399 505.911 272.51 505.003C276.773 505.001 283.133 515.39 283.233 519.413L284.043 520.972C285.444 523.562 285.872 527.4 285.744 530.291C285.008 531.517 285.54 531.16 284.272 531.582L284.22 532.49C286.648 532.428 287.203 533.992 288.055 536.11C289.013 525.607 284.996 517.977 291.021 507.897C292.051 506.175 293.231 501.085 293.719 499.013C292.799 496.985 293.75 494.452 294.295 492.063L295.813 488.995ZM489.606 967.549C486.798 966.62 485.49 966.187 482.79 964.802C481.145 964.348 480.168 964.165 478.66 963.317C475.37 966.387 478.97 974.028 485.927 971.262L486.525 970.253L489.606 967.549ZM54.8238 958.432C55.1091 957.534 55.0425 957.709 55.1105 956.757C54.1968 955.883 53.7186 955.435 52.9321 954.438L52.3702 953.717C50.1235 949.681 43.8599 945.963 40.0426 943.528C38.4726 942.385 37.4206 941.649 35.756 940.66L34.5886 941.225C41.3946 947.823 49.5374 953.227 54.8238 958.432ZM32.6146 927.258C30.1226 926.078 27.4174 924.491 25.7534 927.449C25.7951 931.978 28.6444 935.083 31.4223 938.32C32.0346 934.986 33.4354 930.21 32.6146 927.258ZM559.995 950.749C559.842 948.346 560.356 945.572 557.827 944.489C556.227 944.951 555.225 945.471 553.703 944.914C551.985 943.636 551.66 941.12 551.02 938.907L550.314 938.596C548.958 939.616 548.443 941.08 547.656 942.633C552.36 947.107 557.661 948.507 559.995 950.749ZM532.942 930.725C534.976 932.179 538.096 935.405 539.967 935.512C540.1 933.069 540.465 929.797 539.031 927.836C536.869 928.203 535.193 928.252 533.446 929.506L532.942 930.725ZM524.988 922.42C525.93 920.854 525.981 918.312 524.576 916.915C523.47 915.814 522.317 916.207 520.854 916.291C520.353 918.711 520.052 918.255 520.866 920.1C522.302 920.83 523.743 921.44 524.988 922.42ZM547.397 942.382C548.009 939.844 548.958 937.961 547.209 935.88C545.473 935.612 545.321 935.831 543.693 936.455C544.037 940.319 544.128 940.311 547.397 942.382ZM563.325 951.799C564.961 951.609 564.835 951.765 566.292 951.129C566.421 949.442 566.579 950.249 565.591 948.679C564.067 947.797 564.009 947.924 562.296 947.998C560.985 949.068 561.345 949.178 560.838 951.271C562.078 951.675 562.159 951.891 563.325 951.799ZM677.751 71.5003L685.049 72.3876C687.686 68.6143 690.407 64.699 695.294 64.2579C704.883 63.3922 708.483 70.7276 710.448 78.0695L768.73 88.0005C776.258 89.2668 792.411 91.5609 799.272 93.5186C802.456 90.0687 806.116 86.0878 811.2 86.374C828.404 87.3424 828.21 113.851 809.868 112.14C802.837 111.484 800.538 106.992 798.861 100.552C784.166 97.1463 765.076 94.6481 749.986 92.0998C738.929 90.2325 717.945 86.3004 707.121 85.7701C703.987 88.0705 701.639 88.9901 698.08 90.5072C696.144 110.643 691.344 132.378 689.078 152.995C685.375 189.272 681.267 225.506 676.754 261.691C674.649 277.976 672.696 294.376 669.668 310.519C665.696 314.876 659.043 319.038 654.39 322.761C645.345 329.999 633.433 337.997 624.818 345.493C623.306 352.152 620.091 372.428 620.053 378.883C629.276 373.104 643.71 361.304 652.261 354.422C661.394 347.072 670.786 340.574 679.785 333.55C681.32 327.167 682.439 318.416 683.497 311.715C685.644 298.676 687.632 285.611 689.459 272.524C693.216 247.142 697.637 221.65 701.604 196.325L705.232 172.603C705.878 168.177 706.518 162.133 707.58 157.92C702.739 154.057 701.219 151.542 699.84 145.573C700.974 140.986 702.293 137.097 706.603 134.559C713.1 130.733 721.734 134.536 724.814 140.863C726.3 143.964 726.461 147.536 725.261 150.759C723.462 155.493 718.962 157.978 714.229 158.922C712.577 175.089 709.032 195.517 706.496 211.811L695.492 283.102C692.552 301.817 689.67 318.596 687.336 337.465C684.621 339.927 681.379 342.225 678.369 344.346C666.056 353.022 654.414 362.512 642.455 371.644C634.205 377.944 625.87 383.468 618.2 390.565C616.962 399.321 615.799 408.328 614.228 417.01C627.565 423.616 639.989 430.934 653.764 436.876C658.65 430.128 665.514 426.019 673.278 431.778C676.074 433.837 677.864 436.986 678.204 440.442C678.592 444.2 677.368 447.945 674.837 450.75C673.332 452.422 670.916 453.778 668.979 454.914C666.81 470.237 664.354 485.519 661.614 500.751C660.565 506.618 659.519 514.618 658.111 520.17C651.198 525.865 635.092 532.888 626.725 538.18L611.105 632.625L602.262 683.727C600.88 691.513 598.986 700.171 597.814 707.886C608.457 731.874 607.648 727.501 603.376 753.476C601.189 766.961 598.919 780.432 596.567 793.889C595.001 802.569 592.9 811.849 591.942 820.516C593.246 821.792 595.936 824.203 596.731 825.701C602.233 836.066 597.345 842.954 587.781 846.554C586.338 853.025 585.763 859.458 584.508 865.811C590.714 866.607 611.506 869.855 616.738 871.802C624.311 881.406 629.478 892.212 636.223 901.785C639.659 902.235 657.508 905.464 659.089 905.038C672.035 901.554 687.147 894.972 699.525 889.313C700.866 885.264 701.337 883.266 702.114 879.052C698.412 877.448 696.801 876.528 695.257 872.677C694.801 871.527 694.365 870.369 693.95 869.204C684.501 867.11 654.454 862.806 648.432 860.086C636.891 844.873 627.461 826.224 616.698 810.311C615.014 807.822 613.024 804.595 611.619 801.971C612.113 793.863 614.036 782.937 615.245 774.662C618.069 755.34 620.786 734.625 624.359 715.533C621.078 713.439 617.003 709.601 616.507 705.684C614.909 693.052 625.021 689.166 634.892 689.492C643.798 681.664 653.892 675.396 663.622 668.657C668.429 665.328 677.111 660.016 680.984 655.916C684.319 634.051 687.28 610.601 691.148 588.88C687.712 586.326 685.345 583.233 684.756 578.864C684.33 575.812 685.22 572.722 687.204 570.365C689.689 567.374 692.52 566.283 696.173 565.227C697.667 560.309 698.429 552.76 699.195 547.508L703.347 520.282L718.37 421.98C714.235 418.419 712.652 416.511 710.172 411.489C707.387 413.863 705.643 415.22 702.2 416.803C700.333 425.015 698.917 434.931 697.47 443.327L691.259 477.928C685.646 509.309 679.71 540.632 673.449 571.891L667.853 600.109C667.135 603.725 666.242 609.41 665.343 612.827C659.471 616.86 646.786 620.166 639.934 624.431C639.185 628.539 638.14 633.524 637.711 637.604C644.1 642.597 648.593 649.336 642.334 657.129C631.847 670.188 610.648 653.07 623.071 640.307C625.289 637.949 628.33 636.683 631.247 635.29C632.75 621.622 635.664 607.932 638.175 594.388C640.445 582.147 642.231 569.583 644.779 557.455C652.767 552.102 663.689 548.631 671.581 543.523C677.227 511.676 683.145 479.878 689.335 448.132C690.91 440.127 692.929 423.804 694.963 416.949C691.027 413.654 688.018 410.8 687.522 405.219C687.199 401.712 688.307 398.222 690.595 395.544C695.198 390.255 702.641 390.413 707.759 394.928C709.467 396.435 711.394 400.195 712.465 402.281C716.037 398.85 719.386 396.203 724.747 396.454C728.303 396.645 731.631 398.261 733.98 400.937C736.506 403.803 737.591 407.708 737.161 411.48C736.797 414.946 734.989 418.097 732.18 420.16C730.257 421.586 729.006 421.914 726.758 422.5L725.949 422.715C722.899 435.176 721.159 450.254 719.472 462.998C714.881 497.67 708.428 532.171 703.423 566.739C715.774 574.576 711.378 588.318 698.201 590.771C694.712 610.107 691.231 632.66 688.595 652.147C693.072 649.67 704.401 641.739 708.676 638.236C711.265 625.137 712.938 608.505 715.137 594.893C722.99 545.689 730.363 496.41 737.254 447.061C740.057 427.577 743.458 407.78 746.076 388.264C747.779 375.574 751.686 357.386 752.325 345.037C749.415 342.966 743.949 336.618 741.154 333.589L725.708 317.098C723.287 314.516 715.974 307.405 714.2 305.137C715.056 298.502 716.227 291.816 717.354 285.218C724.105 245.697 729.14 205.907 736.23 166.448C736.979 162.281 737.659 158.151 738.192 153.949C769.029 159.483 800.754 163.738 831.372 170.143C836.963 166.334 847.589 154.785 854.162 149.473C862.928 149.597 878.903 152.55 888.312 153.958L955.209 164.164C961.746 165.167 975.572 167.821 981.405 168.018C981.906 161.722 982.681 157.361 983.943 151.177C973.56 149.568 962.973 147.268 952.608 145.375C942.507 143.53 932.234 141.857 922.248 139.541C918.034 145.658 910.427 148.862 903.845 144.275C900.913 142.218 898.946 139.056 898.395 135.518C896.691 124.046 908.189 116.077 918.106 122.919C921.059 124.956 922.757 129.562 923.993 132.887C942.058 136.181 960.144 139.251 978.103 143.085C980.486 143.593 982.71 144.02 985.152 144.167C985.771 138.659 986.349 132.017 987.331 126.646C973.927 124.878 961.252 122.542 947.986 120.424C932.303 118.071 916.643 115.571 901.008 112.924C889.115 110.848 865.974 106.056 854.831 105.29L834.351 125.12C829.617 129.79 823.736 136.418 818.309 139.992C808.394 146.523 796.787 141.309 795.323 129.53C769.047 124.59 742.174 120.458 715.836 115.875C716.081 112.614 716.199 110.91 716.896 107.7C740.627 111.374 764.077 116.73 787.76 120.694C790.84 121.209 793.901 121.919 797.011 122.236C807.274 112.619 815.031 115.11 821.814 126.735C832.018 118.615 843.313 106.605 852.963 97.3411C872.132 100.789 891.337 103.634 910.507 106.882L988.191 120.163C989.456 114.751 989.908 111.21 990.313 105.642C977.166 103.358 963.665 101.956 950.455 99.9921C937.901 98.1253 925.402 96.0975 912.838 94.2408C912.263 94.0351 907.576 93.4208 906.66 93.2891C878.01 88.9136 849.39 84.3372 820.804 79.56L737.51 66.8183L692.897 59.8295C683.433 58.3679 676.251 56.4664 666.554 56.1591C674.244 60.9457 675.589 62.6088 677.751 71.5003ZM620.25 534.227C629.116 528.667 644.175 521.913 651.559 516.093C653.623 508.454 654.791 499.457 656.075 491.542L662.068 454.649C656.681 451.911 655.535 449.92 652.693 444.728C640.714 438.618 624.601 429.846 612.615 424.758C611.533 440.045 608.441 456.501 606.367 471.738C601.958 505.42 597.172 539.052 592.012 572.628L561.743 779.946C554.662 783.315 542.926 787.172 535.275 790.064C529.977 792.067 517.121 797.159 512.082 798.448C512.638 803.416 513.032 806 514.198 810.823C522.29 812.546 531.237 814.879 539.128 816.406C543.411 813.851 546.775 812.172 552.099 813.465C555.462 814.255 558.344 816.409 560.055 819.41C561.747 822.453 562.051 826.076 560.89 829.358C558.824 835.305 554.222 836.509 548.718 837.225C547.75 843.118 545.62 854.332 545.392 859.863C551.437 860.288 558.251 861.607 564.325 862.566C569.316 863.576 572.696 864.011 577.756 864.533C578.659 859.109 579.781 851.095 580.998 845.91C576.628 843.648 573.065 841.365 571.413 836.311C570.36 833.032 570.63 829.471 572.166 826.389C573.655 823.438 576.621 820.802 579.808 819.833C581.182 819.428 582.566 819.057 583.957 818.719C585.289 813.809 585.895 809.104 586.924 804.177C592.026 779.749 594.88 754.201 599.85 729.831C597.466 724.422 592.037 712.909 590.464 707.71L613.524 574.166C615.808 561.426 617.594 546.493 620.25 534.227ZM695.009 833.796C695.603 834.407 696.422 835.273 697.279 835.442C707.439 837.446 720.061 839.837 730.208 841.073C728.539 837.541 725.173 834.15 722.612 831.126C716.515 823.878 710.363 816.675 704.159 809.518C698.81 803.369 686.299 791.226 687.483 782.8C693.786 737.945 700.566 693.143 707.182 648.345C707.03 648.215 706.878 648.085 706.726 647.955C697.239 653.328 685.129 662.806 675.72 669.024C671.304 671.943 659.056 680.152 655.778 683.017C660.392 691.668 665.139 700.248 670.018 708.752C668.57 721.814 666.123 735.414 663.945 748.423C662.121 759.312 660.439 771.827 658.163 782.484C664.735 788.335 666.089 790.388 664.321 799.379C669.722 805.491 675.166 811.563 680.653 817.597C685.273 822.617 690.921 828.392 695.009 833.796ZM649.419 686.958C645.542 689.103 643.563 690.402 639.976 693.039C648.148 704.318 643.927 712.365 631.497 716.974C625.622 743.064 623.889 772.422 618.703 799.005C625.517 811.45 634.162 824.746 641.649 836.851C644.365 841.242 650.189 851.137 652.874 854.751C666.926 857.105 680.952 859.612 694.949 862.273C697.734 858.76 700.646 856.132 705.299 855.535C708.771 855.087 712.274 856.094 714.978 858.318C720.17 862.592 720.844 869.759 716.528 874.864C714.096 877.741 711.608 878.744 708.267 880.165C707.459 883.575 706.759 887.009 706.168 890.463C716.272 895.86 717.233 903.912 710.416 912.749L710.281 913.282L711.186 913.635L710.426 913.106C712.56 914.015 727.244 915.904 730.202 916.117C732.327 907.609 733.086 898.278 734.671 889.537C736.348 878.721 738.367 868.417 739.768 857.521C740.581 851.196 739.029 850.56 732.939 848.637C722.725 845.412 698.924 845.579 691.044 839.638C685.693 835.603 678.99 824.452 673.293 819.69C668.512 814.617 664.218 809.177 659.176 804.316C653.036 807.32 644.588 806.185 641.496 799.486C640.048 796.3 639.992 792.656 641.34 789.427C643.341 784.658 646.98 782.651 651.402 780.586C652.971 773.614 653.966 766.248 654.89 759.146C657.034 742.675 660.579 726.339 662.573 709.879C660.551 706.313 651.021 688.461 649.419 686.958ZM523.828 73.5689C526.885 76.6685 529.168 79.4733 529.261 84.1791C529.313 87.1936 528.081 90.0881 525.873 92.1406C521.607 96.1676 517.187 95.7854 511.923 95.5448C508.45 97.8622 505.492 100.879 502.236 103.404C493.154 110.445 483.533 119.677 474.314 126.219L467.878 169.001C466.505 177.922 464.39 189.896 463.993 198.786C477.525 193.896 497.252 184.285 510.409 177.991C516.617 175.161 523.365 172.222 529.369 169.088C531.461 162.877 532.976 150.36 534.08 143.546C535.733 133.34 537.538 122.486 538.773 112.224C548.992 114.38 558.799 115.482 569.062 117.878C572.99 113.932 575.267 112.212 581.168 112.147C581.986 112.14 582.803 112.149 583.62 112.171C585.176 101.045 586.988 89.9561 589.054 78.9131C590.068 73.496 591.753 66.0225 592.385 60.714C577.949 59.8037 560.216 55.6756 545.551 53.8807C539.391 53.1267 533.04 51.5733 526.706 51.4092C526.328 58.8445 524.755 66.1206 523.828 73.5689ZM753.612 336.594C754.548 328.469 756.089 319.89 757.258 311.702L766.659 248.508C769.012 233.196 771.864 206.035 776.32 190.607C777.966 184.91 794.127 189.556 800.032 190.155C816.914 193.002 844.243 196.149 860.194 200.975C864.009 202.129 884.411 221.699 888.95 225.939C896.973 233.44 905.074 240.858 913.252 248.19C922.026 256.177 925.18 261.254 937.625 261.949C939.042 254.22 941.125 243.375 941.832 235.622C940.225 233.953 937.287 231.053 935.959 229.361C934.703 223.443 935.149 221.101 937.98 215.839L925.113 202.025C920.216 202.513 917.003 202.084 912.941 199.33C902.609 192.322 909.033 176.644 920.216 176.734C934.46 176.85 935.361 188.084 931.424 198.073C935.012 202.764 939.059 207.225 942.961 211.67C948.59 211.714 954.525 211.646 958.332 216.335C966.921 226.916 958.403 234.731 948.627 237.789C948.334 245.023 945.889 256.546 944.52 263.874C951.725 265.419 959.059 265.994 965.989 267.801C967.701 260.862 968.649 253.148 969.711 246.027C971.393 235.372 972.938 224.695 974.346 214.001L978.232 187.023C978.779 183.316 979.776 178.294 980.084 174.7C953.71 170.534 926.725 167.069 900.353 162.958L871.987 158.422C868.873 157.931 859.764 156.405 856.89 156.46C850.746 161.712 839.287 174.023 833.744 177.588C825.3 175.515 813.297 173.871 804.426 172.36L744.234 162.271C741.67 174.112 740.109 188.242 738.026 200.396C732.202 234.395 727.834 268.875 721.766 302.837C726.6 307.986 731.558 313.42 736.486 318.446C737.537 313.153 738.438 306.796 739.039 301.383C740.244 290.543 743.309 279.076 744.418 268.376C739.322 265.057 737.716 261.906 736.442 256.189C739.978 240.844 755.402 239.18 762.44 252.289C762.777 262.81 762.186 266.552 751.528 269.903C750.61 278.463 748.588 288.742 747.134 297.33C745.717 305.701 744.291 316.06 742.066 324.07C745.771 328.375 749.622 332.552 753.612 336.594ZM492.122 925.228C496.842 925.525 511.183 923.069 513.747 919.116L513.655 918.61C513.307 916.606 513.265 916.465 513.522 914.499C513.136 913.984 513.078 913.755 512.583 913.465C509.062 915.93 505.021 918.97 501.107 920.692C497.767 922.162 493.903 921.568 490.357 923.214L490.346 923.821C490.842 924.219 491.627 924.893 492.122 925.228ZM484.908 942.021C483.083 944.393 482.543 953.458 484.139 955.866C486.948 957.205 499.819 961.873 502.229 961.166C504.821 958.677 504.354 958.011 504.179 954.317C501.111 951.303 488.839 943.837 484.908 942.021ZM669.182 552.522C663.762 555.151 657.268 558.622 651.916 560.978C649.674 567.958 647.647 581.589 646.305 589.263C644.928 597.143 642.815 606.852 641.771 614.523L642.141 615.196L642.291 615.238C648.117 612.72 653.53 610.522 659.366 608.133C661.488 595.485 663.729 582.858 666.09 570.252C667.101 564.976 669.045 557.577 669.686 552.708L669.182 552.522ZM492.102 65.3837L467.859 78.3787C464.449 80.1999 458.05 83.8078 454.626 85.1459C451.765 105.839 448.746 126.51 445.568 147.156C443.089 163.95 440.897 180.638 437.813 197.373C444.809 198.024 449.447 199.413 455.683 200.182L463.3 151.342C464.046 146.346 466.542 126.08 468.076 122.396C477.414 114.76 486.25 107.064 495.485 99.3576C497.849 97.3847 503.625 92.4979 505.974 90.9604C504.479 79.8208 504.447 74.4274 516.936 71.0847C518.5 62.6904 519.92 52.2913 521.183 43.7314C528.339 43.8093 534.565 45.4526 541.509 46.1352C558.372 47.7928 576.589 52.6236 593.21 54.1689L595.381 44.1471C580.434 40.7716 561.244 38.4975 545.859 35.9668C535.98 34.2732 526.082 32.6953 516.167 31.2334C511.161 30.4586 503.423 29.0555 498.507 28.8684C497.201 37.1263 494.306 58.3473 492.102 65.3837ZM414.101 192.959C419.38 194.023 424.938 195.24 430.232 196.081C432.579 187.301 433.5 174.333 435.355 164.657L444.031 107.057C445.395 98.4586 446.39 89.607 448.335 81.1466C457.115 76.317 479.453 64.7272 486.178 59.664C488.84 49.2023 489.463 37.5439 492.132 28.0076C477.61 24.8673 462.412 23.3617 447.747 20.8875C445.555 20.5177 442.854 19.996 440.676 19.9255L422.858 137.475L416.781 175.748C415.953 180.989 414.618 187.817 414.101 192.959ZM469.581 675.632C467.722 674.457 462.232 671.351 460.977 670.408C453.329 666.175 424.017 651.642 415.542 653.365C416.058 655.078 434.647 664.059 437.244 665.53C453.533 674.756 473.031 686.324 486.055 699.828C483.034 698.463 472.397 695.517 469.901 696.396C469.668 697.583 469.604 697.009 470.334 698.116C473.269 699.617 476.407 700.843 479.163 702.342C484.78 705.397 490.13 709.612 495.165 713.568C487.531 716.293 482.107 717.547 474.21 719.145C481.91 722.031 488.056 725.294 494.402 730.537C488.37 739.624 484.661 746.252 483.081 757.306C482.349 762.427 480.963 766.421 482.164 771.717L482.678 771.949C484.102 769.051 484.315 766.766 485.226 763.683C487.195 757.018 489.241 751.239 493.516 745.719C496.346 760.623 497.818 776.064 500.623 791.011C501.359 794.934 499.584 805.195 500.414 807.821C501.847 809.102 502.21 809.368 503.292 810.917C506.117 815.078 508.299 829.496 511.528 831.354L512.18 830.943C512.716 828.149 509.498 812.361 509.008 808.199C507.178 792.94 505.186 777.437 504.263 762.097C503.387 747.542 505.125 734.846 502.016 720.432C500.513 713.465 505.015 712.709 499.158 702.618C476.645 663.83 440.118 632.219 405.502 604.329C399.307 599.338 387.707 590.447 379.773 590.583L379.539 591.015C380.571 592.713 386.029 596.806 387.987 598.475L411.294 618.126C416.147 622.155 421.258 626.078 425.818 630.407C419.334 628.498 392.237 617.174 386.934 620.817C386.954 621.193 386.975 621.568 386.995 621.944C390.212 623.651 394.175 625.226 397.622 626.396C424.266 635.438 442.164 647.863 462.295 667.204C465 670.136 467.157 672.484 469.581 675.632ZM494.712 344.764C493.983 350.708 494.34 356.19 498.32 361.021C500.287 363.41 510.575 375.842 512.661 376.263L513.609 375.922C513.835 373.715 497.741 346.634 494.712 344.764ZM401.434 504.134C402.257 491.107 401.867 479.165 400.782 466.219C400.509 462.954 401.051 458.231 401.023 454.683C401.163 452.256 401.534 448.974 401.069 446.679L399.558 442.594C397.706 446.9 396.16 455.456 395.848 460.268C394.64 467.659 393.581 482.209 393.965 489.735C393.921 493.838 393.766 498.456 393.955 502.513C393.938 505.816 392.603 533.962 392.906 534.828L393.771 535.174C396.699 533.597 401.204 508.776 401.434 504.134ZM55.1022 902.366C56.8216 908.468 57.3657 911.429 56.1571 917.906C57.3097 918.829 57.3112 918.639 58.8512 919.074C61.452 916.682 61.7638 904.028 61.7812 900.253C61.7835 898.882 61.2931 897.555 60.3993 896.515C60.0791 896.149 59.7982 896.011 59.4081 895.774C56.9526 898.394 56.5509 899.086 55.1022 902.366ZM689.29 901.539C683.531 903.026 678.426 905.226 672.981 907.595L677.827 908.986C682.734 909.715 685.997 909.977 690.964 910.205C690.763 908.477 690.461 902.649 689.748 901.614L689.29 901.539ZM422.098 501.807C419.299 512.538 414.915 522.797 411.133 533.236C408.165 541.478 405.652 549.877 403.605 558.395C402.598 562.858 401.898 565.073 401.928 569.735L402.298 570.237C403.982 567.407 404.967 564.416 406.187 561.351C407.935 557.417 409.61 553.451 411.212 549.456C416.897 535.109 421.113 519.029 425.396 504.153C427.112 498.196 423.642 488.679 424.501 481.499C425.507 473.096 438.313 432.713 435.7 426.655L436.113 426.686L435.949 426.421C433.101 428.626 421.78 467.064 419.165 473.144C415.356 481.997 419.637 492.947 422.098 501.807ZM391.535 539.786C390.686 541.791 389.649 544.984 390.123 547.135L390.602 547.503C391.545 545.24 392.431 543.679 392.451 541.247C392.041 540.411 392.157 540.41 391.535 539.786ZM475.292 370.001C474.575 370.384 473.866 370.704 473.098 370.971L472.895 371.357C472.951 372.614 473.144 376.003 472.747 376.999C469.017 386.384 458.034 396.121 451.405 403.862C460.038 399.548 475.625 391.873 476.967 381.501C477.242 379.37 476.493 371.648 475.292 370.001ZM675.566 77.5288C671.417 81.6869 670.725 81.5789 665.038 83.5817C664.464 86.0831 664.123 88.2035 663.732 90.7189C669.799 95.6914 673.774 102.563 668.806 110.073C667.046 112.746 664.283 114.597 661.142 115.208C656.543 116.115 653.126 114.528 649.401 112.107C642.139 118.129 633.28 124.193 625.479 129.478C625.516 139.12 621.91 141.676 613.301 143.779C608.156 142.311 603.691 140.485 601.616 135.009C600.544 132.193 600.682 129.059 601.997 126.347C603.705 122.811 607.584 120.09 611.209 118.811L618.027 77.0266C614.797 74.5195 613.631 73.4358 611.6 69.9033C611.204 62.6554 612.246 55.5719 620.747 53.8244C624.556 53.0618 628.511 53.8839 631.7 56.1012C641.43 62.881 636.545 76.3665 624.653 78.0927C622.893 90.1715 620.673 108.212 617.828 119.57C619.559 121.377 621.006 122.198 623.074 123.568C630.687 117.892 637.885 112.158 645.706 106.435C644.362 96.2373 647.302 92.4771 657.172 89.3708C657.503 87.0803 657.819 84.7878 658.121 82.4933C645.538 72.4239 650.784 61.2803 664.16 55.8064C657.537 53.9028 645.824 52.34 638.621 51.2011C627.726 49.4785 612.998 45.9048 602.279 45.3341C600.647 51.0465 599.785 59.9998 598.648 66.313C595.564 82.5442 592.666 98.8103 589.955 115.108C594.967 123.05 595.111 132.497 584.681 135.552C581.376 136.554 577.807 136.192 574.77 134.546C570.786 132.341 568.763 128.819 567.567 124.571C561.018 122.702 551.368 121.038 544.581 119.81C543.616 134.266 539.066 150.88 537.57 165.353C544.728 162.57 552.457 157.566 560.021 156.376C566.048 155.428 629.455 164.198 636.642 166.134C639.572 166.923 640.89 169.508 642.293 171.947C642.332 177.352 641.078 185.308 639.733 190.65C638.826 194.252 635.855 197.79 635.968 201.492L636.527 201.905C640.749 199.245 648.918 183.34 654.256 183.41L655.081 184.258C655.5 186.257 654.894 187.449 654.292 189.501L656.581 189.389C658.493 190.179 658.449 190.079 659.709 191.673C660.466 194.202 660.019 195.157 658.804 197.537L659.9 199.029C661.579 199.144 661.674 199.018 663.034 200.069C664.02 202.753 662.701 204.226 661.191 206.463L662.538 207.708L663.629 208.29C663.795 208.77 663.98 209.215 664.014 209.734C664.273 213.613 643.134 233.188 639.039 237.336C638.217 241.308 637.593 248.928 637.076 253.25C635.894 262.922 634.653 272.587 633.351 282.243L628.713 314.294C627.726 320.799 626.231 328.839 625.894 335.245C630.923 332.257 638.307 325.761 643.23 322.06C649.884 317.058 656.684 312.086 663.263 307.011C674.661 235.592 678.628 160.258 691.402 89.1818C687.743 86.3405 685.99 82.7248 683.772 78.7314L675.566 77.5288ZM491.049 398.371C490.162 396.404 484.149 394.477 482.664 391.463C482.507 391.144 482.316 391.043 481.905 390.734C481.934 394.352 481.579 395.885 483.874 398.647C485.941 399.82 489.045 399.578 491.049 398.371ZM550.871 770.855C553.087 758.977 554.761 744.751 556.653 732.575C561.351 703.505 565.813 674.397 570.038 645.254L611.559 350.056L620.964 281.485C621.909 274.998 625.78 253.787 625.367 248.535C613.122 256.782 591.032 298.539 582.142 312.366C573.296 326.124 564.199 338.733 553.647 351.568C549.508 356.603 545.079 362.677 540.533 367.462C535.963 372.272 529.625 372.937 524.161 376.913C518.296 381.18 517.317 388.746 512.665 392.201C510.686 393.671 504.56 394.604 500.521 396.731C499.559 398.612 498.223 401.686 496.442 402.891C491.552 406.197 485.239 407.885 480.139 410.682C467.715 417.494 452.623 423.124 440.802 430.681C444.641 446.993 440.832 467.966 435.496 483.629C434.657 486.091 430.999 494.857 430.935 496.516C430.5 507.66 432.294 516.26 428.665 527.476C425.789 536.367 420.086 541.97 417.596 550.664C414.711 561.533 414.185 576.095 409.875 586.171C408.761 588.776 402.893 592.712 400.585 594.911C427.192 613.404 453.263 637.587 474.825 661.774C481.831 669.632 490.829 679.547 496.749 688.184C505.312 703.053 506.094 704.096 507.453 721.029C508.658 736.041 508.795 750.489 509.325 765.55C509.884 772.956 509.477 779.135 511.889 786.284C516.898 784.166 521.876 782.154 526.854 780.224C532.468 778.048 546.444 773.781 550.871 770.855ZM485.376 363.838C485.452 367.15 485.767 375.703 487.757 378.096L488.925 377.664C489.951 374.614 488.004 366.014 487.988 361.392L487.99 360.634L487.926 359.942C487.701 357.34 488.115 352.303 487.658 350.86L486.092 349.701C483.585 350.729 484.564 361.833 485.376 363.838ZM465.83 364.174C465.138 362.487 463.93 359.265 463.103 357.791C457.174 369.938 453.843 371.717 443.261 379.334C438.793 382.549 412.404 397.29 411.484 399.517C412.446 399.889 412.046 399.909 412.65 399.796C431.469 392.388 456.622 385.891 465.25 365.603C465.45 365.13 465.644 364.653 465.83 364.174ZM624.327 900.025L626.133 899.819C625.391 895.915 614.374 880.071 611.505 876.736C602.456 875.973 593.53 873.503 584.881 872.778C572.237 871.718 556.781 866.895 544.539 866.328C543.551 873.132 542.202 881.163 541.775 887.913C549.231 888.405 558.236 890.248 565.769 891.293C584.768 893.926 605.324 898.135 624.327 900.025ZM409.278 365.856C408.7 365.337 408.105 364.837 407.494 364.356C398.371 357.264 373.962 353.1 362.019 354.572C357.547 354.216 353.089 354.587 348.936 356.338C349.556 357.308 349.804 357.673 350.223 358.747C349.791 358.949 349.476 359.119 349.022 359.261C353.712 359.249 360.539 359.431 365.052 358.978C376.936 359.301 388.24 361.57 399.777 364.243C402.978 364.985 406.009 365.534 409.278 365.856ZM441.189 364.697C418.866 367.776 410.082 364.394 395.959 384.601C395.14 385.773 394.109 386.779 394.147 388.191C395.45 388.296 395.568 388.019 396.753 387.335C398.98 385.568 406.52 379.35 408.467 378.498C421.645 372.725 429.01 375.894 442.955 368.76C444.072 366.674 444.591 366.622 444.285 364.809C442.836 364.28 442.761 364.448 441.189 364.697ZM613.621 246.419L610.208 244.347C598.973 256.852 586.868 268.546 573.983 279.343C553.374 296.948 529.061 312.1 512.041 333.599C509.299 337.063 508.454 339.275 507.741 343.603C509.381 347.685 511.001 349.867 513.625 353.43L514.846 354.686C516.241 352.875 515.638 346.625 516.669 344.254C522.973 329.763 538.099 318.439 549.945 308.53C558.442 301.512 566.791 294.316 574.984 286.946C584.577 278.296 593.58 268.844 602.44 259.443C606.318 255.328 609.881 250.431 613.621 246.419ZM305.942 568.084C314.44 564.36 324.26 559.285 331.294 553.261C346.337 540.378 371.263 511.619 372.57 491.468L371.931 490.457C367.368 495.905 364.012 502.544 359.73 508.178C346.684 525.338 332.185 541.457 316.576 556.321C314.683 558.125 305.23 565.918 304.628 567.519C305.432 568.183 304.984 568.018 305.942 568.084ZM489.884 380.33C488.14 383.795 492.527 391.702 495.372 393.199C496.864 392.924 497.414 392.253 498.833 391.757L500.27 391.178C499.393 389.535 496.229 388.974 494.713 387.553C492.869 385.824 491.675 381.893 489.884 380.33Z"/><path fill="#FDFDFA" fill-opacity="0.78039217" d="M577.328 960.551C581.747 960.668 583.802 960.735 588.207 959.595C588.588 961.523 588.804 963.799 589.95 965.309L591.074 965.749C588.359 968.162 581.355 965.624 580.085 971.131C575.061 972.471 551.054 972.254 545.357 971.585C549.851 971.361 565.04 971.761 567.329 971.208C568.1 969.58 567.827 968.303 567.729 966.478C571.007 965.908 576.686 965.639 578.196 962.443L577.328 960.551Z"/><defs><linearGradient id="gradient_0" gradientUnits="userSpaceOnUse" x1="555.69641" y1="967.92633" x2="555.76123" y2="970.73608"><stop offset="0" stop-color="white" stop-opacity="0.87450981"/><stop offset="1" stop-color="white" stop-opacity="0.92156863"/></linearGradient></defs><path fill="url(#gradient_0)" d="M549.932 966.268C556.582 966.584 561.07 966.794 567.729 966.478C567.827 968.303 568.1 969.58 567.329 971.208C565.04 971.761 549.851 971.361 545.357 971.585C543.204 971.626 541.745 971.453 539.589 971.233C541.647 971.027 547.01 967.045 549.932 966.268Z"/><defs><linearGradient id="gradient_1" gradientUnits="userSpaceOnUse" x1="45.865288" y1="947.87891" x2="43.893757" y2="949.86072"><stop offset="0" stop-color="white" stop-opacity="0"/><stop offset="1" stop-color="#FEFFFD" stop-opacity="0.10980392"/></linearGradient></defs><path fill="url(#gradient_1)" d="M34.5886 941.225L35.756 940.66C37.4206 941.649 38.4726 942.385 40.0426 943.528C43.8599 945.963 50.1235 949.681 52.3702 953.717L52.9321 954.438C53.7186 955.435 54.1968 955.883 55.1105 956.757C55.0425 957.709 55.1091 957.534 54.8238 958.432C49.5374 953.227 41.3946 947.823 34.5886 941.225Z"/><path fill="#FDFDFA" fill-opacity="0.98823529" d="M53.5277 925.932C53.8887 923.834 54.3296 920.349 55.915 918.976C57.1942 919.36 57.9305 919.735 59.1402 920.274C59.3018 920.87 59.1606 928.637 59.3733 930.999C58.0295 931.515 57.2587 931.676 56.1103 932.511C55.1185 930.357 54.35 928.155 53.5277 925.932Z"/><path fill="#FDFDFA" fill-opacity="0.98823529" d="M86.4648 918.501L85.9513 919.247C82.1673 920.556 73.8354 922.936 70.1364 921.153L70.2183 920.392C72.2852 918.837 75.325 919.194 75.8032 918.741C77.5185 917.117 81.9534 914.918 84.5443 915.158C85.0721 916.088 85.9016 917.669 86.4648 918.501Z"/><path fill="#F1BA31" fill-opacity="0.96470588" d="M94.6331 991.897L94.8176 992.303L93.8831 993.5C95.6639 997.904 114.045 1006.34 116.264 1008.56C111.203 1007.95 105.75 1002.97 101.002 1001.48L100.106 1001.17C98.3423 1002.27 95.806 1000.28 94.891 998.745L95.3384 997.486C94.6773 995.975 93.2501 995.429 91.7555 994.539C92.1561 992.602 92.985 992.68 94.6331 991.897Z"/><path fill="#FDFDFA" fill-opacity="0.031372551" d="M101.002 1001.48C105.75 1002.97 111.203 1007.95 116.264 1008.56L116.72 1009.06L115.713 1010.14C115.798 1010.39 116.28 1011.74 116.293 1011.95C112.911 1010.43 101.951 1004.69 101.002 1001.48Z"/><path fill="#FDFDFA" fill-opacity="0.29019609" d="M91.7555 994.539C93.2501 995.429 94.6773 995.975 95.3384 997.486L94.891 998.745C93.5451 997.814 92.2121 996.865 90.8923 995.897L91.7555 994.539Z"/><path fill="#F4C409" d="M539.031 927.836C538.811 927.019 538.894 926.986 538.907 926.112C540.537 926.212 540.329 926.299 541.908 926.943C554.391 938.243 566.117 947.878 583.123 951.394C589.894 952.794 597.469 953.8 603.398 957.21C604.363 959.986 605.257 962.786 606.081 965.607C609.021 971.196 607.564 974.595 601.642 977.178C581.589 985.921 557.662 981.255 536.681 979.009C533.481 978.643 522.511 977.587 520.308 977.136C510.529 976.337 502.722 976.45 492.871 976.543C497.249 975.17 500.051 974.924 504.491 972.561L504.375 972.107C503.278 972.153 502.943 972.011 501.94 971.571L501.798 970.893C501.597 970.897 491.708 967.98 489.606 967.549C486.798 966.62 485.49 966.187 482.79 964.802C481.145 964.348 480.168 964.165 478.66 963.317C475.37 966.387 478.97 974.028 485.927 971.262L486.525 970.253L487.167 971.595L488.462 972.366C483.15 974.404 474.013 971.547 476.681 964.197C478.144 960.166 478.715 963.132 480.205 958.684L480.918 958.44L480.889 958.278L481.219 958.522C480.956 959.262 480.957 959.384 480.813 960.156C486.786 960.228 497.784 963.716 503.8 965.411C506.809 965.581 508.656 966.395 510.279 963.627C512.329 965.655 515.817 966.814 518.578 967.906L519.784 967.588C520.793 965.467 520.232 965.819 521.943 964.955C525.312 964.938 526.015 966.436 527.619 969.168C532.544 970.455 534.515 970.786 539.589 971.233C541.745 971.453 543.204 971.626 545.357 971.585C551.054 972.254 575.061 972.471 580.085 971.131C581.355 965.624 588.359 968.162 591.074 965.749C594.049 965.131 596.396 965.379 599.375 965.97C600.593 965.693 601.365 965.287 602.513 964.799C601.754 962.678 602.721 960.162 600.582 958.692C598.66 957.372 595.228 959.454 593.683 958.979C586.561 956.789 581.377 953.308 573.73 952.57C572.076 953.3 573.657 953.872 572.249 955.699C572.223 954.642 572.207 954.487 571.983 953.455C570.697 952.385 569.369 952.333 567.691 952.008C567.585 953.608 567.698 953.321 568.418 954.937C565.856 954.133 564.705 954.057 563.325 951.799C564.961 951.609 564.835 951.765 566.292 951.129C566.421 949.442 566.579 950.249 565.591 948.679C564.067 947.797 564.009 947.924 562.296 947.998C560.985 949.068 561.345 949.178 560.838 951.271L559.995 950.749C559.842 948.346 560.356 945.572 557.827 944.489C556.227 944.951 555.225 945.471 553.703 944.914C551.985 943.636 551.66 941.12 551.02 938.907L550.314 938.596C548.958 939.616 548.443 941.08 547.656 942.633L547.397 942.382C548.009 939.844 548.958 937.961 547.209 935.88C545.473 935.612 545.321 935.831 543.693 936.455C543.551 935.595 543.502 935.414 543.272 934.594L542.572 934.481L541.076 937.035L540.377 936.855L539.967 935.512C540.1 933.069 540.465 929.797 539.031 927.836Z"/><path fill="#FDA916" d="M501.798 970.893C503.74 970.708 503.274 970.736 504.998 971.298C510.14 972.971 515.579 972.326 520.75 971.758C520.478 973.757 520.21 975.132 520.308 977.136C510.529 976.337 502.722 976.45 492.871 976.543C497.249 975.17 500.051 974.924 504.491 972.561L504.375 972.107C503.278 972.153 502.943 972.011 501.94 971.571L501.798 970.893Z"/><path fill="#FDFDFA" d="M480.813 960.156C486.786 960.228 497.784 963.716 503.8 965.411C506.268 966.164 513.32 968.154 515.186 969.665C512.891 969.842 488.141 964.846 484.523 963.654C482.84 962.317 482.287 961.745 480.813 960.156Z"/><path fill="#FDFDFA" d="M591.074 965.749C594.049 965.131 596.396 965.379 599.375 965.97C594.684 968.776 585.458 970.961 580.085 971.131C581.355 965.624 588.359 968.162 591.074 965.749Z"/><path fill="#FDFDFA" d="M599.186 970.514C599.842 970.423 600.214 970.535 600.897 970.616L601.341 971.262C595.054 977.096 552.715 975.891 542.637 975.141C541.164 974.71 541.042 974.756 539.789 973.922C543.348 973.609 548.677 974.013 552.401 973.988C568.575 973.876 583.456 975.556 599.186 970.514Z"/><path fill="#F4C409" d="M279.261 476.103C281.552 480.899 282.065 477.548 285.98 479.389L286.609 478.85L287.055 479.702C290.309 486.017 288.581 486.618 294.295 492.063C293.75 494.452 292.799 496.985 293.719 499.013C293.231 501.085 292.051 506.175 291.021 507.897C284.996 517.977 289.013 525.607 288.055 536.11C287.203 533.992 286.648 532.428 284.22 532.49L284.272 531.582C285.54 531.16 285.008 531.517 285.744 530.291C285.872 527.4 285.444 523.562 284.043 520.972L283.233 519.413C283.133 515.39 276.773 505.001 272.51 505.003C272.399 505.911 272.221 507.875 271.993 508.664L271.479 508.657C269.129 506.912 267.363 504.225 265.598 501.852C264.836 502.285 264.079 502.726 263.327 503.175C261.179 504.48 261.014 504.133 260.598 505.888L260.229 506.576C259.835 505.733 259.623 505.272 259.292 504.395C258.555 505.581 258.03 506.375 257.46 507.672C255.975 508.255 254.983 508.103 253.395 508.072C261.157 504.929 255.912 499.687 259.231 494.629C262.963 488.941 265.986 488.853 270.141 482.006C272.538 478.003 274.934 477.238 279.261 476.103ZM281.095 481.925C278.926 479.223 277.43 479.336 274.604 481.057C274.184 481.754 273.877 482.198 273.549 482.943L274.172 483.496C277.327 483.905 278.255 483.454 281.095 481.925ZM289.427 502.342C288.181 499.917 286.513 496.062 284.219 494.79C281.29 495.644 281.757 499.069 278.892 497.171C276.188 495.38 275.43 492.159 272.414 490.432C271.07 499.73 281.642 506.435 289.387 504.152C289.857 503.05 289.748 503.634 289.427 502.342Z"/><path fill="#F1BA31" d="M279.261 476.103C281.552 480.899 282.065 477.548 285.98 479.389C283.984 480.91 283.478 481.568 281.095 481.925C278.926 479.223 277.43 479.336 274.604 481.057C274.184 481.754 273.877 482.198 273.549 482.943C273.451 481.66 273.479 481.717 272.972 480.54C271.462 481.052 271.472 481.161 270.141 482.006C272.538 478.003 274.934 477.238 279.261 476.103Z"/><path fill="#FDFDFA" d="M267.316 490.389C268.624 492.368 265.759 494.254 265.791 496.985C265.802 497.948 265.503 498.699 265.196 499.604C261.128 495.236 263.439 493.639 267.316 490.389Z"/><path fill="#F4C409" d="M96.2298 918.426C99.3157 920.014 101.058 923.032 101.747 926.325C102.078 927.868 102.335 929.425 102.518 930.992C102.955 927.187 103.421 925.36 101.891 921.789C101.642 921.208 101.688 920.72 101.751 920.118C107.133 927.735 100.552 936.525 101.734 944.438C103.299 954.914 105.252 963.418 105.728 974.152C108.04 977.491 111.092 981.971 113.528 984.987C120.514 993.634 125.935 997.778 123.399 1009.99C123.019 1011.82 122.698 1013.82 122.058 1015.71C121.886 1015.03 121.785 1013.35 121.52 1012.21L121.439 1012.49C119.881 1012.25 121.247 1013.5 119.091 1014.93C117.679 1014.02 117.28 1013.28 116.293 1011.95C116.28 1011.74 115.798 1010.39 115.713 1010.14L116.72 1009.06C128.191 1006.29 115.562 988.635 109.818 985.896C109.087 985.548 108.351 986.253 107.653 986.616C105.497 984.535 100.545 979.85 99.7477 977.066C100.166 976.654 100.749 976.165 100.698 975.514C99.3997 958.624 93.1318 941.021 96.2601 923.987C96.834 920.863 97.2102 922.438 96.2298 918.426Z"/><path fill="#F4C409" d="M518.791 904.97C523.515 901.789 530.246 901.818 533.692 907.14C535.686 910.22 533.015 916.681 533.418 919.633L533.648 921.318L532.947 921.986C531.202 921.659 530.146 921.469 528.384 921.339C527.383 922.171 527.534 921.986 526.716 922.999L526.302 923.371L524.988 922.42C525.93 920.854 525.981 918.312 524.576 916.915C523.47 915.814 522.317 916.207 520.854 916.291C519.885 914.843 519.818 914.935 519.579 913.243C520.342 910.135 521.674 908.661 524.131 906.58L525.083 905.854L522.919 904.624C520.137 904.925 520 907.886 518.249 908.49C517.876 907.2 518.365 906.287 518.791 904.97Z"/><path fill="#FDFDFA" d="M525.083 905.854C532.101 906.45 529.901 912.631 529.988 918C528.435 915.783 527.6 914.955 527.18 912.252C526.546 908.168 527.182 908.981 524.131 906.58L525.083 905.854Z"/><path fill="#F4C409" d="M44.5438 941.907C53.0596 941.444 57.1493 943.566 61.9989 950.786C59.8782 951.125 59.3714 951.057 57.7061 952.466C56.0474 953.869 55.1184 953.017 53.1348 953.254C55.552 954.204 60.1309 955.533 61.6984 956.853C61.5176 959.411 58.2233 959.717 56.0738 960.369C54.7861 959.271 55.1295 959.931 54.8238 958.432C55.1091 957.534 55.0425 957.709 55.1105 956.757C54.1968 955.883 53.7186 955.435 52.9321 954.438L52.3702 953.717C50.1235 949.681 43.8599 945.963 40.0426 943.528L40.4085 942.709C41.8029 941.76 42.5721 942.048 44.5438 941.907Z"/><path fill="#FDFDFA" d="M66.5477 894.655C77.0878 900.894 67.1777 907.993 71.4414 915.02C71.961 915.876 71.7955 915.693 71.4418 916.726C69.9271 917.774 70.0574 917.751 68.2241 917.833C65.5473 915.264 68.5921 905.599 68.6163 902.239C68.6263 900.857 63.7119 895.208 63.5172 893.242C64.9198 892.811 64.1706 892.871 65.874 893.652L66.5477 894.655Z"/><path fill="#F1BA31" d="M533.418 919.633C536.162 921.407 539.842 924.44 541.908 926.943C540.329 926.299 540.537 926.212 538.907 926.112C538.894 926.986 538.811 927.019 539.031 927.836C536.869 928.203 535.193 928.252 533.446 929.506L532.942 930.725C532.345 930.744 531.541 930.304 530.887 930.04C529.278 927.956 532.493 927.483 532.258 925.466C531.631 925.592 531.004 925.717 530.377 925.843C528.431 924.888 528.119 924.657 526.716 922.999C527.534 921.986 527.383 922.171 528.384 921.339C530.146 921.469 531.202 921.659 532.947 921.986L533.648 921.318L533.418 919.633Z"/><path fill="#F1BA31" d="M32.6146 927.258L35.6882 925.553C36.3456 933.423 34.097 941.081 44.5438 941.907C42.5721 942.048 41.8029 941.76 40.4085 942.709L40.0426 943.528C38.4726 942.385 37.4206 941.649 35.756 940.66L34.5886 941.225C33.2926 940.468 32.4983 939.434 31.4223 938.32C32.0346 934.986 33.4354 930.21 32.6146 927.258Z"/><path fill="#FDFDFA" d="M489.606 967.549C491.708 967.98 501.597 970.897 501.798 970.893L501.94 971.571C497.584 971.201 491.65 971.497 487.167 971.595L486.525 970.253L489.606 967.549Z"/><path fill="#FDFDFA" d="M46.8761 906.2C48.6759 909.444 49.5416 911.419 50.9595 914.868C50.3636 917.068 49.5857 921.699 49.0262 923.174C47.9682 919.776 49.9017 915.279 47.2995 913.861L45.2325 914.598C45.2882 912.065 46.2034 908.704 46.8761 906.2Z"/><path fill="#F1BA31" d="M295.813 488.995C295.676 491.943 294.481 496.038 293.719 499.013C292.799 496.985 293.75 494.452 294.295 492.063L295.813 488.995Z"/><path fill="#FDA916" d="M714.409 337.069C716.391 336.96 718.376 337.221 720.262 337.84C723.668 338.994 726.337 341.256 727.913 344.499C729.547 347.946 729.717 351.908 728.383 355.482C725.227 364.113 717.2 365.256 709.558 361.95C695.76 374.096 677.801 386.009 663.734 398.519C665.176 408.636 663.157 414.834 652.776 417.961C650.331 417.939 648.83 417.806 646.48 416.984C643.219 415.845 640.576 413.405 639.181 410.245C637.68 406.81 637.661 402.909 639.129 399.46C642.703 391.062 651.311 389.504 659.087 392.993C667.905 385.51 694.732 362.823 703.985 358.541C700.799 348.783 703.606 339.498 714.409 337.069Z"/><path fill="#FDFDFA" fill-opacity="0.43529412" d="M395.848 460.268C400.06 458.678 399.68 458.832 401.023 454.683C401.051 458.231 400.509 462.954 400.782 466.219C401.867 479.165 402.257 491.107 401.434 504.134L401.082 503.878L400.802 502.534L400.325 502.521C394.717 497.873 396.869 493.794 394.771 487.033L393.965 489.735C393.581 482.209 394.64 467.659 395.848 460.268Z"/><path fill="#F4C409" d="M641.697 208.624C645.779 202.174 649.978 195.798 654.292 189.501L656.581 189.389C658.493 190.179 658.449 190.079 659.709 191.673C660.466 194.202 660.019 195.157 658.804 197.537L659.9 199.029C657.458 201.835 648.46 212.122 646.025 213.761L645.154 213.501L645.158 212.875C643.171 212.329 643.255 212.402 641.778 210.988C641.397 209.314 641.244 210.005 641.697 208.624Z"/><path fill="#FDFDFA" d="M641.697 208.624C645.779 202.174 649.978 195.798 654.292 189.501L656.581 189.389C654.421 192.606 644.385 207.832 642.544 209.166L641.697 208.624Z"/><path fill="#FDFDFA" d="M645.158 212.875C647.377 210.538 657.285 198.402 658.804 197.537L659.9 199.029C657.458 201.835 648.46 212.122 646.025 213.761L645.154 213.501L645.158 212.875Z"/><path fill="#FDFDFA" fill-opacity="0.22745098" d="M906.66 93.2891C907.576 93.4208 912.263 94.0351 912.838 94.2408L911.867 94.7122L914.011 95.1219C918.255 99.4107 910.122 108.315 905.033 100.256C903.175 97.3136 906.004 96.2299 906.66 93.2891Z"/><path fill="#FDFDFA" fill-opacity="0.9137255" d="M365.052 358.978C360.539 359.431 353.712 359.249 349.022 359.261C349.476 359.119 349.791 358.949 350.223 358.747C349.804 357.673 349.556 357.308 348.936 356.338C353.089 354.587 357.547 354.216 362.019 354.572C362.76 356.831 363.349 357.188 365.052 358.978Z"/><path fill="#FDFDFA" fill-opacity="0.011764706" d="M399.558 442.594L401.069 446.679C401.534 448.974 401.163 452.256 401.023 454.683C399.68 458.832 400.06 458.678 395.848 460.268C396.16 455.456 397.706 446.9 399.558 442.594Z"/><defs><linearGradient id="gradient_2" gradientUnits="userSpaceOnUse" x1="485.34268" y1="367.75629" x2="488.59509" y2="366.89294"><stop offset="0" stop-color="white" stop-opacity="0"/><stop offset="1" stop-color="#FEFFFF" stop-opacity="0.031372551"/></linearGradient></defs><path fill="url(#gradient_2)" d="M485.376 363.838C485.656 361.776 484.935 362.197 485.88 358.883L486.588 358.502C487.624 359.183 487.289 359.167 487.99 360.634L487.988 361.392C488.004 366.014 489.951 374.614 488.925 377.664L487.757 378.096C485.767 375.703 485.452 367.15 485.376 363.838Z"/><path fill="#FDFDFA" fill-opacity="0.24313726" d="M393.965 489.735L394.771 487.033C396.869 493.794 394.717 497.873 400.325 502.521L400.802 502.534L401.082 503.878C397.991 504.304 397.73 504.252 395.195 502.453L394.985 502.659L393.955 502.513C393.766 498.456 393.921 493.838 393.965 489.735Z"/><path fill="#FDFDFA" d="M500.414 807.821C501.847 809.102 502.21 809.368 503.292 810.917C501.458 817.355 501.726 822.574 498.412 828.924C498.629 823.717 499.239 812.55 500.414 807.821Z"/><path fill="#FDFDFA" d="M382.821 464.877C383.074 468.924 378.029 483.441 376.362 487.753L375.741 487.662C375.354 486.76 374.81 486.044 374.332 485.012C375.691 480.745 380.785 469.88 382.821 464.877Z"/><path fill="#FDFDFA" d="M472.895 371.357C471.847 368.934 470.066 359.63 473.268 358.088L474.187 358.948C475.427 362.029 475.484 366.679 475.292 370.001C474.575 370.384 473.866 370.704 473.098 370.971L472.895 371.357Z"/><path fill="#FDFDFA" fill-opacity="0.38431373" d="M485.376 363.838C484.564 361.833 483.585 350.729 486.092 349.701L487.658 350.86C488.115 352.303 487.701 357.34 487.926 359.942L487.99 360.634C487.289 359.167 487.624 359.183 486.588 358.502L485.88 358.883C484.935 362.197 485.656 361.776 485.376 363.838Z"/><path fill="#FDFDFA" d="M404.11 427.252C403.759 431.374 402.185 442.833 401.069 446.679L399.558 442.594C399.61 438.971 402.787 431.03 404.11 427.252Z"/><path fill="#FDFDFA" fill-opacity="0.011764706" d="M406.187 561.351C404.967 564.416 403.982 567.407 402.298 570.237L401.928 569.735C401.898 565.073 402.598 562.858 403.605 558.395C404.344 560.716 403.774 559.894 406.187 561.351Z"/><path fill="#FDFDFA" d="M647.805 220.533C649.852 216.419 657.558 209.841 661.191 206.463L662.538 207.708C658.154 210.778 652.405 216.73 647.805 220.533Z"/><path fill="#FDFDFA" d="M459.143 694.643C461.812 694.599 466.675 694.859 469.078 695.996C469.862 696.367 469.77 696.905 470.19 698.059C467.268 698.047 461.552 696.511 459.143 694.643Z"/><path fill="#FDA916" d="M462.295 667.204C465 670.136 467.157 672.484 469.581 675.632C467.722 674.457 462.232 671.351 460.977 670.408C462.56 668.733 462.05 669.724 462.295 667.204Z"/><path fill="#FDFDFA" fill-opacity="0.027450981" d="M391.535 539.786C392.157 540.41 392.041 540.411 392.451 541.247C392.431 543.679 391.545 545.24 390.602 547.503L390.123 547.135C389.649 544.984 390.686 541.791 391.535 539.786Z"/><path fill="#FDA916" d="M253.395 508.072C254.983 508.103 255.975 508.255 257.46 507.672C258.03 506.375 258.555 505.581 259.292 504.395C259.623 505.272 259.835 505.733 260.229 506.576L260.598 505.888C266.303 509.195 266.392 511.167 271.117 514.674C273.302 516.297 280.648 517.318 283.233 519.413L284.043 520.972C285.444 523.562 285.872 527.4 285.744 530.291C285.008 531.517 285.54 531.16 284.272 531.582L284.22 532.49C282.618 534.5 282.235 534.63 280.017 536.064C270.667 568.301 253.141 597.448 240.484 628.486C234.278 643.704 235.081 654.172 230.664 669.003C229.181 673.983 214.31 704.739 208.238 702.213C207.425 700.838 206.915 699.495 205.527 698.903C202.564 699.643 198.613 706.565 194.718 706.596C193.542 704.088 199.097 697.134 200.779 694.803C204.919 689.066 207.484 684.64 209.693 677.924C204.49 681.485 194.295 694.962 186.725 693.336C186.69 692.399 186.711 691.731 187.568 691.061C195.274 685.038 199.53 681.063 203.616 672.133C200.235 674.161 188.506 682.263 185.089 679.946C185.898 676.577 192.059 675.136 195.033 670.687C199.162 664.509 199.171 658.218 202.546 652.054C205.689 646.313 212.862 642.407 215.47 635.894C218.357 628.681 220.485 620.721 222.536 613.262C225.407 603.027 228.095 592.741 230.597 582.409C235.591 562.048 240.523 537.745 252.126 520.526C249.845 517.682 249.007 516.225 251.151 512.717C252.123 511.128 252.432 509.71 253.395 508.072ZM281.399 534.07L282.267 531.696C280.776 528.893 258.548 517.986 254.556 517.487C256.508 522.12 275.327 534.847 280.244 534.686L281.399 534.07Z"/></svg>