<?xml version="1.0" encoding="utf-8" ?><svg xmlns="http://www.w3.org/2000/svg" xmlns:xlink="http://www.w3.org/1999/xlink" width="1024" height="1024" viewBox="0 0 1024 1024"><path fill="#FDA916" d="M502.509 161.267C524.185 160.138 547.586 163.077 568.857 167.012C637.225 179.661 695.688 209.85 747.917 255.413C743.209 260.024 734.226 266.358 728.83 270.684C722.269 275.945 715.059 282.584 708.372 287.355C693.796 276.941 683.327 266.905 666.871 257.244C616.789 227.84 561.247 210.575 503.251 211.607C437.389 212.357 373.524 234.324 321.136 274.247C242.564 334.978 202.395 423.839 204.129 522.463C205.335 603.155 238.809 680.003 297.075 735.841C342.777 779.087 400.814 807.025 463.123 815.772C480.172 818.081 497.442 818.302 514.621 817.94C593.66 816.367 668.777 783.204 723.193 725.859C732.868 715.725 739.098 707.555 747.25 696.146C786.211 641.695 806.473 576.082 804.998 509.144C804.353 471.465 796.497 435.598 783.93 400.224C788.68 394.332 794.797 388.347 800.099 382.791C807.358 375.048 814.667 367.351 822.026 359.702C825.259 366.45 827.698 374.441 830.53 381.524C846.855 422.351 854.586 466.17 855.522 510.04C855.721 519.355 854.976 528.497 854.395 537.749C850.811 605.592 827.688 670.952 787.811 725.955C725.293 811.487 624.211 865.142 518.156 868.406C423.475 871.805 331.393 837.048 262.574 771.933C253.824 763.686 244.675 753.414 236.97 744.203C185.663 682.818 156.481 605.967 154.113 525.999C151.821 464.885 165.591 404.239 194.048 350.106C207.903 322.73 225.564 297.454 246.505 275.029C258.838 261.974 272.051 249.089 286.096 237.872C339.027 195.996 402.7 169.907 469.796 162.603C479.616 161.609 492.393 161.553 502.509 161.267Z"/><path fill="#FDA916" d="M995.487 153.637C998.238 153.278 1003.93 152.55 1006.17 154.497C1006.85 155.089 1007.14 155.7 1007.23 156.565C1008.33 167.219 939.313 218.791 928.287 227.553C918.078 235.666 908.031 244.15 898.132 252.643C851.971 292.315 807.966 334.43 766.306 378.805C753.552 392.898 740.925 407.106 728.429 421.427C726.086 424.1 723.717 426.885 721.293 429.469C708.037 443.598 696.695 459.278 684.196 474.043C638.754 527.137 594.903 581.572 552.702 637.276C538.878 655.501 523.486 675.686 510.12 694.154L472.644 745.605C464.967 756.155 457.322 766.765 449.488 777.195C445.526 782.47 440.881 787.56 436.679 792.696C432.779 788.02 427.962 779.145 424.944 773.56C415.02 755.197 403.855 738.137 392.659 720.577C386.033 710.186 380.194 699.043 373.331 688.668C351.813 656.532 328.548 625.602 303.64 596.018C285.202 574.207 262.772 549.599 239.881 532.075C236.188 529.248 228.222 525.867 223.829 523.961C226.842 519.873 237.852 509.071 242.046 505.409C252.696 496.11 264.033 486.864 275.067 477.859C285.422 469.775 295.534 460.207 307.125 453.873C322.46 445.839 336.366 459.159 346.723 468.813C357.845 479.113 367.298 490.783 377.227 502.154C394.459 521.89 410.554 542.452 426.833 562.966C432.062 569.555 437.078 576.339 442.584 582.703C480.521 542.448 518.813 502.53 557.458 462.954C587.996 431.334 619.432 400.594 651.728 370.772C668.808 355.191 686.257 340.248 704.052 325.506C716.039 315.576 728.036 305.08 740.333 295.562C791.63 255.83 846.447 220.863 904.101 191.097C926.25 179.8 971.681 157.868 995.487 153.637Z"/><path fill="#FDA916" d="M511.472 18.7645C514.283 19.4392 546.359 44.919 553.201 49.3125C568.912 41.7843 585.566 33.1679 601.251 25.3552C607.876 34.0179 628.212 58.1858 636.446 64.6645C652.542 59.0789 668.493 54.3665 684.313 47.9817C688.566 55.7089 693.124 63.3373 697.398 71.1022C700.964 77.582 705.467 86.7034 709.711 92.5247C723.659 91.9616 747.613 86.9648 762.163 84.8365C763.053 86.995 763.736 89.5311 764.371 91.8041C768.298 105.859 773.589 119.215 778.93 132.774C796.531 133.644 811.619 134.108 829.367 133.581C830.61 143.665 832.977 153.547 835.059 163.502C836.18 168.863 837.3 176.34 838.836 181.339C842.374 184.622 847.595 186.85 851.963 189.661C847.948 192.461 842.307 195.94 837.931 198.083C821.697 182.747 807.773 169.816 789.939 156.03C746.571 123.177 698.03 97.783 646.311 80.8917C532.141 45.1134 408.441 56.0758 302.343 111.375C196.172 167.626 116.455 263.462 80.4772 378.101C45.0864 492.443 56.5289 616.157 112.291 722.068C166.908 826.575 260.718 905.176 373.172 940.655C458.135 967.663 549.141 969.231 634.984 945.167C662.154 937.838 688.49 927.705 713.565 914.933C770.248 885.365 820.202 846.889 860.731 797.013C875.454 778.895 887.723 759.458 899.509 739.348C918.601 707.482 933.81 673.446 944.812 637.966C972.775 548.569 967.357 440.549 933.803 353.584C926.822 335.492 919.045 320.154 910.119 303.086C907.374 297.497 903.997 291.564 900.984 286.052C905.407 281.632 912.654 276.263 917.561 272.002C921.899 268.236 927.22 263.278 931.622 259.888L938.144 262.711C935.931 280.368 933.257 297.297 931.103 315.105C944.215 323.459 960.602 330.897 974.422 339.197C972.03 345.187 969.562 353.187 967.313 359.511C964.07 368.632 959.584 380.1 957.499 389.345C969.25 400.836 986.623 413.175 999.255 424.432C991.926 439.917 982.023 454.263 974.502 469.353C978.409 473.585 985.891 483.93 989.858 488.916C993.762 493.824 1004.94 506.921 1007.58 511.525C997.37 526.134 984.558 540.537 973.995 555.681C982.013 570.406 991.938 586.528 999.329 601.046C987.587 611.128 968.777 624.507 958.329 634.882C960.443 640.955 962.097 647.709 964.393 653.79C968.176 663.81 971.867 673.599 975.082 683.832C971.218 686.504 965.268 689.645 961.084 692.052C951.349 697.654 941.803 702.896 932.317 708.967C933.546 714.174 933.502 719.684 934.412 724.772C936.601 736.996 937.699 749.499 939.882 761.643C935.143 763.887 925.941 766.703 920.736 768.286C910.891 771.28 903.078 773.905 893.589 777.908C891.766 794.587 891.071 812.44 889.944 829.277C875.992 831.144 853.343 835.799 839.41 838.696C835.393 853.658 834.183 875.981 829.738 889.986C812.853 889.995 795.212 889.904 778.385 890.464C773.988 903.002 766.122 927.147 760.477 938.628C750.435 938.08 738.716 935.449 728.623 933.886C723.522 933.096 714.42 931.87 709.896 930.383C700.94 944.719 693.308 960.086 683.858 974.886C666.419 969.175 653.539 962.282 634.469 957.56C622.732 970.749 611.98 983.877 600.603 997.057C591.547 992.13 582.453 987.272 573.322 982.483C566.447 978.852 558.871 974.65 551.687 971.803C538.695 980.804 524.118 994.302 511.192 1004.27C498.049 993.327 483.237 981.097 468.984 971.829C464.87 973.525 456.857 978.371 452.759 980.72C442.948 986.388 433.094 991.981 423.198 997.499C413.112 985.122 398.854 968.239 387.356 957.121C371.638 962.104 354.621 969.255 339.241 975.262C335.244 968.091 330.494 960.508 326.365 953.319C322.464 946.53 316.456 935.932 311.526 930.104C297.312 932.117 276.728 936.762 262.558 939.916C255.88 924.364 249.351 906.082 242.802 889.984C237.469 889.317 228.862 889.737 223.298 889.88C213.326 890.135 203.255 890.13 193.382 891.502C190.101 873.112 187.252 858.466 182.952 840.36C170.537 835.791 145.473 831.256 132.098 828.824C132.059 811.535 131.861 794.245 131.504 776.959C129.038 776.234 125.642 774.905 123.31 773.848C110.691 768.127 96.422 764.097 83.8711 758.503C86.0333 742.313 90.5019 726.603 93.1569 710.428C81.9947 702.769 70.0594 695.988 58.4638 689.002C54.865 686.833 51.232 684.784 48.0142 682.062C54.1401 667.012 59.9146 651.821 65.3331 636.502C51.7387 623.381 37.9533 612.378 23.9357 600.1C25.0345 597.669 26.4757 595.325 27.7511 592.98C34.7905 580.036 42.4378 567.403 48.9003 554.151C38.3099 539.801 26.0377 526.165 16.0536 511.95C17.9306 508.91 21.1065 505.289 23.2701 502.326C30.3071 492.69 43.4145 477.714 48.7785 467.493C40.9153 452.953 32.5513 438.656 24.6364 424.141C27.205 421.087 34.7258 414.9 38.1519 411.946C47.3549 404.008 55.5131 396.919 64.1324 388.329C59.809 376.173 56.9923 363.302 52.7032 351.108C51.3538 347.272 50.1017 343.362 48.9401 339.465C62.803 330.257 78.3396 324.451 91.7937 312.756C89.616 296.259 86.9752 279.827 83.8744 263.479C98.8941 256.91 117.422 253.345 131.831 244.225C133.54 230.277 133.476 208.616 133.079 194.768C135.687 193.868 146.685 192.009 150.237 191.324C162.237 189.01 171.7 186.868 183.295 183.302C186.083 166.154 190.373 151.279 192.921 132.972C208.445 133.331 229.029 133.88 244.381 132.355C251.059 117.96 257.144 100.166 262.873 85.1342C269.781 85.6818 275.686 87.2091 282.352 88.2587C291.927 89.7665 303.369 91.7631 312.962 92.2699C322.21 79.7069 331.929 60.784 340.496 46.9106C351.128 51.2628 361.802 55.3334 372.689 58.9992C377.546 60.6347 384.442 63.4367 389.334 64.3524C400.239 51.4027 413.052 37.5628 423.106 24.4491C432.584 29.7797 442.129 34.9926 451.737 40.0866C457.582 43.2221 463.501 46.6968 469.629 49.1864C481.08 42.2857 500.562 27.0626 511.472 18.7645Z"/><path fill="#FDA916" d="M488.182 75.7714C568.659 72.4828 643.583 88.2142 714.853 125.746C752.108 145.364 796.237 175.006 824.401 206.254C820.328 208.947 816.224 211.749 811.995 214.178C771.812 170.891 706.615 132.369 651.208 113.134C544.982 75.6889 428.233 81.9651 326.634 130.583C247.94 168.892 183.658 233.24 141.201 309.355C116.329 353.945 101.783 399.2 93.6056 449.584C90.9617 465.876 90.2394 480.672 89.7114 497.021C86.8457 565.882 101.066 634.382 131.104 696.413C180.342 798.414 268.653 876.234 376.037 912.25C482.315 947.869 598.342 940.225 699.028 890.969C771.725 854.792 832.42 798.379 873.809 728.517C889.669 701.626 903.766 669.3 913.747 639.707C914.549 637.426 915.303 635.128 916.007 632.815C941.856 547.78 939.71 456.692 909.886 372.968C900.327 346.664 891.846 330.641 879.145 306.399C882.036 302.149 885.38 299.029 889.205 295.647C894.528 303.662 901.131 316.478 905.359 325.156C931.171 379.018 945.647 437.605 947.892 497.289C950.508 569.129 934.876 640.46 902.455 704.622C884.08 741.439 858.099 780.85 829.918 810.821C750.452 895.193 640.667 944.459 524.81 947.736C409.061 951.335 296.601 908.929 212.046 829.801C11.617 640.471 35.7499 315.937 257.317 155.359C322.696 107.976 407.459 77.8724 488.182 75.7714Z"/></svg>