<?xml version="1.0" encoding="utf-8" ?><svg xmlns="http://www.w3.org/2000/svg" xmlns:xlink="http://www.w3.org/1999/xlink" width="1024" height="1024" viewBox="0 0 1024 1024"><path fill="#FDA916" d="M483.095 535.608C486.396 539.392 492.782 550.317 495.728 555.039C502.047 565.132 508.603 575.075 515.392 584.858C530.363 606.059 546.123 628.847 562.554 648.798C574.231 662.975 588.585 676.844 601.028 690.373C588.671 696.429 574.835 702.296 562.2 707.951C541.021 717.562 519.793 727.066 498.516 736.461L218.252 859.66L159.609 885.708C148.652 890.548 137.266 895.245 126.499 900.425C125.402 900.935 124.827 901.088 123.661 901.438C121.835 900.69 121.935 900.132 120.547 898.204L120.207 897.658C119.15 895.392 116.868 891.927 115.334 890.005C113.269 886.556 111.231 883.092 109.219 879.613C120.835 867.006 139.372 851.558 152.388 839.541L252.698 747.442L403.564 608.565L459.146 557.203C465.388 551.522 476.768 540.559 483.095 535.608Z"/><path fill="#FDA916" d="M434.376 321.093C454.143 319.108 480.16 344.452 493.284 357.546C542.983 407.132 581.586 466.402 615.07 527.791C638.643 571.009 661.111 615.501 672.464 663.852C674.687 673.32 676.478 691.817 671.127 700.867C667.993 705.359 663.827 706.357 658.835 707.205C649.352 707.895 639.626 703.906 631.573 699.294C575.291 667.066 496.961 542.731 466.65 484.072C450.321 452.471 433.166 414.27 423.958 379.93C420.421 366.739 414.164 341.565 421.835 329.18C424.637 324.656 429.334 322.202 434.376 321.093ZM654.875 689.481C656.96 689.46 656.863 689.832 658.031 688.767C664.17 669.34 628.041 586.082 617.015 565.09C579.118 492.937 535.192 419.068 474.936 363.142C466.307 355.133 451.719 340.818 439.762 339.142C433.448 340.966 434.949 346.144 435.504 351.435C436.64 362.251 439.43 373.031 442.907 383.331C453.652 414.998 466.815 445.793 482.281 475.442C496.15 502.298 513.711 531.862 530.817 556.688C557.189 594.963 609.745 677.511 654.875 689.481Z"/><path fill="#FDA916" d="M505.26 470.205C521.445 469.248 540.165 475.664 552.483 486.068C581.275 510.387 588.77 549.266 566.38 580.32C565.598 581.245 564.203 582.578 563.309 583.481C543.882 559.808 528.058 534.965 513.162 508.226C506.542 496.343 499.304 485.218 494.232 472.44C498.12 471.194 501.239 470.749 505.26 470.205Z"/><path fill="#FDA916" d="M590.424 59.2792C595.785 58.8337 603.286 58.834 608.661 58.9374C712.352 60.9331 806.341 106.09 876.913 181.486C902.998 208.217 921.319 237.47 938.592 270.258C976.499 342.216 989.797 423.296 980.093 503.974C969.072 597.358 925.755 683.952 857.638 748.776C855.179 751.333 852.984 753.57 850.382 755.975C846.203 752.412 843.297 749.573 839.52 745.659C841.04 743.127 849.578 734.313 852.237 731.239C860.243 721.946 867.757 712.239 874.748 702.159C912.394 646.742 933.428 576.285 938.873 510.015C947.829 403.34 914.17 297.459 845.259 215.537C824.37 190.982 800.01 169.815 774.478 150.258C731.96 117.689 683.268 92.8109 631.119 80.0577C611.752 75.3215 591.35 73.7208 571.548 72.1005C570.95 55.2715 575.438 59.9137 590.424 59.2792Z"/><path fill="#FDA916" d="M83.941 838.791C88.5174 829.551 95.5052 820.288 101.45 811.736C109.326 800.422 117.127 789.055 124.85 777.636L212.887 647.461C258.116 579.325 303.772 511.472 349.852 443.907C353.526 438.424 356.858 432.69 360.52 427.191C371.731 410.266 383.199 393.513 394.922 376.938C399.18 370.796 405.286 360.322 409.749 355.238C411.907 375.383 417.198 392.833 423.611 412.069C425.86 418.817 430.094 427.575 432.004 434.013C422.666 446.749 413.407 457.411 403.647 469.623L338.658 550.687C279.818 625.233 221.709 700.353 164.339 776.037L117.537 837.257C114.139 841.676 100.795 860.175 97.5817 861.086L96.8572 860.483C96.8301 857.762 95.3201 855.31 93.8181 853.165L92.0034 850.274C89.7448 846.553 87.058 841.661 83.941 838.791Z"/><path fill="#FDA916" d="M601.265 155.775C614.166 154.929 629.982 155.927 642.765 157.482C691.113 162.888 737.004 181.638 775.306 211.635C837.017 260.206 875.116 336.45 885.353 413.89C895.517 490.785 876.199 581.09 827.356 642.834L822.976 639.383C821.126 638.006 819.263 636.646 817.388 635.302C821.624 626.163 826.894 617.719 831.056 608.016C846.21 572.688 853.527 530.61 853.458 492.122C853.301 405.053 823.545 319.679 761.198 257.488C716.248 212.651 658.252 181.032 594.897 172.564C587.563 171.584 577.123 170.322 569.872 170.385C569.749 166.133 569.835 163.016 570.073 158.757C580.389 157.048 590.812 156.051 601.265 155.775Z"/><path fill="#FDA916" d="M590.842 254.713C599.748 254.284 613.781 255.164 622.781 256.378C672.103 262.787 716.791 288.719 746.828 328.362C802.956 402.581 803.799 508.542 757.456 587.638C755.733 590.58 750.355 600.523 746.749 599.997L737.453 594.045C738.834 590.385 742.773 583.39 744.681 579.184C750.696 566.21 754.964 552.496 757.375 538.4C768.262 475.101 753.415 410.074 716.133 357.773C708.55 347.131 701.692 339.889 692.557 330.713C656.611 294.604 618.446 276.018 568.58 267.483C568.338 263.561 568.096 260.375 568.296 256.46C574.374 255.538 584.531 255.112 590.842 254.713Z"/><path fill="#FDA916" d="M131.923 907.907C144.594 902.497 157.229 897 169.825 891.416C179.485 887.245 189.435 883.315 199.009 879.045C208.445 874.835 217.811 870.117 227.275 865.876L340.286 816.04L481.352 754.669C518.464 738.532 555.603 722.659 592.414 705.794C598.451 703.028 604.084 699.736 609.912 696.927C615.473 700.418 620.856 703.866 626.631 707.001C618.967 710.825 610.742 713.628 603.029 717.155C587.791 724.123 572.215 730.612 557.004 737.558L317.473 844.123C280.639 860.5 243.148 876.408 206.546 893.087L168.528 910.104C159.51 914.245 144.124 921.755 134.824 924.444C132.773 920.157 129.966 913.97 127.654 909.918C128.711 909.077 129.377 908.906 130.623 908.353L131.923 907.907Z"/><path fill="#FDA916" d="M584.56 357.208C588.556 356.789 592.804 356.976 596.761 357.116C690.028 360.409 722.877 475.431 679.518 546.323C677.774 549.175 674.336 554.783 671.192 555.54L663.527 549.029C667.411 541.011 671.676 532.412 673.841 523.948C689.297 463.528 646.836 397.536 590.973 375.082C584.01 372.283 576.744 370.285 569.582 368.299C569.235 364.696 569.158 361.877 569.11 358.247C573.625 357.738 579.907 357.504 584.56 357.208Z"/><path fill="#FDA916" d="M362.589 883.951C364.529 884.022 365.635 886.94 366.82 888.834C372.346 897.665 378.125 902.902 385.763 909.643C379.498 912.756 371.398 915.894 364.818 918.831L328.491 935.396C315.758 941.098 301.525 948.175 288.424 952.608C283.551 954.257 274.056 954.369 268.927 953.564C251.421 950.819 240.487 942.875 230.114 929.251C221.921 917.206 220.378 912.312 216.797 898.456C226.474 894.646 240.141 888.071 249.368 885.177C249.585 890.795 250.19 894.924 252.49 900.094C256.076 907.979 261.296 914.927 269.616 918.101C279.819 921.992 287.72 917.861 296.917 913.829C302.198 911.514 307.506 909.131 312.781 906.734L362.589 883.951Z"/><path fill="#FDA916" d="M383.082 824.459L383.602 824.62C384.853 827.49 385.297 833.176 386.174 836.475C390.553 852.959 400.683 871.596 417.569 877.554C421.126 876.022 423.308 875.206 427.004 874.056C434.362 891.542 440.087 894.359 420.82 901.223C417.389 902.445 411.498 905.826 408.061 907.588C401.949 910.679 397.835 908.126 392.744 904.254C374.428 890.322 356.556 861.012 353.489 838.287C356.044 836.438 378.548 826.6 383.082 824.459Z"/><path fill="#FDA916" d="M46.0728 855.329C45.8147 850.341 45.2474 844.151 50.1256 841.421C66.3765 832.327 74.4758 840.367 82.4012 852.415C83.3821 854.028 89.2954 863.958 90.161 864.702C95.1048 874.265 101.82 883.573 107.288 892.893C109.083 896.203 111.103 899.513 113.03 902.759L115.737 907.878L120.59 916.142C127.981 929.33 130.986 946.902 114.405 955.327C111.677 956.713 107.29 958.122 104.178 957.596C100.085 956.904 93.5833 953.293 95.6426 948.138C97.7592 943.185 104.585 944.375 108.527 941.884C116.316 937.204 109.081 925.295 105.844 919.743C102.369 913.782 98.535 907.785 94.8113 901.911L92.8111 898.468C89.601 891.815 82.9009 881.621 78.7769 875.129C78.2005 873.89 75.663 870.03 74.8307 868.931C71.3733 862.741 67.9032 855.896 62.7273 851.063C56.9237 852.233 52.3793 854.297 46.0728 855.329Z"/><path fill="#FDA916" d="M576.768 433.684C616.865 431.667 639.313 467.118 634.029 504.334C633.255 509.785 631.8 515.362 629.638 520.436C626.976 519.8 626.172 518.994 623.96 517.415C626.681 491.921 615.196 466.991 594.052 452.491C588.643 448.707 576.406 443.969 572.492 438.485C571.758 437.458 572.275 436.42 572.647 435.456C574.04 434.116 574.883 434.115 576.768 433.684Z"/><path fill="#FDA916" d="M61.9638 916.11C47.3937 909.422 55.1303 898.764 66.0929 894.283C74.5341 890.833 75.7868 887.438 82.2916 895.972C82.6521 896.965 83.6404 899.9 84.0565 900.687C82.443 907.04 67.9244 913.408 61.9638 916.11Z"/><path fill="#FDA916" d="M87.6308 917.074C94.0938 917.762 99.3604 922.867 96.1063 929.599C94.2036 933.535 82.6808 938.911 78.2695 939.993C71.0596 939.608 67.4787 934.862 70.2724 928.159C72.0639 923.861 83.2825 918.675 87.6308 917.074Z"/><path fill="#FDA916" d="M68.6988 878.964C65.1676 882.837 56.797 888.037 51.2868 888.88C46.4207 889.624 42.3286 884.373 42.3628 880.025C42.4158 873.284 55.4681 866.23 61.4999 866.358C63.8025 866.407 65.0866 868.281 66.422 869.933C68.6634 873.803 69.4299 874.473 68.6988 878.964Z"/><path fill="#FEFEFE" fill-opacity="0.062745102" d="M82.4012 852.415L84.0882 850.108L84.5623 850.779C86.7649 853.941 89.274 859.759 93.8181 853.165C95.3201 855.31 96.8301 857.762 96.8572 860.483L97.5817 861.086C94.7686 864.571 91.6372 863.753 90.161 864.702C89.2954 863.958 83.3821 854.028 82.4012 852.415Z"/><path fill="#FEFEFE" fill-opacity="0.67843139" d="M115.737 907.878L116.667 906.095L117.429 905.915C118.026 906.983 118.263 907.444 118.721 908.576C121.075 907.328 121.013 903.722 124.639 903.406C128.066 905.62 127.399 907.238 130.623 908.353C129.377 908.906 128.711 909.077 127.654 909.918C126.978 910.251 121.084 915.497 120.59 916.142L115.737 907.878Z"/><path fill="#FEFEFE" fill-opacity="0.42745098" d="M74.8307 868.931C75.663 870.03 78.2005 873.89 78.7769 875.129C75.5424 877.857 77.6557 878.844 77.1522 882.906C75.6113 884.53 74.7057 883.825 72.7818 883.012C71.915 878.176 71.8429 874.114 71.2406 869.459C73.1407 870.022 73.36 869.828 74.8307 868.931Z"/><path fill="#FEFEFE" fill-opacity="0.52549022" d="M120.547 898.204C121.935 900.132 121.835 900.69 123.661 901.438C124.827 901.088 125.402 900.935 126.499 900.425L126.851 901.162C128.235 904.123 127.811 906.999 131.923 907.907L130.623 908.353C127.399 907.238 128.066 905.62 124.639 903.406C121.013 903.722 121.075 907.328 118.721 908.576C118.263 907.444 118.026 906.983 117.429 905.915L116.667 906.095L115.737 907.878L113.03 902.759C115.821 901.285 119.482 900.386 120.547 898.204Z"/><path fill="#FEFEFE" fill-opacity="0.05882353" d="M82.8739 893.151C84.1809 892.518 84.2786 892.677 85.7742 892.782C88.6672 894.81 87.904 900.268 92.8111 898.468L94.8113 901.911C93.0122 905.901 94.8924 905.737 94.3818 910.005L93.5235 909.622C92.5147 906.311 93.155 902.95 91.8003 900.86C89.4581 900 87.8012 900.921 86.7795 903.066C86.9455 907.996 90.0394 909.546 91.3956 912.885C87.851 911.029 85.3564 908.086 85.1301 904.007C85.2369 901.002 86.3516 897.49 85.4536 894.44C85.2955 893.903 83.4641 893.385 82.8739 893.151Z"/><path fill="#FEFEFE" fill-opacity="0.16470589" d="M108.044 890.883L108.068 890.065C110.593 886.934 111.767 891.427 115.334 890.005C116.868 891.927 119.15 895.392 120.207 897.658C116.107 901.326 110.238 893.921 108.044 890.883Z"/><defs><linearGradient id="gradient_0" gradientUnits="userSpaceOnUse" x1="93.544159" y1="909.74469" x2="87.746353" y2="902.61267"><stop offset="0" stop-color="white" stop-opacity="0.062745102"/><stop offset="1" stop-color="white" stop-opacity="0.1882353"/></linearGradient></defs><path fill="url(#gradient_0)" d="M91.3956 912.885C90.0394 909.546 86.9455 907.996 86.7795 903.066C87.8012 900.921 89.4581 900 91.8003 900.86C93.155 902.95 92.5147 906.311 93.5235 909.622L94.3818 910.005C93.5659 911.753 93.6392 912.01 91.3956 912.885Z"/><path fill="#FEFEFE" fill-opacity="0.10588235" d="M108.044 890.883C110.238 893.921 116.107 901.326 120.207 897.658L120.547 898.204C119.482 900.386 115.821 901.285 113.03 902.759C111.103 899.513 109.083 896.203 107.288 892.893L108.044 890.883Z"/><path fill="#FEFEFE" fill-opacity="0.27843139" d="M66.422 869.933C67.6956 868.112 66.8815 868.581 68.7233 868.132C69.9233 868.614 70.2602 868.647 71.2406 869.459C71.8429 874.114 71.915 878.176 72.7818 883.012C71.0071 881.205 69.3937 881.032 68.6988 878.964C69.4299 874.473 68.6634 873.803 66.422 869.933Z"/><path fill="#FEFEFE" fill-opacity="0.16862746" d="M84.0882 850.108C87.93 848.462 87.6725 851.022 92.0034 850.274L93.8181 853.165C89.274 859.759 86.7649 853.941 84.5623 850.779L84.0882 850.108Z"/><defs><linearGradient id="gradient_1" gradientUnits="userSpaceOnUse" x1="82.819641" y1="899.79309" x2="86.902191" y2="897.25879"><stop offset="0" stop-color="white" stop-opacity="0"/><stop offset="1" stop-color="white" stop-opacity="0.098039217"/></linearGradient></defs><path fill="url(#gradient_1)" d="M82.8739 893.151C83.4641 893.385 85.2955 893.903 85.4536 894.44C86.3516 897.49 85.2369 901.002 85.1301 904.007L84.0565 900.687C83.6404 899.9 82.6521 896.965 82.2916 895.972C82.9145 894.772 82.7494 894.627 82.8739 893.151Z"/></svg>