<?xml version="1.0" encoding="utf-8" ?><svg xmlns="http://www.w3.org/2000/svg" xmlns:xlink="http://www.w3.org/1999/xlink" width="1024" height="1024" viewBox="0 0 1024 1024"><path fill="#FDA916" d="M736.883 28.2072C741.157 27.7372 746.626 27.8049 750.991 27.8088C846.232 27.8941 932.298 86.8821 970.305 173.594C1006.34 255.806 990.417 351.074 936.559 421.6C928.629 431.983 917.41 442.438 908.285 451.873C887.334 473.28 866.233 494.539 844.983 515.649L795.428 565.619C781.782 579.47 770.008 592.652 754.561 604.594C734.22 620.32 716.745 629.984 693.525 640.115C699.148 620.827 703.609 603.049 705.445 582.968C706.028 576.592 705.971 570.45 706.387 564.068C712.141 560.022 716.741 557.69 722.74 552.881C741.232 538.058 756.702 519.981 773.321 503.37L830.727 446.33C871.29 405.489 904.217 382.356 923.22 325.317C938.036 280.025 934.355 230.713 912.979 188.122C891.248 144.326 852.982 110.977 806.627 95.435C771.023 83.7258 731.573 83.1913 695.715 94.5786C685.589 97.7942 673.994 103.427 664.488 108.267C652.458 114.883 641.153 122.74 630.76 131.711C618.792 142.209 606.863 155.366 595.502 166.777L526.747 235.882L467.236 295.889C454.589 308.533 440.22 321.492 429.077 335.402C380.143 396.485 371.256 475.294 406.966 545.094C426.345 582.764 457.873 612.789 496.443 630.308C504.248 633.807 512.33 636.28 520.456 638.915C518.043 641.851 507.324 651.886 503.681 655.305C494.376 664.033 483.589 676.091 474.087 684.108C451.47 675.241 430.13 660.907 411.692 645.171C362.077 602.83 334.308 541.186 329.122 476.811C324.451 418.584 339.849 360.511 372.756 312.248C389.388 287.793 409.413 268.801 430.282 248.175L489.866 188.905L555.686 122.648C584.745 93.4415 601.694 73.6799 639.304 55.1317C674.924 37.5649 697.205 31.2771 736.883 28.2072Z"/><path fill="#FDA916" d="M551.23 331.425C556.157 333.148 560.88 335.432 565.509 337.771C693.163 402.294 733.58 570.152 659.891 690.257C640.974 721.091 622.002 738.112 597.144 763.218C575.356 785.197 553.364 806.973 531.171 828.542C506.742 852.64 482.831 877.626 458.467 901.813C453.48 906.763 448.784 912.441 443.851 917.333C435.986 925.13 426.413 932.641 417.382 939.038C376.568 968.276 327.697 984.149 277.492 984.476C261.543 984.563 244.902 984.055 229.325 981.102C89.2597 954.553 2.5439 808.124 45.4539 672.253C61.7311 620.713 86.2099 590.118 123.931 553.285C133.554 543.784 143.127 534.232 152.65 524.631L252.016 425.17C272.019 404.11 303.092 383.02 330.825 374.057C321.38 397.287 319.376 420.922 317.393 445.294C305.369 455.66 291.68 470.331 280.232 481.645C254.091 507.223 228.233 533.087 202.661 559.234L158.383 603.257C148.241 613.459 136.379 624.972 128.152 636.775C111.984 659.64 100.962 685.737 95.8429 713.269C87.502 759.957 97.9667 808.049 124.953 847.05C182.971 931.078 294.949 950.685 379.149 894.655C396.022 883.427 409.484 868.597 423.738 854.434L479.061 798.735L540.482 737.077C562.031 715.764 586.712 693.425 603.686 668.586C620.335 644.184 631.6 616.518 636.733 587.427C645.097 538.376 633.883 488.002 605.5 447.132C582.952 415.073 544.733 384.197 505.435 377.416L532.441 350.223C538.244 344.314 545.118 336.771 551.23 331.425Z"/><path fill="#FDA916" d="M736.925 142.185C771.979 139.947 799.756 148.333 827.309 169.396C883.949 212.696 891.378 294.727 848.092 349.939C842.645 356.887 836.664 362.511 830.549 368.778L800.02 399.725L735.815 464.673C725.769 474.8 715.629 484.968 705.715 495.224C704.68 496.295 703.676 497.192 702.19 497.372C701.325 496.748 700.837 496.548 700.541 495.204C699.133 488.802 697.839 483.056 695.999 476.752C724.344 447.553 752.973 418.631 781.883 389.991C816.79 354.995 854.77 327.993 855.98 273.692C856.92 244.122 845.822 215.436 825.225 194.198C805.579 173.756 778.581 162.008 750.232 161.565C728.317 161.27 706.654 167.604 688.698 180.212C679.262 186.838 669.772 197.397 661.502 205.658C650.421 216.758 639.272 227.788 628.056 238.75C597.645 268.613 566.97 299.915 536.843 330.157L507.546 359.614C500.246 366.924 492.297 374.417 485.96 382.499C476.815 394.2 469.595 407.286 464.572 421.262C443.467 481.882 483.151 552.118 544.266 568.398C547.813 569.343 551.021 570.18 554.532 571.368C553.236 577.901 551.554 584.855 550.1 591.393C543.551 589.662 536.693 587.493 530.326 585.195C483.053 568.128 446.642 524.634 440.535 474.354C436.272 436.573 447.246 398.652 471.027 368.988C474.708 364.32 478.438 360.313 482.627 356.13C496.381 342.397 509.853 328.421 523.711 314.793L596.382 242.365C610.514 228.391 624.529 214.301 638.428 200.095C649.728 188.57 662.813 174.037 675.852 164.908C695.465 151.175 713.142 144.922 736.925 142.185Z"/><path fill="#FDA916" d="M474.359 424.181C501.105 429.264 522.898 438.741 542.759 458.139C568.935 483.648 583.802 518.581 584.035 555.131C584.351 586.032 575.91 611.769 559.85 637.983C550.813 652.734 534.945 667.168 522.379 679.558L484.254 717.092C468.25 732.764 452.465 749.16 436.461 764.961C418.926 782.273 401.215 799.572 383.959 817.117C377.565 823.567 371.137 830.297 364.394 836.355C302.701 891.783 201.678 876.92 162.817 802.121C141.363 760.828 142.852 714.401 167.66 674.757C180.899 653.601 201.7 636.36 219.167 618.72L299.282 538.148C304.378 533.114 319.112 517.426 323.825 514.157C326.032 521.291 327.326 527.83 329.764 535.37C323.343 542.654 312.41 552.502 305.289 559.788L224.786 640.716C211.279 654.379 197.336 666.266 186.405 682.187C178.179 694.386 172.506 708.124 169.729 722.573C158.31 781.653 197.731 837.419 256.491 848.455C285.346 853.777 315.132 847.419 339.3 830.781C350.089 823.374 357.957 814.755 367.106 805.603L394.729 778.027L475.755 697.487C489.204 684.031 503.573 670.947 516.893 657.262C524.959 648.904 533.926 641.063 540.737 631.59C578.772 578.685 571.206 504.282 518.649 463.922C505.223 453.612 484.658 446.622 467.755 443.472C468.762 439.151 471.114 426.513 474.359 424.181Z"/><path fill="#FDA916" d="M467.067 452.427C486.214 459.349 502.526 472.423 513.452 489.602C517.759 496.332 521.356 504.096 526.148 510.531C534.504 521.752 543.041 529.117 553.582 538.045C555.881 543.876 556.096 555.2 555.537 561.382C547.164 561.327 518.701 534.456 512.952 527.196C498.713 509.212 488.961 487.099 468.666 474.806C467.107 467.63 466.839 459.737 467.067 452.427Z"/></svg>